<svg width="65" height="43" viewBox="0 0 65 43" fill="none" xmlns="http://www.w3.org/2000/svg">
<path d="M9.3581 39.749C9.34484 39.7624 9.33247 39.8016 9.33247 39.8141C8.49226 41.4182 6.83745 42.5001 4.96354 42.5001C2.23615 42.5001 0 40.1919 0 37.35C0 34.5206 2.23615 32.2 4.96354 32.2C6.85071 32.2 8.50551 33.3086 9.34573 34.9376C9.37135 34.9635 9.37135 34.9902 9.39785 35.0285C9.41111 35.0419 7.80754 36.2022 7.79517 36.1755C7.7828 36.1487 7.78192 36.1229 7.76955 36.1104C7.30394 34.9635 6.21812 34.1935 4.96442 34.2069C3.28399 34.2202 1.9013 35.6149 1.9013 37.3491C1.9013 39.0958 3.27162 40.5047 4.95205 40.5047C6.16687 40.5047 7.22708 39.7481 7.70506 38.6796C7.73068 38.6404 7.73068 38.6146 7.75718 38.5754L9.3581 39.749Z" fill="#161413"/>
<path d="M11.4137 32.2981H13.3265V35.8966H18.3545V32.2981H20.2805V42.3113H18.3545V37.9178H13.3265V42.3113H11.4137V32.2981Z" fill="#161413"/>
<path d="M47.2794 42.3113V32.2981H54.2211V34.3193H49.2187V36.3137H53.8465V38.3081H49.2187V40.3026H54.9324V42.297H47.2803V42.3113H47.2794Z" fill="#161413"/>
<path d="M57.6497 42.3113V32.2981H59.589V40.3168H64.9925V42.3113H57.6497Z" fill="#161413"/>
<path d="M36.8389 42.3113H36.7744H34.8872V32.2981H35.0295H37.589L41.8413 38.3215V32.2981H43.7673V42.3113H42.2291L36.8389 34.7622V42.3113Z" fill="#161413"/>
<path d="M27.5785 34.3193L25.8848 38.3224H29.3491L27.5785 34.3193ZM25.019 40.3168L24.1267 42.3113H21.826L26.2338 32.2981H28.9223L33.3558 42.3113H31.0551L30.1628 40.3168H25.019Z" fill="#161413"/>
<path d="M49.3677 20.6943C49.3486 20.7135 49.3309 20.7315 49.3118 20.7699C47.5283 23.6738 44.3346 25.6213 40.7321 25.6213C39.5617 25.6213 38.4472 25.4151 37.4444 25.0784C39.6734 22.4933 41.0291 19.122 41.0291 15.4306C41.0291 11.7585 39.6924 8.368 37.4824 5.78289C38.4853 5.42694 39.5807 5.24001 40.7321 5.24001C44.3168 5.24001 47.6223 7.16956 49.4426 10.2976C49.4616 10.3168 49.4616 10.3347 49.4616 10.3539L53.6582 8.16186C53.6391 8.12473 53.6214 8.08632 53.6023 8.04919C51.0394 3.53453 46.2298 0.5 40.7321 0.5C38.0765 0.5 35.5873 1.2311 33.489 2.46668C31.4085 1.22982 28.9014 0.5 26.2459 0.5C20.7672 0.5 15.9385 3.53453 13.3756 8.04919C13.3566 8.06839 13.3388 8.10552 13.3197 8.16186L17.5163 10.3539C17.5163 10.3347 17.5163 10.3168 17.5354 10.2976C19.3557 7.18748 22.6611 5.24001 26.2459 5.24001C27.3972 5.24001 28.4927 5.42694 29.4955 5.78289C27.2855 8.38721 25.9488 11.7585 25.9488 15.4306C25.9488 19.1207 27.3045 22.5112 29.5336 25.0784C28.5308 25.4151 27.3972 25.6213 26.2459 25.6213C22.6243 25.6213 19.4306 23.6725 17.6661 20.7699C17.6471 20.7327 17.6293 20.7135 17.6103 20.6943L15.5297 21.7622L13.4492 22.8492C13.4492 22.8684 13.4683 22.8684 13.4683 22.8864C13.4683 22.9056 13.4873 22.9056 13.4873 22.9235C16.0692 27.3626 20.8231 30.3421 26.2649 30.3421C28.9205 30.3421 31.4097 29.611 33.508 28.3933C35.5885 29.611 38.0956 30.3421 40.7511 30.3421C46.1929 30.3421 50.9468 27.3447 53.5287 22.9235C53.5287 22.9043 53.5478 22.9043 53.5478 22.8864C53.5478 22.8672 53.5668 22.8672 53.5668 22.8492L51.4863 21.7622L49.3677 20.6943ZM33.489 22.5112C31.7613 20.6751 30.6659 18.1835 30.6659 15.4306C30.6659 12.7329 31.7055 10.2796 33.489 8.44355C35.2725 10.2796 36.3121 12.7329 36.3121 15.4306C36.3108 18.1835 35.1976 20.6751 33.489 22.5112Z" fill="#161413"/>
</svg>
