<svg width="70" height="43" viewBox="0 0 70 43" fill="none" xmlns="http://www.w3.org/2000/svg">
<path d="M33.9328 6.16376L36.0405 12.5854H42.8825L37.345 16.5642L39.4528 22.9859L33.9139 19.0071L28.375 22.9859L30.4828 16.5642L24.9439 12.5854H31.7859L33.9328 6.16376ZM46.6789 15.2388C46.6789 22.192 40.9675 27.8371 33.9328 27.8371C26.898 27.8371 21.1866 22.192 21.1866 15.2388C21.1866 8.28567 26.898 2.64056 33.9328 2.64056C40.9675 2.64056 46.6789 8.28567 46.6789 15.2388ZM33.9328 0.5C25.6905 0.5 19.0021 7.11216 19.0021 15.2575C19.0021 23.4028 25.6918 30.015 33.9328 30.015C42.1737 30.015 48.8634 23.4028 48.8634 15.2575C48.8446 7.09218 42.175 0.5 33.9328 0.5Z" fill="black"/>
<path d="M68.7589 36.1902C68.9125 36.1716 69.0271 36.0956 69.0271 35.9065C69.0271 35.6987 68.9125 35.6028 68.6632 35.6028H68.2603L68.2791 36.6444H68.4328V36.1902H68.6053L68.8923 36.6444H69.0648L68.7589 36.1902ZM68.4328 36.0583V35.736H68.643C68.7575 35.736 68.8734 35.7546 68.8734 35.8878C68.8734 36.0583 68.7387 36.0583 68.6053 36.0583H68.4328Z" fill="black"/>
<path d="M68.6255 35.2432C68.1268 35.2432 67.7252 35.6215 67.7252 36.133C67.7252 36.6445 68.147 37.0227 68.6255 37.0227C69.1241 37.0227 69.5257 36.6445 69.5257 36.133C69.5257 35.6414 69.1227 35.2432 68.6255 35.2432ZM68.6255 36.8922C68.2036 36.8922 67.8775 36.5512 67.8775 36.1343C67.8775 35.7174 68.2036 35.3764 68.6255 35.3764C69.0473 35.3764 69.3734 35.6987 69.3734 36.1343C69.3734 36.5699 69.0459 36.8922 68.6255 36.8922Z" fill="black"/>
<path d="M57.6609 34.8076V36.2848H53.9037V36.759V37.3078V37.9525H54.3255H55.9925H56.4723C57.3537 37.9525 58.0625 38.6532 58.0625 39.5243V40.0731V40.5087V40.887C58.0625 41.7581 57.3537 42.4588 56.4723 42.4588H52.1018V41.0002H56.4143V40.526V40.0904V39.4457H55.9925H54.3255H53.8457C52.9643 39.4457 52.2555 38.7451 52.2555 37.8739V37.3251V36.7763V36.3981C52.2555 35.5269 52.9643 34.8263 53.8457 34.8263H57.6596V34.8076H57.6609Z" fill="black"/>
<path d="M66.2859 42.4801H62.4721C61.5907 42.4801 60.8818 41.7794 60.8818 40.9083V39.9039V37.3837V36.3794C60.8818 35.5083 61.5907 34.8076 62.4721 34.8076H66.2859V36.2848H62.5287V37.3837V37.9898H66.2859V39.467H62.5287V39.884V40.9829H66.2859V42.4801Z" fill="black"/>
<path d="M40.5268 42.4801H36.713C35.8316 42.4801 35.1227 41.7794 35.1227 40.9083V39.9039V37.3837V36.3794C35.1227 35.5083 35.8316 34.8076 36.713 34.8076H40.5268V36.2848H36.7696V37.3837V37.9898H40.5268V39.467H36.7696V39.884V40.9829H40.5268V42.4801Z" fill="black"/>
<path d="M18.6005 34.8076H19.4252H22.223C23.1043 34.8076 23.8132 35.5083 23.8132 36.3794V42.4987H22.165V36.3048H19.4239V42.5H17.7757V34.8276L18.6005 34.8076Z" fill="black"/>
<path d="M48.2314 39.3924C49.0171 39.2979 49.5925 38.7104 49.5925 37.9152V37.7074V36.4953V36.3821C49.5925 35.5109 48.9605 34.9421 48.0777 34.9421H45.1075H44.2639H43.2666V42.3309H44.9916V39.4897H46.6209L47.9632 42.3309H49.8027L48.2314 39.3924ZM47.8675 36.5885V37.7061V38.1603H44.9929V36.2662H47.8675V36.5885Z" fill="black"/>
<path d="M27.5705 34.8076L29.41 41.192L31.3452 34.8076H33.2239L30.7132 42.4801H28.1257L25.7296 34.8076H27.5705Z" fill="black"/>
<path d="M0.525696 36.3807C0.525696 35.5096 1.23456 34.809 2.11593 34.809H6.19933V36.2862H2.17388V41.0029H6.19933V42.4801H2.11593C1.23456 42.4801 0.525696 41.7794 0.525696 40.9083V36.3807Z" fill="black"/>
<path d="M13.6734 34.9408H10.3003C9.41889 34.9408 8.57526 35.5096 8.57526 36.3807V40.9269C8.57526 41.798 9.41889 42.3482 10.3003 42.3482H13.6923C14.5737 42.3482 15.3028 41.7994 15.3028 40.9269V36.3807C15.2839 35.5082 14.5562 34.9408 13.6734 34.9408ZM13.5589 41.0028H10.1089V36.2662H13.5589V41.0028Z" fill="black"/>
</svg>
