<svg width="79" height="43" viewBox="0 0 79 43" fill="none" xmlns="http://www.w3.org/2000/svg">
<path d="M32.3766 0.504272C34.9778 0.514003 37.5789 0.504273 40.1801 0.514003C41.124 0.572385 42.0679 0.514005 43.0118 0.543196C42.9679 1.29242 42.9789 2.04165 42.9789 2.79088C40.3557 2.79088 37.7216 2.78115 35.0985 2.79088C35.0985 3.90985 35.0985 5.02883 35.0985 6.14781C36.5692 6.14781 38.0509 6.15754 39.5216 6.14781C39.5326 6.85811 39.5216 7.57815 39.5326 8.28846C38.0619 8.30792 36.5802 8.28846 35.1095 8.29819C35.1095 11.1102 35.0985 13.9223 35.1204 16.7343C34.1985 16.7538 33.2766 16.7538 32.3546 16.7343C32.3875 14.3407 32.3327 11.947 32.3875 9.56312C32.3766 6.53702 32.3656 3.52064 32.3766 0.504272Z" fill="#231F20"/>
<path d="M43.9447 0.504325C44.8667 0.504325 45.7886 0.494594 46.7105 0.504325C46.6886 2.66444 46.7325 4.82455 46.6776 6.97493C46.6776 9.51452 46.6776 12.0638 46.6776 14.6034C46.6776 15.3137 46.6996 16.024 46.6447 16.7344C45.152 16.7538 43.6703 16.6954 42.1777 16.7052C40.1362 16.7052 38.0948 16.7052 36.0533 16.7052C36.0533 15.9559 36.0863 15.197 36.0753 14.4477C38.6984 14.4477 41.3216 14.4477 43.9447 14.4477C43.9557 13.319 43.9447 12.2001 43.9447 11.0714C42.474 11.0714 40.9923 11.0714 39.5216 11.0714C39.5216 10.361 39.5216 9.64101 39.5216 8.92097C40.9923 8.90151 42.474 8.93071 43.9447 8.90152C43.9557 6.11867 43.9557 3.31636 43.9447 0.504325Z" fill="#231F20"/>
<path d="M0.525696 23.8082C5.1793 23.8082 9.8329 23.8082 14.4755 23.8082C14.4755 24.9175 14.4865 26.0267 14.4755 27.136C11.1939 27.136 7.90122 27.136 4.61955 27.136C4.61955 28.5274 4.61955 29.9188 4.61955 31.3102C7.49513 31.3005 10.3707 31.3102 13.2463 31.3102C13.2573 32.4195 13.2463 33.519 13.2573 34.6282C10.3817 34.6282 7.49513 34.6282 4.61955 34.6282C4.60857 37.2457 4.61955 39.8728 4.61955 42.4903C3.25859 42.4805 1.88666 42.4805 0.525696 42.4903C0.525696 36.2629 0.536671 30.0356 0.525696 23.8082Z" fill="#231F20"/>
<path d="M17.1974 42.4903C17.1974 36.2629 17.1865 30.0356 17.1974 23.8082C22.0047 23.818 26.812 23.818 31.6192 23.8082C31.6192 24.9175 31.6192 26.0267 31.6192 27.136C28.151 27.136 24.6717 27.1262 21.2035 27.136C21.2145 28.4398 21.2035 29.7437 21.2035 31.0475C24.3864 31.0378 27.5802 31.0475 30.7631 31.0475C30.7522 32.147 30.7631 33.2563 30.7522 34.3655C27.5693 34.3655 24.3864 34.3655 21.2035 34.3655C21.1925 35.9613 21.2145 37.5668 21.1925 39.1625C24.8254 39.1723 28.4473 39.1625 32.0802 39.1625C32.0912 40.2718 32.0912 41.381 32.0802 42.4903C27.1303 42.4903 22.1584 42.4708 17.1974 42.4903Z" fill="#231F20"/>
<path d="M35.1753 23.8082C36.6241 23.818 38.0618 23.818 39.5106 23.8082C42.1118 28.1479 44.724 32.4876 47.3361 36.8273C47.3471 32.4876 47.3471 28.1576 47.3361 23.818C48.6093 23.8082 49.8824 23.818 51.1556 23.818C51.1666 30.0453 51.1556 36.2727 51.1556 42.5C49.7946 42.4903 48.4337 42.5 47.0727 42.5C44.3947 38.0533 41.7167 33.6163 39.0277 29.1696C39.0277 33.6163 39.0277 38.0533 39.0277 42.5C37.7436 42.4903 36.4594 42.4903 35.1753 42.5C35.1753 36.2629 35.1753 30.0356 35.1753 23.8082Z" fill="#231F20"/>
<path d="M55.0629 23.8082C58.0372 23.818 61.0116 23.8082 63.9859 23.8082C65.6213 23.8277 67.2895 24.2364 68.5517 25.1899C69.8688 26.1046 70.6371 27.4863 71.12 28.8777C71.5261 30.1426 71.6797 31.4659 71.7017 32.7795C71.6468 34.8131 71.3175 36.8857 70.2639 38.7149C69.6054 39.9799 68.4969 41.0697 67.1139 41.741C66.1042 42.2276 64.9408 42.4319 63.7993 42.4611C60.8908 42.4708 57.9823 42.4513 55.0738 42.4708C55.0519 36.2629 55.0629 30.0356 55.0629 23.8082ZM59.1128 27.0679C59.1018 31.1254 59.1018 35.1731 59.1128 39.2306C60.4079 39.2209 61.703 39.2306 62.9981 39.2306C63.525 39.2209 64.0628 39.1625 64.5567 38.9679C65.5005 38.6176 66.17 37.8684 66.62 37.0803C67.3664 35.6402 67.531 34.0055 67.4871 32.4389C67.4432 30.9308 67.1798 29.3253 66.0603 28.1285C65.3908 27.389 64.2713 27.1457 63.2506 27.0873C61.8677 27.0581 60.4957 27.0873 59.1128 27.0679Z" fill="#231F20"/>
<path d="M74.4346 42.5C74.4236 36.2727 74.4236 30.0356 74.4346 23.8082C75.7955 23.8277 77.1565 23.8082 78.5174 23.818C78.5284 30.0453 78.5284 36.2629 78.5174 42.4903C77.1565 42.4903 75.7955 42.4708 74.4346 42.5Z" fill="#231F20"/>
</svg>
