<svg width="79" height="43" viewBox="0 0 79 43" fill="none" xmlns="http://www.w3.org/2000/svg">
<path d="M51.126 15.7191C50.7529 15.1613 50.6871 14.1911 49.9189 14.0941C49.1727 13.8758 48.4485 13.6332 47.7023 13.4392C46.2318 13.706 44.7833 13.9728 43.3129 14.2396C43.1373 15.1128 42.9617 15.9859 42.8081 16.8591C45.1784 17.1987 47.5267 17.5382 49.897 17.8778C50.5115 18.3386 51.126 18.7752 51.7405 19.2361C53.3427 19.4301 54.9668 19.6241 56.5689 19.7939C57.3151 19.5029 58.0832 19.1875 58.8294 18.8965C56.4811 18.0718 54.0889 17.3927 51.8064 16.3498C51.543 16.2285 51.3455 15.9617 51.126 15.7191Z" fill="#DB0026"/>
<path d="M59.7428 18.8002C59.5912 18.5608 59.3312 18.489 59.1579 18.3932C58.9846 18.2975 59.0063 18.106 58.8763 18.0581C58.7247 18.0102 58.4648 18.3454 58.2698 18.2736C58.0749 18.2017 58.0749 17.7948 57.9232 17.723C57.7499 17.6751 57.4467 17.9623 57.295 17.9145C57.1434 17.8666 57.1001 17.4357 56.9485 17.3639C56.7968 17.316 56.4719 17.6272 56.3203 17.5793C56.1686 17.5314 56.147 17.1005 55.9737 17.0287C55.8004 16.9808 55.4971 17.292 55.3455 17.2202C55.1939 17.1724 55.1722 16.7414 55.0206 16.6936C54.8473 16.6457 54.544 16.9569 54.3924 16.8851C54.2407 16.8372 54.1974 16.3824 54.0458 16.3345C53.8942 16.2866 53.6126 16.5499 53.3743 16.526C51.7497 16.3584 51.1215 15.2333 51.0132 15.5684C50.9049 15.9036 51.3597 16.6936 51.9229 16.9569C52.3778 17.1724 57.23 18.6566 57.3384 18.7284C57.4683 18.8002 57.7716 18.9439 57.6633 19.1354C57.49 19.3748 57.0134 19.1354 56.9051 19.0396C56.7752 18.9199 56.8185 18.896 56.6885 18.8481C56.4286 18.7763 56.2769 19.3029 56.017 19.2311C55.7571 19.1593 55.7787 18.6087 55.5404 18.5369C55.2588 18.4651 55.1289 18.9917 54.8689 18.9199C54.6523 18.872 54.609 18.2975 54.3707 18.2257C54.0891 18.1539 53.9808 18.6805 53.6992 18.6087C53.4609 18.5369 53.4609 17.9863 53.2226 17.9145C52.9627 17.8426 52.7894 18.3693 52.5511 18.2975C52.3129 18.2257 52.2695 17.6751 52.0529 17.6272C51.8363 17.5793 51.663 17.8666 51.3598 17.8905C51.3598 17.8905 50.5149 18.1539 49.1719 16.5978C47.8289 15.0418 47.2874 14.7545 46.5075 15.3769C45.2512 16.4063 44.493 15.736 44.2547 15.4248C43.9731 15.0657 44.2764 14.7545 44.2764 14.7545C44.2764 14.7545 44.6663 15.4248 45.1645 15.4487C45.966 15.4727 46.5725 14.2518 47.9589 14.2518C49.7135 14.18 50.1684 14.8742 50.6449 14.9221C51.0781 14.9699 51.2298 14.8981 51.533 14.7066C51.7713 14.6109 51.9879 15.1375 52.2479 15.0418C52.5295 14.9221 52.3129 14.3954 52.6161 14.2757C52.8977 14.156 53.071 14.7066 53.331 14.5869C53.6126 14.4672 53.4393 13.9166 53.6992 13.8209C53.9808 13.7012 54.1324 14.2518 54.414 14.1321C54.6956 14.0124 54.5223 13.4857 54.7823 13.366C55.0422 13.2463 55.2372 13.7969 55.5188 13.6772C55.7787 13.5815 55.6271 13.0069 55.887 12.9112C56.147 12.8154 56.3419 13.3421 56.6235 13.2224C56.8618 13.1266 56.7318 12.5521 56.9701 12.4563C57.2084 12.3606 57.4467 12.8872 57.7066 12.7675C57.9449 12.6718 57.8149 12.0972 58.0532 12.0015C58.3131 11.9057 58.5298 12.4085 58.7897 12.3127C59.0496 12.2169 58.8547 11.7621 59.1796 11.5706C59.1796 11.5706 59.6345 11.403 59.6128 11.0439C59.6128 10.9721 59.5045 10.1821 58.768 10.0145C58.0532 9.84696 52.3345 11.5945 52.2695 11.4988C51.7497 10.3497 51.0781 10.6609 50.9698 10.6848C50.8615 10.7088 50.2333 11.02 49.5185 10.7088C48.1322 10.0145 47.0274 11.786 46.2693 11.5466C45.5761 11.3312 45.0345 11.4509 44.7529 11.5706C44.493 11.6663 44.0598 12.0494 43.1283 11.7142C36.0016 9.03303 30.4346 11.3791 30.4346 11.3791C27.2937 12.5281 26.9038 11.3791 26.9038 11.3791C26.9038 11.3791 25.864 9.82302 33.1423 7.97971C43.6049 5.32246 43.9081 0.941589 43.7782 0.654319C43.6049 0.247353 43.5399 0.726134 43.1933 1.15704C42.9117 1.51613 42.5651 1.34855 42.5651 1.34855C42.2402 1.18098 42.0236 1.58795 42.0236 1.58795C42.0236 1.58795 41.5903 2.30612 41.2221 1.89916C40.8538 1.49219 40.3773 2.40188 40.204 2.42582C39.9874 2.4737 39.8791 2.354 39.5975 2.21037C39.1642 1.99491 38.7093 2.85672 38.4711 2.92854C38.1028 3.0243 37.8645 2.44976 37.5396 2.68915C36.6082 3.40732 36.4565 3.50308 36.2183 3.21581C36.0233 3.00036 36.0016 2.7849 35.3951 3.43126C34.8752 3.98186 34.6153 4.10156 34.3987 3.74247C34.1821 3.38338 34.2471 2.9046 33.3373 3.86217C32.904 4.31701 32.6874 4.34095 32.4275 4.1255C32.2325 3.98186 32.2325 3.23975 31.5827 3.91005C30.9978 4.50852 30.5646 4.77186 30.3913 4.2452C30.1963 3.64672 29.5032 4.36489 29.3515 4.53247C29.1782 4.70004 28.8316 5.15488 28.5717 4.6761C28.3118 4.22125 27.7269 4.89155 27.3586 5.3464C27.077 5.68154 26.8604 5.41822 26.5788 5.20276C26.2539 4.96337 25.2575 6.47154 25.1708 6.5673C25.0842 6.66305 25.0192 6.56729 24.7809 6.35184C24.4343 6.01669 23.5029 7.83607 23.3512 7.95577C23.3512 7.95577 23.2863 8.12334 23.0263 7.83607C22.6581 7.45305 20.7302 10.2539 19.9937 13.4378C19.0622 17.5075 20.5569 20.6435 20.5569 20.6435C20.5569 20.6435 21.0118 20.6675 21.1851 20.3323L21.4667 19.6141C21.705 19.0157 22.0949 19.2072 22.0949 19.2072L21.1851 22.1996C21.0334 22.5826 21.1201 23.1571 21.445 23.6838C21.7483 24.2105 21.9432 24.5696 22.1815 24.809C22.918 25.575 22.853 24.6653 22.8747 24.5456C22.9613 24.0668 23.4596 24.4259 23.8278 24.6653C24.521 25.0962 24.456 24.1387 24.6076 23.8274C24.7159 23.612 25.0625 23.5881 25.4308 23.9471C25.7124 24.2105 26.0156 23.3008 26.0156 23.3008C26.3839 21.3857 25.5391 21.1463 25.0625 21.1223L24.1311 21.0744C24.1311 21.0744 24.196 20.7872 24.2827 20.4999L24.326 20.3084C25.3441 17.5314 23.6545 16.9808 23.1346 17.0287C22.5714 17.0766 22.6147 16.6936 22.6147 16.6936C22.6147 16.6936 25.669 16.0233 25.1058 19.6141C25.1058 19.6141 24.9975 20.2366 24.9325 20.5717L25.7774 20.6914C26.4922 20.7872 26.6222 21.7447 26.6222 21.7447C26.6222 21.7447 29.2865 22.5108 30.7812 22.1996C30.7812 22.1996 31.4527 22.032 31.6477 21.5532C31.6477 21.5532 32.6224 19.0157 35.4818 18.896C35.4818 18.896 35.5901 19.2311 35.1352 19.3987C34.5936 19.5902 32.7741 19.7578 32.3842 22.0799C32.3408 22.4629 32.4275 23.2768 33.1856 23.6359C33.8138 23.9471 34.0521 25.2159 34.1821 25.575C34.5503 26.5565 35.1135 25.6229 35.1135 25.6229C35.1135 25.6229 35.4601 24.8329 35.7634 25.2638C36.2616 26.0059 36.4999 25.6229 36.6298 25.168C36.7598 24.6653 36.9331 24.4499 37.4746 25.0483C37.6913 25.3117 38.1461 25.1202 38.1895 24.6414C38.2761 23.6359 38.9043 24.4259 38.991 24.4738C39.0993 24.5217 39.7491 24.3541 39.3809 23.229C39.3809 23.229 38.8826 22.1517 36.6948 21.6729C36.1749 21.5532 36.2616 21.1463 36.2616 21.1463L36.7381 21.2181C36.8898 21.242 38.1678 21.4096 38.2978 21.4335C43.6699 22.0081 47.7423 19.9972 47.8506 19.8535C52.0096 20.7393 57.6849 20.4281 58.7464 20.0211C59.7861 19.662 59.8728 18.9917 59.7428 18.8002ZM51.1431 11.4509C51.2298 11.3073 51.3164 11.2115 51.3814 11.1636C51.7063 10.9721 51.9013 11.5945 51.8796 11.6185C51.8796 11.6185 51.8796 11.6185 51.858 11.6185C51.8146 11.6424 51.1865 11.8339 51.1215 11.786C50.9915 11.7142 51.1431 11.4509 51.1431 11.4509ZM48.7604 11.6424C48.7604 11.6424 48.847 11.5227 48.9986 11.4748C49.1503 11.403 49.3885 11.403 49.6918 11.6185C50.0384 11.8579 50.0384 12.0733 50.0384 12.0733C50.0167 12.0733 50.0167 12.0972 49.9951 12.0972C49.7351 12.2169 48.6954 12.3606 48.6954 12.3606C48.4787 11.9297 48.7604 11.6424 48.7604 11.6424ZM29.1132 6.01669C29.2865 6.16033 29.1132 7.04608 29.0049 6.90244L28.0951 6.37578C28.0951 6.37578 28.9399 5.87306 29.1132 6.01669ZM27.6402 6.5673C27.8135 6.71093 27.6619 7.59668 27.5319 7.45304L26.6222 6.92638C26.6222 6.92638 27.467 6.42366 27.6402 6.5673ZM27.142 8.26697C27.3153 8.41061 27.1637 9.29636 27.0337 9.15273L26.1239 8.60213C26.1023 8.62606 26.9471 8.12334 27.142 8.26697ZM26.2756 10.5412L25.3658 10.0145C25.3658 10.0145 26.2106 9.51181 26.3839 9.65545C26.5572 9.79908 26.3839 10.6848 26.2756 10.5412ZM26.1023 12.2648L25.1925 11.7382C25.1925 11.7382 26.0373 11.2354 26.2106 11.3791C26.3839 11.5227 26.2322 12.3845 26.1023 12.2648ZM26.0806 7.16578C26.2539 7.30941 26.0806 8.17122 25.9723 8.05152L25.0625 7.52486C25.0625 7.52486 25.9073 7.02214 26.0806 7.16578ZM25.2791 8.50637C25.4524 8.65 25.2791 9.51182 25.1708 9.39212L24.261 8.86545C24.261 8.86545 25.1058 8.33879 25.2791 8.50637ZM23.6762 10.5651C23.6762 10.5651 24.521 10.0624 24.6943 10.206C24.8676 10.3497 24.6943 11.2115 24.586 11.0918L23.6762 10.5651ZM24.3693 12.7436L23.4596 12.2169C23.4596 12.2169 24.3044 11.7142 24.4777 11.8579C24.6726 12.0015 24.4993 12.8633 24.3693 12.7436ZM23.7195 9.10485C23.8928 9.24848 23.7195 10.1103 23.6112 9.9906L22.7014 9.46393C22.7014 9.46393 23.5462 8.96121 23.7195 9.10485ZM22.8964 10.8524C23.0696 10.996 22.918 11.8818 22.788 11.7382L21.8783 11.2115C21.8783 11.2115 22.7231 10.7088 22.8964 10.8524ZM21.705 12.9351C21.705 12.9351 22.5498 12.4324 22.7231 12.576C22.8964 12.7197 22.7231 13.5815 22.6147 13.4618L21.705 12.9351ZM23.3296 14.8981L22.4198 14.3715C22.4198 14.3715 23.2646 13.8687 23.4379 14.0124C23.6328 14.156 23.4596 15.0178 23.3296 14.8981ZM24.6293 16.0472L23.7195 15.5205C23.7195 15.5205 24.5643 15.0178 24.7376 15.1615C24.9325 15.3051 24.7593 16.1908 24.6293 16.0472ZM25.0409 14.2278L24.1311 13.7012C24.1311 13.7012 24.9759 13.1984 25.1492 13.3421C25.3225 13.4857 25.1708 14.3475 25.0409 14.2278ZM26.2539 16.8372L25.3441 16.3105C25.3441 16.3105 26.1889 15.8078 26.3622 15.9515C26.5355 16.0951 26.3622 16.9569 26.2539 16.8372ZM26.6871 15.1615L25.7774 14.6348C25.7774 14.6348 26.6222 14.1321 26.7954 14.2757C26.9687 14.4193 26.8171 15.2812 26.6871 15.1615ZM26.9904 13.5815L26.0806 13.0548C26.0806 13.0548 26.9254 12.5521 27.0987 12.6957C27.272 12.8394 27.0987 13.7012 26.9904 13.5815ZM28.2468 16.6457L27.337 16.119C27.337 16.119 28.1818 15.6163 28.3551 15.7599C28.55 15.8796 28.3767 16.7654 28.2468 16.6457ZM28.6583 14.9699L27.7486 14.4433C27.7486 14.4433 28.5934 13.9406 28.7667 14.0842C28.9399 14.2278 28.7667 15.0896 28.6583 14.9699ZM28.9833 13.1984L28.0735 12.6718C28.0735 12.6718 28.9183 12.1691 29.0916 12.3127C29.2649 12.4563 29.1132 13.3181 28.9833 13.1984ZM30.2613 16.3345L29.3515 15.8078C29.3515 15.8078 30.1963 15.3051 30.3696 15.4487C30.5429 15.5924 30.3696 16.4542 30.2613 16.3345ZM30.5646 14.539L29.6548 14.0124C29.6548 14.0124 30.4996 13.5097 30.6729 13.6533C30.8462 13.7969 30.6945 14.6587 30.5646 14.539ZM30.8678 12.6957L29.958 12.1691C29.958 12.1691 30.8029 11.6663 30.9761 11.81C31.1711 11.9536 30.9978 12.8394 30.8678 12.6957ZM32.2325 15.6163L31.3227 15.0896C31.3227 15.0896 32.1675 14.5869 32.3408 14.7306C32.5358 14.8742 32.3625 15.736 32.2325 15.6163ZM32.4925 13.8687L31.5827 13.3421C31.5827 13.3421 32.4275 12.8394 32.6008 12.983C32.7957 13.1266 32.6224 13.9884 32.4925 13.8687ZM32.7957 12.1451L31.8859 11.6185C31.8859 11.6185 32.7307 11.1157 32.904 11.2594C33.099 11.403 32.9257 12.2648 32.7957 12.1451ZM34.2037 15.2572L33.2939 14.7306C33.2939 14.7306 34.1387 14.2278 34.312 14.3715C34.4853 14.4912 34.312 15.3769 34.2037 15.2572ZM34.442 13.6054L33.5322 13.0788C33.5322 13.0788 34.377 12.576 34.5503 12.7197C34.7453 12.8633 34.572 13.7251 34.442 13.6054ZM34.7453 11.8579L33.8355 11.3312C33.8355 11.3312 34.6803 10.8285 34.8536 10.9721C35.0269 11.1157 34.8752 11.9775 34.7453 11.8579ZM36.0016 15.2812L35.0919 14.7545C35.0919 14.7545 35.9367 14.2518 36.11 14.3954C36.3049 14.539 36.1316 15.4009 36.0016 15.2812ZM36.3049 13.5097L35.3951 12.983C35.3951 12.983 36.2399 12.4803 36.4132 12.6239C36.5865 12.7675 36.4132 13.6294 36.3049 13.5097ZM36.6298 11.7621L35.72 11.2354C35.72 11.2354 36.5648 10.7327 36.7381 10.8763C36.9331 11.02 36.7598 11.8818 36.6298 11.7621ZM37.8862 15.2812L36.9764 14.7545C36.9764 14.7545 37.8212 14.2518 37.9945 14.3954C38.1895 14.539 38.0162 15.4009 37.8862 15.2812ZM38.1895 13.6054L37.2797 13.0788C37.2797 13.0788 38.1245 12.576 38.2978 12.7197C38.4711 12.8633 38.2978 13.749 38.1895 13.6054ZM38.5144 11.9057L37.6046 11.3791C37.6046 11.3791 38.4494 10.8763 38.6227 11.02C38.8177 11.1636 38.6444 12.0254 38.5144 11.9057ZM39.6625 15.5205L38.7527 14.9939C38.7527 14.9939 39.5975 14.4912 39.7708 14.6348C39.9657 14.7784 39.7924 15.6402 39.6625 15.5205ZM39.9874 13.9166L39.0776 13.39C39.0776 13.39 39.9224 12.8872 40.0957 13.0309C40.2906 13.1745 40.1174 14.0363 39.9874 13.9166ZM40.334 12.2648L39.4242 11.7382C39.4242 11.7382 40.269 11.2354 40.4423 11.3791C40.6372 11.5227 40.4639 12.3845 40.334 12.2648ZM41.742 14.2518L40.8322 13.7251C40.8322 13.7251 41.677 13.2224 41.8503 13.366C42.0452 13.5097 41.8719 14.3954 41.742 14.2518Z" fill="#004526"/>
<path d="M17.8925 29.477C17.6976 28.9264 17.351 28.687 16.6795 28.6631C16.6145 28.6631 13.5602 28.6631 13.5602 28.6631L9.0329 42.2605C9.0329 42.2605 11.2207 42.2605 11.2424 42.2605C11.4373 42.2845 11.6106 42.2366 11.7623 42.1648C12.1955 41.9493 12.3905 41.3987 12.4554 41.2072C12.4554 41.2072 13.062 39.316 13.1053 39.1963C13.4302 39.1963 17.416 39.1963 17.6542 39.1963C17.7409 39.5075 18.5857 42.2605 18.5857 42.2605H21.5533L19.6688 35.6533L17.8925 29.477ZM16.9827 36.3954C16.5278 36.3954 14.1017 36.3954 13.9284 36.3954C14.2534 35.39 15.0765 32.8764 15.4231 31.847C15.7263 32.8764 16.9611 36.3715 16.9827 36.3954Z" fill="black"/>
<path d="M39.3159 28.5435C35.7851 28.5435 33.2507 31.464 33.2507 35.4858C33.2507 39.4118 35.8501 42.3803 39.3159 42.3803C42.7818 42.3803 45.4895 39.34 45.4895 35.4858C45.4895 31.6077 42.7818 28.5435 39.3159 28.5435ZM39.4026 39.364C37.6047 39.364 36.1967 37.6403 36.1967 35.4619C36.1967 33.2834 37.583 31.6556 39.4026 31.6556C41.2222 31.6556 42.5219 33.2595 42.5219 35.4619C42.5219 37.6882 41.1788 39.364 39.4026 39.364Z" fill="black"/>
<path d="M53.4609 34.265L53.3526 34.2171L52.2046 33.8341L52.0313 33.7623C51.0998 33.3792 50.4283 33.068 50.4283 32.4696C50.4283 32.4456 50.4283 32.4456 50.4283 32.4217C50.515 31.4162 52.2046 31.4162 52.2262 31.4162C53.1577 31.4162 53.8725 31.5838 54.7606 31.9668H54.7823L54.8256 31.9908C55.0422 32.0386 55.2155 32.0386 55.3672 32.0147L55.6271 31.919C55.9953 31.7035 56.3419 30.5544 56.4719 30.0517L56.5152 29.8841L56.4069 29.7644C56.3636 29.7165 56.1037 29.4772 55.1505 29.0941C54.1758 28.6872 52.7894 28.6393 52.7894 28.6393H52.1179C48.5654 28.6393 47.2007 31.0571 47.1574 32.685C47.1357 34.3129 47.9589 35.1507 49.2153 35.8929C49.7351 36.2041 50.7099 36.5153 51.4031 36.7307L52.1179 36.9701C53.4393 37.425 53.9375 37.9277 53.8508 38.7416C53.8075 39.0049 53.3526 39.4359 52.3562 39.4359C51.5764 39.4359 50.8832 39.3162 50.1684 39.0289C49.8218 38.8852 49.4535 38.6698 49.0853 38.4304L49.0636 38.4065L49.0203 38.3825C48.8037 38.2868 48.6304 38.2628 48.4571 38.2628L48.1755 38.3347C47.7639 38.5022 47.2007 39.6513 46.9841 40.1301L46.8975 40.3216L47.0491 40.4652C47.0708 40.4892 47.6989 41.0398 48.2405 41.3749C48.8687 41.758 49.5835 42.0452 50.4066 42.2367C50.7532 42.3086 51.2731 42.3804 52.1179 42.3804C54.8689 42.3804 56.8618 40.8483 57.1001 38.5501C57.1867 36.4913 56.0387 35.1268 53.4609 34.265Z" fill="black"/>
<path d="M59.3313 28.6871C59.2229 28.6871 58.6164 28.6871 58.2698 29.0462C58.1182 29.2138 58.0316 29.4292 58.0316 29.6686V31.8232C58.0316 31.8232 61.3458 31.8232 61.779 31.8232C61.779 32.3259 61.779 42.2846 61.779 42.2846H64.855C64.855 42.2846 64.855 32.3498 64.855 31.8471C65.2665 31.8471 67.2811 31.8471 67.2811 31.8471C67.3894 31.8471 67.9959 31.8232 68.3425 31.488C68.4941 31.3204 68.5808 31.105 68.5808 30.8656V28.7111H59.3313V28.6871Z" fill="black"/>
<path d="M6.58514 39.1964C6.58514 39.1964 4.0074 39.1964 3.14094 39.1964C3.14094 38.6937 3.14094 29.932 3.14094 29.932C3.14094 29.5489 3.03263 29.2377 2.83767 29.0223C2.51275 28.6871 2.01453 28.6871 1.81958 28.6871H0V42.2846H7.68988V40.1301C7.66822 39.8188 7.55991 39.1964 6.58514 39.1964Z" fill="black"/>
<path d="M28.5934 31.5598C29.3299 31.5119 29.9581 31.5598 30.5646 31.7274C30.8895 31.8471 31.1711 31.871 31.4094 31.7992L31.6477 31.6795C31.9943 31.4401 32.2326 30.2431 32.3625 29.5728L32.3842 29.4053L32.2542 29.3095C32.2326 29.2856 32.1243 29.2138 31.0195 28.8786C30.0014 28.5674 29.0916 28.5435 28.6584 28.5435H28.6151C26.059 28.5435 22.2249 30.4107 22.1166 35.5098V35.5337C22.2249 40.6567 26.059 42.5 28.6151 42.5H28.6584C29.1133 42.5 30.0014 42.4521 31.0195 42.1648C32.1243 41.8297 32.2326 41.7579 32.2542 41.7339L32.3842 41.6382L32.3625 41.4706C32.2542 40.7764 31.9943 39.5794 31.6477 39.34L31.4094 39.2203C31.1711 39.1485 30.8679 39.1725 30.5646 39.2921C29.9798 39.4597 29.3516 39.5315 28.5934 39.4597C26.6655 39.2443 25.4958 37.8079 25.4091 35.4858C25.4958 33.2355 26.6439 31.7752 28.5934 31.5598Z" fill="black"/>
<path d="M77.7003 42.2606C78.1768 42.2606 78.9783 41.9494 78.9783 40.8961V39.1964H73.5629C73.5629 39.1964 73.5629 37.2334 73.5629 36.9222C74.0178 36.9222 78.0468 36.9222 78.0468 36.9222V33.7862C78.0468 33.7862 74.0394 33.7862 73.5845 33.7862C73.5845 33.4031 73.5845 32.2062 73.5845 31.8232C74.0178 31.8232 77.7003 31.8232 77.7003 31.8232C77.8086 31.8232 78.4368 31.8232 78.7617 31.4641C79 31.2007 79 30.7459 79 30.5065V28.7111H70.4653V42.2846L77.7003 42.2606Z" fill="black"/>
</svg>
