<svg width="36" height="43" viewBox="0 0 36 43" fill="none" xmlns="http://www.w3.org/2000/svg">
<path d="M26.4893 0.5C29.4589 0.5 32.4169 0.5 35.3865 0.5C35.3865 1.17648 35.3865 1.84129 35.3865 2.51777C34.6325 2.55276 33.8669 2.63441 33.1709 2.94932C32.4633 3.26423 31.8833 3.8474 31.5701 4.55887C27.9625 13.0732 24.3665 21.5991 20.7589 30.1134C20.7009 30.2534 20.6429 30.3934 20.5733 30.5333C19.2857 30.5217 17.9981 30.5333 16.7105 30.5217C16.1421 29.3903 15.5853 28.2473 15.0053 27.1043C14.3441 28.8771 13.6829 30.65 13.0333 32.4228C17.2905 32.4228 21.5361 32.4228 25.7933 32.4228C26.5705 32.4345 27.3709 32.3995 28.1017 32.0962C29.3081 31.6064 30.2709 30.6616 31.0597 29.6352C32.0109 28.3989 32.7301 26.9993 33.3681 25.5764C34.0873 25.5647 34.8065 25.5764 35.5257 25.5764C34.1685 28.5039 32.7997 31.4197 31.4193 34.3356C21.6173 34.3356 11.8153 34.3356 2.02489 34.3356C2.26849 33.7058 2.48889 33.0759 2.74409 32.4578C2.75569 32.3995 2.83689 32.4111 2.88329 32.3995C4.10129 32.3878 5.34249 32.3412 6.53729 32.0846C7.16369 31.9329 7.81329 31.7463 8.28889 31.2914C8.54409 31.0465 8.62529 30.6966 8.70649 30.3584C9.86649 27.2442 11.0265 24.1301 12.1865 21.016C9.73889 15.7674 7.27969 10.5305 4.83209 5.282C4.63489 4.82713 4.37969 4.37226 3.96209 4.06901C3.11529 3.42752 2.01329 3.34588 0.992493 3.31089C0.992493 2.56443 0.992493 1.8063 0.992493 1.05984C4.43769 1.05984 7.87129 1.05984 11.3165 1.05984C11.3165 1.8063 11.3165 2.56443 11.3165 3.31089C10.8641 3.33421 10.3885 3.33421 9.98249 3.55582C9.78529 3.64912 9.65769 3.89406 9.71569 4.11566C9.77369 4.47723 10.0637 4.73382 10.2029 5.04874C11.6529 8.19786 13.1145 11.347 14.5645 14.4844C15.2953 12.4317 16.0261 10.3789 16.7569 8.32616C16.8613 8.04624 16.9077 7.708 16.7801 7.42807C16.6873 7.20647 16.4669 7.06651 16.2465 6.96154C15.8289 6.78659 15.3649 6.78659 14.9241 6.7516C15.1561 6.12177 15.3765 5.48028 15.6201 4.85046C15.6781 4.81547 15.7477 4.83879 15.8173 4.83879C19.3089 4.83879 22.8005 4.83879 26.2921 4.83879C26.0485 5.48028 25.8165 6.11011 25.5729 6.7516C24.7377 6.78659 23.8677 6.80991 23.0789 7.14815C22.7193 7.29978 22.3713 7.53305 22.1625 7.87128C22.0117 8.11622 21.9189 8.39614 21.8261 8.6644C20.3645 12.665 18.8913 16.6538 17.4529 20.6661C18.2533 22.4856 19.0885 24.2817 19.9005 26.0896C22.8585 19.0682 25.8165 12.0351 28.7861 5.01375C28.9833 4.59386 29.3081 4.20897 29.3313 3.71911C29.3545 3.33421 29.0761 3.00764 28.7513 2.85601C28.0553 2.52944 27.2665 2.51777 26.5009 2.48278C26.4893 1.84129 26.4893 1.17648 26.4893 0.5Z" fill="black"/>
<path d="M31.8717 38.3362C32.8113 39.3042 33.7277 40.284 34.6557 41.2637C34.6557 40.354 34.6557 39.4442 34.6557 38.5228C34.8181 38.5228 34.9805 38.5228 35.1313 38.5228C35.1313 39.8291 35.1313 41.1237 35.1313 42.43C34.1917 41.462 33.2753 40.4823 32.3473 39.5025C32.3473 40.4239 32.3473 41.3337 32.3473 42.2551C32.1849 42.2551 32.0225 42.2551 31.8717 42.2551C31.8717 40.9488 31.8717 39.6425 31.8717 38.3362Z" fill="black"/>
<path d="M4.66969 38.4645C5.70209 38.3012 6.79249 39.1176 6.88529 40.1673C6.96649 40.7738 6.73449 41.4037 6.29369 41.8119C5.57449 42.5233 4.27529 42.5117 3.56769 41.7769C3.18489 41.4037 2.97609 40.8788 2.99929 40.3423C3.01089 39.4209 3.76489 38.5928 4.66969 38.4645ZM4.66969 38.9427C4.06649 39.036 3.57929 39.5725 3.49809 40.1673C3.38209 40.8438 3.79969 41.5786 4.46089 41.8002C5.02929 42.0218 5.72529 41.8119 6.09649 41.322C6.57209 40.7272 6.49089 39.7591 5.91089 39.2576C5.57449 38.966 5.09889 38.861 4.66969 38.9427Z" fill="black"/>
<path d="M12.1053 38.6627C12.6273 38.2661 13.4973 38.4294 13.7989 39.0359C13.6713 39.1059 13.5437 39.1759 13.4161 39.2575C13.1841 38.896 12.6273 38.8143 12.3257 39.1176C12.1981 39.2109 12.2097 39.3858 12.2213 39.5375C12.2561 39.7241 12.4533 39.8057 12.6041 39.8874C12.9869 40.0856 13.4393 40.2023 13.7061 40.5638C14.0077 40.9721 13.9497 41.5669 13.6249 41.9401C13.2885 42.3483 12.6737 42.4533 12.1981 42.2317C11.8385 42.0568 11.6065 41.6719 11.5369 41.287C11.6993 41.252 11.8617 41.217 12.0241 41.1703C12.0357 41.5202 12.3141 41.8818 12.6853 41.8935C13.1841 41.9518 13.5901 41.287 13.3001 40.8671C12.9869 40.4355 12.3837 40.4355 12.0241 40.0623C11.6065 39.7124 11.6413 38.9659 12.1053 38.6627Z" fill="black"/>
<path d="M29.3197 38.4645C29.9925 38.3828 30.6885 38.6977 31.1061 39.2343C31.6977 39.9807 31.6049 41.182 30.8973 41.8352C30.4913 42.2318 29.8997 42.4067 29.3429 42.3484C28.7861 42.3134 28.2757 41.9985 27.9509 41.5553C27.6029 41.0771 27.5217 40.4356 27.6841 39.8641C27.8929 39.1176 28.5657 38.5578 29.3197 38.4645ZM29.2269 38.9543C28.4845 39.0826 27.9509 39.8757 28.0785 40.6222C28.1597 41.3337 28.8325 41.9168 29.5401 41.9052C30.0273 41.9168 30.4913 41.6369 30.7465 41.2287C31.1409 40.6455 31.0365 39.7941 30.5261 39.3159C30.2129 38.966 29.6909 38.8494 29.2269 38.9543Z" fill="black"/>
<path d="M1.37529 38.5228C1.52609 38.5228 1.67689 38.5228 1.83929 38.5228C1.83929 39.6309 1.83929 40.7272 1.83929 41.8352C2.22209 41.8352 2.60489 41.8352 2.98769 41.8352C2.98769 41.9752 2.98769 42.1152 2.98769 42.2551C2.45409 42.2551 1.92049 42.2551 1.38689 42.2551C1.37529 41.0188 1.37529 39.7708 1.37529 38.5228Z" fill="black"/>
<path d="M7.2565 38.5344C7.4189 38.5344 7.5813 38.5344 7.7437 38.5344C7.7437 39.2692 7.7437 40.004 7.7437 40.7388C7.7553 41.0654 7.7901 41.4153 8.0221 41.6719C8.3817 42.0335 9.0893 41.9751 9.3445 41.5203C9.4721 41.2987 9.5069 41.0421 9.5069 40.7971C9.5069 40.0507 9.5069 39.2925 9.5069 38.5461C9.6693 38.5461 9.8317 38.5461 9.9941 38.5461C9.9941 39.3159 9.9941 40.0857 9.9941 40.8438C9.9941 41.1937 9.9361 41.5552 9.7157 41.8352C9.2401 42.5 8.1381 42.535 7.6161 41.9052C7.3725 41.6486 7.2681 41.2753 7.2681 40.9254C7.2565 40.1206 7.2565 39.3275 7.2565 38.5344Z" fill="black"/>
<path d="M10.5857 38.5228C10.7481 38.5228 10.9105 38.5228 11.0613 38.5228C11.0613 39.7708 11.0613 41.0188 11.0613 42.2551C10.8989 42.2551 10.7365 42.2551 10.5857 42.2551C10.5857 41.0188 10.5857 39.7708 10.5857 38.5228Z" fill="black"/>
<path d="M15.3997 38.5344C15.5737 38.5344 15.7477 38.5344 15.9333 38.5344C16.3045 39.4442 16.6641 40.3539 17.0237 41.2637C17.3833 40.3539 17.7545 39.4558 18.1141 38.5461C18.2997 38.5344 18.4737 38.5461 18.6593 38.5344C18.1141 39.8524 17.5805 41.182 17.0353 42.5C16.4785 41.1704 15.9449 39.8524 15.3997 38.5344Z" fill="black"/>
<path d="M18.8797 38.5228C19.0421 38.5228 19.2045 38.5228 19.3553 38.5228C19.3553 39.246 19.3553 39.9691 19.3553 40.6922C19.3669 41.0305 19.3901 41.427 19.6569 41.6836C19.9585 41.9402 20.4341 41.9635 20.7589 41.7303C20.9445 41.602 21.0489 41.3687 21.0953 41.1471C21.1649 40.7622 21.1417 40.3773 21.1417 39.9924C21.1417 39.5026 21.1417 39.0127 21.1417 38.5228C21.2925 38.5228 21.4549 38.5228 21.6057 38.5228C21.6173 39.1993 21.6057 39.8874 21.6057 40.5639C21.6173 40.9838 21.6057 41.4387 21.3505 41.8003C20.8981 42.4534 19.8773 42.5234 19.3089 41.9869C19.0305 41.7186 18.8797 41.3337 18.8797 40.9488C18.8797 40.1557 18.8797 39.3393 18.8797 38.5228Z" fill="black"/>
<path d="M22.2089 38.5344C22.3713 38.5344 22.5453 38.5344 22.7077 38.5344C22.7077 39.7824 22.7077 41.0304 22.7077 42.2667C22.5453 42.2667 22.3713 42.2667 22.2089 42.2667C22.2089 41.0187 22.2089 39.7707 22.2089 38.5344Z" fill="black"/>
<path d="M23.0093 38.5344C24.5057 38.5344 26.0021 38.5344 27.5101 38.5344C27.5101 38.686 27.5101 38.8377 27.5101 38.9776C27.2201 38.9776 26.9301 38.9776 26.6517 38.9776C26.6517 40.074 26.6517 41.1704 26.6517 42.2667C26.4893 42.2667 26.3153 42.2667 26.1529 42.2667C26.1529 41.1704 26.1529 40.074 26.1529 38.9776C25.5613 38.9776 24.9813 38.9776 24.3897 38.9776C24.3897 40.074 24.3897 41.1704 24.3897 42.2667C24.2389 42.2667 24.0881 42.2667 23.9257 42.2667C23.9257 41.1704 23.9257 40.074 23.9257 38.9776C23.6241 38.9776 23.3225 38.9776 23.0209 38.9776C23.0093 38.826 23.0093 38.6744 23.0093 38.5344Z" fill="black"/>
</svg>
