<svg width="106" height="23" viewBox="0 0 106 23" fill="none" xmlns="http://www.w3.org/2000/svg">
<path d="M3.24128 14.7107C3.61684 14.7701 3.96351 14.7999 4.33906 14.7999C6.6502 14.7999 7.19909 12.7782 7.19909 11.6485C7.19909 9.98365 6.39019 8.76473 4.68573 8.76473C4.16573 8.76473 3.73239 8.82419 3.24128 8.85392V14.7107ZM3.38572 22.262C2.89461 22.2323 0.959033 22.2323 0.525696 22.262C0.612363 20.5674 0.583475 7.69446 0.583475 7.69446C1.0457 7.75392 5.0324 7.69446 5.43685 7.69446C6.41908 7.69446 7.48798 7.78365 8.47021 8.49716C9.25022 9.09175 9.88578 9.95392 9.88578 11.4999C9.88578 13.5215 8.67244 15.8404 4.68573 15.8404C4.07906 15.8404 3.73239 15.7809 3.27016 15.7512C3.24128 15.7512 3.32794 21.5782 3.38572 22.262Z" fill="black"/>
<path d="M16.2413 11.1134L14.1324 16.3458C14.8547 16.3756 15.548 16.435 16.2702 16.435C16.9058 16.435 17.5414 16.3756 18.1769 16.3458L16.2413 11.1134ZM19.6214 19.9134L18.7547 17.6539C17.8591 17.5945 14.4791 17.5945 13.6413 17.6539C12.9769 19.2891 12.3124 21.0431 11.9946 22.2621C11.7346 22.2621 10.3768 22.2621 10.088 22.2621L12.4857 16.7918C14.5658 12.0053 15.7502 9.24044 16.2702 7.51611C16.5013 7.51611 17.3969 7.51611 17.5991 7.51611C18.5814 10.4296 19.8236 13.4026 20.5747 15.1864C21.3547 17.0296 22.7125 20.2404 23.637 22.2918C23.3481 22.2621 20.8925 22.2918 20.5169 22.2918L19.6214 19.9134Z" fill="black"/>
<path d="M26.8726 7.72424C27.0459 7.72424 27.6814 7.72424 27.8259 7.72424C29.7904 9.95397 31.6104 11.9161 34.1237 14.4134L36.5504 16.881C36.9549 17.2675 37.1282 17.4161 37.5904 17.8026C37.5904 17.8026 37.5038 9.44857 37.3304 7.72424C37.5615 7.72424 38.8327 7.72424 39.0927 7.72424C38.9193 10.281 38.9193 21.8459 38.9193 22.381C38.7749 22.381 38.2549 22.381 38.0815 22.381C35.4526 19.4675 30.397 14.2648 28.2015 12.2134C28.2015 15.0972 28.2303 16.6432 28.2592 18.9026C28.2881 20.1215 28.317 20.3594 28.4615 22.2918C28.2303 22.2918 26.9303 22.2918 26.6992 22.2918L26.8726 19.3486C26.9014 18.754 26.9014 9.68641 26.8726 7.72424Z" fill="black"/>
<path d="M46.7483 18.0999C46.7483 19.081 46.8061 20.0621 46.835 21.0432C47.2972 21.0729 49.1172 21.1324 49.6373 21.1324C50.995 21.1324 54.4906 20.0918 54.4906 14.6513C54.4906 11.9161 53.2195 8.85397 48.9439 8.85397C48.2506 8.85397 47.5283 8.91343 46.835 8.94316C46.7772 9.7756 46.7483 10.6675 46.7483 11.4999V18.0999ZM54.2595 21.0729C52.8151 22.0242 51.4862 22.2918 49.7817 22.2918C48.5106 22.2918 44.6972 22.2324 44.0616 22.2918C44.0616 22.2918 44.235 11.8269 44.1483 10.4891C44.0905 9.56749 44.0905 8.67559 44.0616 7.72424C44.6105 7.7837 48.0772 7.72424 49.2906 7.72424C51.0528 7.72424 53.2195 7.81344 54.924 9.181C56.5129 10.4594 57.2929 12.3621 57.2929 14.5621C57.3218 17.5648 56.1951 19.7945 54.2595 21.0729Z" fill="black"/>
<path d="M82.2821 14.354C82.6865 14.3837 83.1776 14.4134 83.6976 14.4134C85.7488 14.4134 86.5288 12.8675 86.5288 11.4999C86.5288 10.608 86.3843 9.83505 85.6621 9.29992C85.1132 8.8837 84.4198 8.76478 83.7554 8.76478C83.3509 8.76478 82.5998 8.85397 82.2821 8.85397V14.354ZM86.2399 15.8999C86.5288 16.3459 86.991 17.0296 87.3088 17.5053C88.9266 19.854 89.5043 20.5972 90.7755 22.2621C90.2266 22.2621 87.8865 22.2323 87.2799 22.2621C86.991 21.7864 86.5288 20.9837 86.211 20.508C85.1421 18.8432 83.871 16.9702 82.7732 15.3648H82.2821C82.2821 15.3648 82.3687 21.7269 82.3687 22.2918C81.9643 22.2324 80.0287 22.2324 79.5665 22.2918C79.7398 18.0999 79.7687 10.4891 79.6242 7.72424C80.0865 7.7837 84.6221 7.72424 85.0843 7.72424C86.4132 7.72424 87.4243 7.90262 88.3199 8.76478C88.9266 9.38911 89.2732 10.2513 89.2732 11.1432C89.2732 13.4918 87.5688 14.7107 85.691 15.0675L86.2399 15.8999Z" fill="black"/>
<path d="M98.5756 11.1134L96.4666 16.3458C97.1889 16.3756 97.8822 16.435 98.6044 16.435C99.24 16.435 99.8756 16.3756 100.511 16.3458L98.5756 11.1134ZM101.984 19.9134L101.118 17.6539C100.222 17.5945 96.8422 17.5945 96.0044 17.6539C95.34 19.2891 94.6755 21.0431 94.3577 22.2621C94.0688 22.2323 92.7399 22.2621 92.451 22.2621L94.8489 16.7918C96.9289 12.0053 98.1133 9.24044 98.6333 7.51611C98.8644 7.51611 99.7311 7.51611 99.9622 7.51611C100.944 10.4296 102.187 13.4026 102.938 15.1864C103.718 17.0296 105.076 20.2404 106 22.2918C105.711 22.2918 103.227 22.2621 102.88 22.2918L101.984 19.9134Z" fill="black"/>
<path d="M68.213 21.4297C71.6797 21.4297 73.0375 18.0405 73.0375 15.0081C73.0375 11.5594 71.7664 8.58645 68.213 8.58645C64.6597 8.58645 63.3596 12.1243 63.3596 15.0081C63.3308 18.1594 64.6597 21.4297 68.213 21.4297ZM75.8686 14.7405C75.8686 19.4675 72.7486 22.5 68.213 22.5C63.9374 22.5 60.5285 19.8838 60.5285 15.2459C60.5285 9.86483 64.1108 7.48645 68.2708 7.48645C72.0842 7.48645 75.8686 9.65672 75.8686 14.7405Z" fill="black"/>
<path d="M68.704 5.04862C68.704 5.31618 68.4729 5.55403 68.2129 5.55403C67.9529 5.55403 67.7218 5.31618 67.7218 5.04862C67.7218 4.78105 67.9529 4.54321 68.2129 4.54321C68.4729 4.54321 68.704 4.78105 68.704 5.04862Z" fill="black"/>
<path d="M67.1729 5.16751C67.1729 5.43508 66.9418 5.67292 66.6818 5.67292C66.4218 5.67292 66.1907 5.43508 66.1907 5.16751C66.1907 4.89995 66.4218 4.66211 66.6818 4.66211C66.9418 4.66211 67.1729 4.89995 67.1729 5.16751Z" fill="black"/>
<path d="M70.2352 5.16751C70.2352 5.43508 70.0041 5.67292 69.7441 5.67292C69.4841 5.67292 69.253 5.43508 69.253 5.16751C69.253 4.89995 69.4841 4.66211 69.7441 4.66211C70.0041 4.66211 70.2352 4.89995 70.2352 5.16751Z" fill="black"/>
<path d="M70.0041 6.17831C69.4264 6.08912 68.8486 6.02966 68.2419 6.02966C67.5775 6.02966 66.9708 6.08912 66.393 6.17831L66.5952 6.89183C66.5952 6.89183 67.3175 6.77291 68.2708 6.77291C69.1953 6.77291 69.8019 6.89183 69.8019 6.89183L70.0041 6.17831Z" fill="black"/>
<path d="M68.7908 4.12703L68.213 0.5L67.6352 4.12703C67.8374 4.12703 68.0108 4.12703 68.213 4.12703C68.3863 4.12703 68.6174 4.12703 68.7908 4.12703Z" fill="black"/>
<path d="M64.8041 0.826904L65.8441 4.33501C66.2196 4.27555 66.5952 4.21609 66.9708 4.18636L64.8041 0.826904Z" fill="black"/>
<path d="M71.5641 0.826904L70.553 4.33501C70.1774 4.27555 69.8019 4.21609 69.4263 4.18636L71.5641 0.826904Z" fill="black"/>
</svg>
