<svg width="66" height="33" viewBox="0 0 66 33" fill="none" xmlns="http://www.w3.org/2000/svg">
<path d="M64.4788 2.62281C64.0336 3.95067 64.9062 6.03099 63.6418 6.42934L24.3213 6.27443L20.1541 6.38508L19.5665 7.51377L14.6514 30.7071L13.9747 31.0833L7.33222 30.9284L6.70893 29.3128C4.85688 19.8629 2.77331 10.5457 0.992493 1.09577C2.70208 0.808069 4.67879 0.65315 6.40619 1.1179C8.20482 8.02278 9.024 15.3924 10.5911 22.5407L10.8048 22.7399L11.2856 22.0538L15.524 1.42774L16.0048 0.940856L60.6678 1.02938C61.9144 1.53839 64.5856 -0.0771723 64.4788 2.62281Z" fill="#231F20"/>
<path d="M64.5322 11.5417C64.6391 13.0908 63.4459 14.5072 62.5911 15.4146C60.9706 14.5293 58.976 12.6703 56.9815 14.0203C56.3582 14.5957 55.9308 15.6359 56.3761 16.499C59.1363 19.0662 64.0514 17.672 65.0843 22.8506C65.6007 25.0858 65.1911 27.9407 63.7665 29.5342C61.4692 32.1899 58.1391 32.7653 54.9336 31.6145C53.5267 30.8399 51.9596 30.3088 50.7308 28.9145C51.1939 27.3211 52.0308 25.9711 52.9034 24.776C54.7021 25.3293 56.2514 27.1219 58.4596 26.8121C59.1897 26.7899 60.1158 26.1703 60.4719 25.1965C60.7391 21.3236 56.75 22.8285 54.9336 21.7219C53.0637 21.1687 51.6034 19.1769 51.2295 16.9638C50.8733 14.64 51.3897 12.4269 52.8144 10.9441C56.1267 8.13349 61.3623 8.57611 64.5322 11.5417Z" fill="#231F20"/>
<path d="M49.3418 10.4131C49.4665 17.0524 49.4486 23.9573 49.3062 30.5744C47.5788 31.1277 45.6377 30.6408 43.8213 30.6408C42.3432 27.5867 41.4528 24.6654 39.761 21.5892C39.5473 21.4786 39.4582 21.8327 39.298 21.8991L39.1555 30.4416C37.998 31.2162 36.3774 30.508 35.0418 30.8179L34.7569 29.6892C34.8103 23.4261 34.6144 16.5876 35.024 10.4573C36.5199 10.059 38.1939 10.059 39.8678 10.1475L40.3486 10.568L44.1062 18.9556L44.6226 18.8229C44.498 16.3442 44.9254 13.2237 44.8185 10.4795C46.0829 9.7934 47.9528 10.1696 49.3418 10.4131Z" fill="#231F20"/>
<path d="M26.4404 21.3014C26.3336 19.6637 25.7815 18.0703 25.2295 16.6318C24.4815 17.9154 24.4993 19.7301 24.1788 21.2572C24.8021 21.9432 25.7637 21.6113 26.4404 21.3014ZM30.4295 15.4367L33.4391 30.5522C32.1569 31.1497 30.5007 30.7071 29.0404 30.7293C28.3103 29.4678 28.7733 27.0776 27.1172 26.8121C25.5678 26.9227 23.5733 26.1703 22.5226 27.6973L21.8103 30.7956C20.4035 31.017 18.7295 31.0391 17.4295 30.6186C18.8363 23.7801 20.4569 17.0302 22.1487 10.3023C24.2322 9.79332 26.9213 9.99249 29.0939 10.3023L30.4295 15.4367Z" fill="#231F20"/>
<path d="M65.2267 8.04482C65.1911 8.02269 65.1377 8.0227 65.0843 8.0227H65.0309V8.35466H65.1199C65.1733 8.35466 65.2267 8.33253 65.2624 8.3104C65.298 8.28826 65.3158 8.22187 65.3158 8.17761C65.298 8.11122 65.2624 8.06696 65.2267 8.04482ZM64.7815 8.97433V7.82351C64.835 7.82351 64.924 7.82351 65.0309 7.82351C65.1377 7.82351 65.2089 7.82351 65.2267 7.82351C65.298 7.82351 65.3692 7.84565 65.4048 7.88991C65.4939 7.93417 65.5295 8.04482 65.5295 8.15548C65.5295 8.244 65.5117 8.33253 65.4582 8.35466C65.4226 8.39892 65.3692 8.42105 65.298 8.42105C65.3514 8.44318 65.4048 8.46531 65.4226 8.48744C65.4761 8.55384 65.5117 8.64236 65.5117 8.75302V8.86367C65.5117 8.8858 65.5117 8.8858 65.5117 8.90794V8.93006V8.97433H65.2802C65.2802 8.95219 65.2624 8.8858 65.2624 8.81941C65.2624 8.75302 65.2624 8.70876 65.2445 8.68663C65.2267 8.64236 65.2089 8.62023 65.1733 8.5981C65.1555 8.5981 65.1199 8.57597 65.0843 8.57597H65.0309H64.9774V8.97433H64.7815ZM64.6569 7.80138C64.5322 7.9563 64.461 8.15548 64.461 8.39892C64.461 8.64236 64.5322 8.84154 64.6569 8.99646C64.7993 9.17351 64.9418 9.2399 65.1377 9.2399C65.3336 9.2399 65.4939 9.15138 65.6185 8.99646C65.7432 8.81941 65.8144 8.62023 65.8144 8.39892C65.8144 8.15548 65.7432 7.9563 65.6185 7.80138C65.4761 7.62434 65.3158 7.53581 65.1377 7.53581C64.9596 7.53581 64.7993 7.62434 64.6569 7.80138ZM65.7254 9.12925C65.5651 9.32842 65.3692 9.41695 65.1377 9.41695C64.9062 9.41695 64.7103 9.30629 64.55 9.12925C64.3898 8.93007 64.3185 8.68662 64.3185 8.39892C64.3185 8.08909 64.4076 7.84564 64.5856 7.64647C64.7459 7.44729 64.9418 7.35876 65.1555 7.35876C65.387 7.35876 65.5829 7.46942 65.7432 7.6686C65.9035 7.86778 65.9925 8.11122 65.9925 8.39892C65.9747 8.68662 65.8856 8.93007 65.7254 9.12925Z" fill="#231F20"/>
</svg>
