<svg width="41" height="45" viewBox="0 0 41 45" fill="none" xmlns="http://www.w3.org/2000/svg">
<path d="M0.992493 18.0948C1.00392 18.0402 1.03819 17.9857 1.03819 17.9312C1.14101 16.4258 1.41519 14.9532 1.90643 13.5133C3.18594 9.7173 5.45936 6.57575 8.72669 4.08868C11.0687 2.31065 13.7076 1.09984 16.6322 0.467164C18.3802 0.0853777 20.1623 -0.0564289 21.9559 0.0199284C26.7884 0.238092 31.0039 1.90704 34.5454 5.0486C37.8356 7.97199 39.8691 11.5608 40.6574 15.7932C40.7945 16.5131 40.8744 17.2549 40.9316 17.9857C40.9773 18.6402 41.023 19.3056 40.9658 19.9601C40.8402 21.5963 40.566 23.1998 40.0291 24.7597C39.2865 26.9413 38.1783 28.9484 36.7046 30.7483C34.8767 32.9735 32.649 34.7516 30.0214 36.0606C27.9993 37.0641 25.863 37.7077 23.601 37.9804C19.2141 38.504 15.0443 37.8168 11.1829 35.7224C7.59569 33.7808 4.89958 31.0319 3.0717 27.4976C1.90643 25.2942 1.25525 22.9489 1.04961 20.4837C1.03819 20.331 1.01534 20.1892 0.992493 20.0364C0.992493 19.3929 0.992493 18.7384 0.992493 18.0948ZM20.9163 37.8168C21.0306 37.8168 21.1562 37.8168 21.2705 37.8168C22.47 37.7841 23.6581 37.6859 24.8348 37.4568C28.9019 36.6387 32.3748 34.7734 35.2195 31.8827C38.6467 28.403 40.4175 24.247 40.566 19.4692C40.6117 18.2148 40.486 16.9712 40.2461 15.7277C39.732 13.1097 38.6924 10.6881 37.1045 8.49559C34.9453 5.49584 32.1235 3.24875 28.6048 1.83069C25.2118 0.467164 21.6703 0.0308368 18.0146 0.576246C13.6391 1.23074 9.93766 3.16148 6.84169 6.17214C5.42509 7.55748 4.29409 9.12826 3.39158 10.8627C2.13491 13.3279 1.44946 15.9241 1.38092 18.6729C1.34664 20.0801 1.48373 21.4872 1.79219 22.8617C2.649 26.6904 4.56827 29.9738 7.52715 32.6899C10.189 35.1225 13.3421 36.6823 16.9407 37.4132C18.2431 37.6859 19.5797 37.8168 20.9163 37.8168Z" fill="black"/>
<path d="M14.3131 42.9873C14.3131 43.6308 14.3131 44.2526 14.3131 44.8853C14.0047 44.8853 13.7191 44.8853 13.4106 44.8853C13.4106 43.4454 13.4106 42.0055 13.4106 40.5547C13.422 40.5547 13.4449 40.5438 13.4563 40.5438C14.1989 40.5547 14.93 40.5438 15.6726 40.5765C15.9582 40.5875 16.2438 40.6747 16.518 40.7729C17.3634 41.1001 17.3177 42.1146 16.7922 42.5182C16.5865 42.6818 16.3466 42.7909 16.1182 42.9327C16.5294 43.5654 16.9407 44.209 17.3748 44.8853C17.0664 44.8853 16.7808 44.8853 16.5066 44.8853C16.4609 44.8853 16.4038 44.8198 16.3809 44.7762C16.0268 44.2308 15.6726 43.6745 15.3185 43.1291C15.2499 43.0309 15.1814 42.9873 15.0557 42.9873C14.8158 42.9982 14.5645 42.9873 14.3131 42.9873ZM14.3131 42.7691C14.5645 42.8236 15.1814 42.8018 15.3984 42.7146C15.5584 42.6491 15.7297 42.5727 15.8668 42.4528C16.4495 41.9728 16.3124 41.1438 15.6041 40.8602C15.1814 40.6856 14.7472 40.7729 14.3131 40.7511C14.3131 41.4383 14.3131 42.0928 14.3131 42.7691Z" fill="black"/>
<path d="M22.5157 40.9474C22.3444 41.0783 22.1958 41.1874 22.0359 41.3074C21.9559 41.231 21.876 41.1656 21.796 41.0892C21.339 40.7075 20.6422 40.6529 20.1738 40.9693C19.8082 41.2201 19.7625 41.6456 20.0938 41.9401C20.368 42.191 20.7221 42.2673 21.0877 42.3546C21.419 42.4309 21.7617 42.5073 22.0816 42.6164C22.5043 42.7691 22.8128 43.02 22.847 43.489C22.8813 44.0781 22.5728 44.558 22.0131 44.798C21.6246 44.9726 21.2019 45.0053 20.7792 44.9944C20.208 44.9726 19.6597 44.8853 19.1799 44.558C19.1342 44.5253 19.0885 44.4926 19.0199 44.449C19.2027 44.3181 19.3741 44.1981 19.5454 44.0672C19.7511 44.3181 19.9795 44.5035 20.288 44.6017C20.6993 44.7326 21.0991 44.7653 21.5104 44.5908C22.0816 44.3399 22.1501 43.7181 21.6589 43.3472C21.419 43.1727 21.1334 43.0963 20.8478 43.02C20.4822 42.9218 20.0938 42.8455 19.7511 42.7037C19.3169 42.5182 19.1227 42.1582 19.157 41.7001C19.1913 41.242 19.4426 40.9038 19.8653 40.7184C20.7678 40.3148 21.6589 40.3802 22.5157 40.9474Z" fill="black"/>
<path d="M24.1037 44.8961C24.2179 44.667 24.3093 44.4707 24.4007 44.2743C24.9833 43.0745 25.566 41.8745 26.1486 40.6746C26.1943 40.5765 26.2514 40.5328 26.3657 40.5438C26.5485 40.5547 26.7427 40.5547 26.9255 40.5438C27.0169 40.5438 27.0626 40.5656 27.1083 40.6528C27.7252 42.0382 28.3421 43.4235 28.959 44.8089C28.9704 44.8307 28.9704 44.8634 28.9933 44.907C28.7305 44.907 28.4792 44.9179 28.2393 44.907C28.1936 44.907 28.125 44.8416 28.1022 44.7979C27.9194 44.3725 27.7366 43.958 27.5538 43.5326C27.5081 43.4344 27.451 43.3908 27.3367 43.3908C26.6856 43.4017 26.0458 43.3908 25.3946 43.3908C25.2918 43.3908 25.2347 43.4126 25.189 43.5108C24.9948 43.9253 24.7777 44.3398 24.5835 44.7543C24.5264 44.8852 24.4464 44.9397 24.2979 44.9179C24.2522 44.8852 24.1951 44.8961 24.1037 44.8961ZM26.4342 40.9474C26.0687 41.7 25.7259 42.3981 25.3718 43.1181C26.0458 43.1181 26.697 43.1181 27.371 43.1181C27.074 42.3981 26.7655 41.6891 26.4342 40.9474Z" fill="black"/>
<path d="M33.8828 43.9364C34.0885 43.9364 34.2827 43.9364 34.4769 43.9364C34.4655 44.3181 34.2598 44.5799 33.9285 44.7327C33.7 44.8417 33.4373 44.9072 33.1745 44.9508C32.6947 45.0272 32.2149 45.0163 31.7351 44.9072C31.0154 44.7436 30.547 44.3072 30.3527 43.6309C30.1928 43.0419 30.1928 42.4419 30.3413 41.842C30.5241 41.1548 30.9811 40.7184 31.7122 40.5548C32.3634 40.413 33.0146 40.4021 33.6543 40.6094C34.1913 40.7839 34.4769 41.1548 34.4769 41.6456C34.2256 41.6456 33.9742 41.6456 33.7229 41.6456C33.7 41.5475 33.6886 41.4602 33.6658 41.362C33.5058 40.7839 32.9346 40.4894 32.2834 40.6203C31.8607 40.7075 31.598 40.9584 31.438 41.3184C31.221 41.7984 31.1753 42.3001 31.1981 42.8128C31.2096 43.1728 31.2553 43.5328 31.3581 43.8709C31.6094 44.7218 32.3863 44.9181 33.0946 44.7763C33.5401 44.689 33.8029 44.3945 33.8828 43.9364Z" fill="black"/>
<path d="M39.5035 40.5547C39.5035 40.642 39.5035 40.7183 39.5035 40.8165C39.4464 40.8165 39.3893 40.8165 39.3436 40.8165C38.7381 40.8165 38.1326 40.8165 37.5271 40.8165C37.4586 40.8165 37.3786 40.7947 37.3786 40.9147C37.3786 41.4601 37.3786 41.9946 37.3786 42.5618C37.9498 42.5618 38.5096 42.5618 39.0808 42.5618C39.0808 42.6491 39.0808 42.7254 39.0808 42.8127C38.521 42.8127 37.9613 42.8127 37.3901 42.8127C37.3901 43.4235 37.3901 44.0126 37.3901 44.6234C38.0869 44.6234 38.7952 44.6234 39.5035 44.6234C39.5035 44.678 39.5035 44.7216 39.515 44.7543C39.5264 44.8634 39.4807 44.8961 39.3664 44.8961C38.8524 44.8852 38.3383 44.8961 37.8242 44.8961C37.4357 44.8961 37.0587 44.8961 36.6703 44.8961C36.6132 44.8961 36.5561 44.8961 36.499 44.8852C36.499 43.4344 36.499 42.0055 36.499 40.5547C37.4814 40.5547 38.4868 40.5547 39.5035 40.5547Z" fill="black"/>
<path d="M11.4799 44.6125C11.4799 44.678 11.4799 44.7216 11.4799 44.7652C11.4913 44.8525 11.4571 44.8852 11.3543 44.8852C10.4289 44.8852 9.50353 44.8852 8.57817 44.8852C8.48678 44.8852 8.45251 44.8634 8.45251 44.7762C8.45251 43.3908 8.45251 42.0055 8.45251 40.6201C8.45251 40.5983 8.46393 40.5874 8.46393 40.5547C9.45784 40.5547 10.4632 40.5547 11.4685 40.5547C11.4685 40.631 11.4685 40.7074 11.4685 40.8165C10.7716 40.8165 10.0747 40.8165 9.36644 40.8165C9.36644 41.4055 9.36644 41.9728 9.36644 42.5618C9.92623 42.5618 10.486 42.5618 11.0572 42.5618C11.0572 42.6491 11.0572 42.7254 11.0572 42.8127C10.4974 42.8127 9.93766 42.8127 9.36644 42.8127C9.36644 43.4235 9.36644 44.0126 9.36644 44.6234C10.0633 44.6125 10.7602 44.6125 11.4799 44.6125Z" fill="black"/>
<path d="M6.60178 40.5439C6.419 41.002 6.24763 41.4383 6.08769 41.8638C5.71069 42.8237 5.3337 43.7836 4.96812 44.7435C4.92242 44.8635 4.85388 44.9071 4.72821 44.8962C4.54542 44.8853 4.35121 44.8962 4.16842 44.8853C4.12273 44.8853 4.05418 44.8417 4.03133 44.7981C3.4944 43.3909 2.96888 41.9837 2.44337 40.5766C2.44337 40.5766 2.44337 40.5657 2.45479 40.5439C2.72897 40.5439 3.01458 40.5439 3.30018 40.5439C3.33446 40.5439 3.38015 40.6093 3.39158 40.6639C3.74573 41.6892 4.08845 42.7037 4.44261 43.729C4.52258 43.9581 4.60254 44.1872 4.71679 44.4163C4.79676 44.2199 4.8653 44.0127 4.94527 43.8163C5.33369 42.78 5.72212 41.7438 6.09912 40.7075C6.14481 40.5766 6.20194 40.522 6.35045 40.5439C6.419 40.5548 6.49897 40.5439 6.60178 40.5439Z" fill="black"/>
<path d="M29.6787 5.39767C30.0557 4.81953 30.4441 4.21958 30.844 3.60873C31.3124 3.91416 31.7808 4.19777 32.2149 4.51411C32.649 4.81953 33.0603 5.15769 33.4944 5.47403C33.6086 5.56129 33.6086 5.61583 33.5172 5.72491C33.2659 5.9758 33.026 6.2376 32.7861 6.5103C32.6947 6.60848 32.6262 6.60848 32.5233 6.53212C32.2035 6.27032 31.8722 6.01943 31.5523 5.75764C31.4609 5.68128 31.3923 5.69219 31.3238 5.79036C31.221 5.94308 31.1067 6.07398 30.9811 6.2376C31.5637 6.72847 32.1463 7.20843 32.7632 7.7102C33.2545 7.20843 33.7572 6.70665 34.2712 6.18306C34.5911 6.5103 34.8881 6.78301 35.1395 7.07753C35.6193 7.62294 36.0763 8.19016 36.5447 8.75739C36.6246 8.85556 36.6132 8.92101 36.5104 8.98646C36.2591 9.13917 36.0077 9.3028 35.7564 9.46642C35.6993 9.51005 35.6422 9.54278 35.5736 9.58641C35.8821 9.76094 36.1677 9.93547 36.4647 10.0991C36.499 10.1209 36.5675 10.0991 36.6018 10.0773C36.796 9.9682 36.9902 9.85911 37.1958 9.73912C37.3444 9.9791 37.5157 10.2191 37.6414 10.47C37.8584 10.8736 38.0527 11.2772 38.2811 11.6808C38.4525 11.9971 38.6353 12.3025 38.8181 12.608C38.9666 12.848 38.9666 13.1098 39.0123 13.3715C39.0237 13.437 39.0351 13.5024 39.0694 13.5679C39.4121 14.1024 39.6863 14.6696 39.8348 15.2805C39.9148 15.6077 39.9491 15.935 40.0176 16.2622C40.0633 16.4804 40.1204 16.6876 40.1661 16.9058C40.1776 16.9603 40.1776 17.0476 40.1433 17.0694C40.0976 17.1021 40.0176 17.0803 39.9605 17.0694C39.9148 17.0585 39.8691 17.0258 39.8006 16.9822C39.8234 17.2221 39.8463 17.4403 39.8691 17.7021C39.4121 17.7239 38.978 17.7457 38.5439 17.7566C38.5096 17.7566 38.4639 17.6912 38.4525 17.6585C38.4182 17.4621 38.4068 17.2549 38.384 17.0367C38.0984 17.0912 37.8356 17.0912 37.5728 16.9385C37.6071 17.2003 37.6414 17.4294 37.6642 17.6585C37.6985 18.0948 37.7328 18.5311 37.7556 18.9674C37.7671 19.1093 37.8013 19.1529 37.9613 19.1529C38.5553 19.1529 39.1608 19.1638 39.7549 19.1638C39.9605 19.1638 39.9719 19.1747 39.9719 19.382C39.9377 20.5055 39.7891 21.6072 39.5607 22.709C39.5607 22.7308 39.5492 22.7526 39.5378 22.7853C39.1951 22.7199 38.8638 22.6653 38.5211 22.5999C38.4411 22.589 38.3611 22.5671 38.2811 22.5562C38.1212 22.5453 38.1212 22.469 38.1441 22.3381C38.2354 21.8799 38.304 21.4218 38.384 20.9527C38.384 20.92 38.384 20.8982 38.384 20.8327C38.1669 20.8109 37.9613 20.7891 37.7556 20.7782C37.7214 20.7782 37.6642 20.8437 37.6642 20.8873C37.5157 21.5745 37.3901 22.2617 37.2415 22.9489C37.1844 23.2435 37.173 23.2435 37.4814 23.3198C38.0412 23.4616 38.601 23.6143 39.1722 23.7561C39.2751 23.778 39.2865 23.8325 39.2522 23.9198C38.8981 24.9669 38.5211 26.0032 38.007 26.985C37.9384 27.1159 37.8813 27.1268 37.7442 27.0613C37.4472 26.9086 37.1273 26.7668 36.8303 26.6141C36.7846 26.5923 36.7274 26.5595 36.6703 26.5268C36.8874 26.0359 37.1045 25.556 37.3329 25.0433C37.1159 24.9669 36.9102 24.8906 36.716 24.8251C36.6818 24.8142 36.6018 24.847 36.5789 24.8906C36.2362 25.556 35.9049 26.2323 35.5736 26.9086C35.5622 26.9195 35.5622 26.9413 35.5508 26.9741C36.1677 27.3122 36.796 27.6395 37.4472 27.9885C37.2073 28.3703 36.9902 28.7412 36.7389 29.0902C36.2933 29.6793 35.8135 30.2465 35.3451 30.8246C35.2652 30.9228 35.2195 30.9228 35.1166 30.8355C34.8196 30.5738 34.5112 30.3229 34.1913 30.0502C34.5569 29.592 34.911 29.1339 35.288 28.6648C35.0824 28.523 34.8996 28.403 34.7054 28.2721C34.157 28.9048 33.6086 29.5375 33.0489 30.1702C33.5629 30.6501 34.077 31.1301 34.614 31.6209C34.4883 31.7409 34.4083 31.8391 34.3169 31.9264C33.5629 32.6681 32.6947 33.2899 31.8265 33.9117C31.7465 33.9662 31.6894 33.9662 31.6322 33.8789C31.4266 33.5735 31.2096 33.279 30.9925 32.9845C30.9239 32.8863 30.9354 32.8208 31.0382 32.7445C31.4266 32.4609 31.815 32.1554 32.2035 31.8718C32.3063 31.7955 32.3063 31.7409 32.2263 31.6537C32.1006 31.5228 31.975 31.381 31.8379 31.2392C31.1753 31.7191 30.5127 32.1882 29.8501 32.6681C30.2271 33.2572 30.6041 33.8462 30.9925 34.4462C29.9872 35.0025 28.9818 35.537 27.8851 35.9515C27.7709 35.6897 27.668 35.4388 27.5652 35.1879C27.5195 35.0679 27.4738 34.937 27.4281 34.8279C27.371 34.708 27.3939 34.6425 27.531 34.588C27.9308 34.4243 28.3192 34.2389 28.7191 34.0644C28.8562 34.0098 28.879 33.9335 28.799 33.8135C28.7076 33.6608 28.6163 33.5081 28.5249 33.3662C27.8166 33.6499 27.1311 33.9335 26.4228 34.228C26.6513 34.8825 26.8798 35.5479 27.1197 36.2133C26.0801 36.5187 25.0405 36.8023 23.9552 36.955C23.8752 36.5187 23.8067 36.0824 23.7153 35.6242C23.8524 35.5915 23.9894 35.5697 24.138 35.537C24.435 35.4715 24.732 35.417 25.0405 35.3515C25.189 35.3188 25.2347 35.2534 25.189 35.1116C25.1319 34.9479 25.109 34.7843 25.0633 34.6098C24.9605 34.6207 24.8805 34.6316 24.7891 34.6425C24.1951 34.7516 23.601 34.8607 23.007 34.9588C22.8927 34.9807 22.8356 35.0025 22.847 35.1334C22.9156 35.7442 22.9727 36.3442 23.0412 36.955C23.0527 37.0532 23.0412 37.1078 22.9156 37.1187C21.9674 37.1732 21.0191 37.2277 20.0595 37.1732C19.9681 37.1623 19.8767 37.1623 19.7511 37.1514C19.7853 36.7042 19.8082 36.2678 19.8425 35.8097C20.0138 35.8097 20.1852 35.8097 20.3565 35.8097C20.6536 35.8097 20.962 35.8097 21.2591 35.8097C21.3619 35.8097 21.3961 35.766 21.3961 35.6788C21.3961 35.5152 21.3961 35.3406 21.3847 35.177C21.3847 35.1443 21.3276 35.0788 21.2819 35.0788C20.6421 35.0461 19.991 35.0352 19.3512 35.0025C19.237 35.0025 19.237 35.0679 19.237 35.1334C19.1798 35.6133 19.1342 36.1042 19.077 36.5842C19.0656 36.7151 19.0428 36.846 19.0199 36.9878C19.0085 37.0641 18.9742 37.1078 18.8942 37.0968C17.8318 36.966 16.7808 36.7914 15.7297 36.4969C15.8554 36.0715 15.9925 35.6461 16.1296 35.2097C16.2667 35.2425 16.4038 35.2643 16.5409 35.297C16.8836 35.3734 17.2377 35.4388 17.5805 35.5152C17.7061 35.537 17.7632 35.5042 17.7861 35.3843C17.8089 35.2315 17.8432 35.0788 17.8546 34.9261C17.8546 34.8825 17.8089 34.817 17.7747 34.8061C17.0778 34.6316 16.3809 34.468 15.6612 34.2934C15.4441 34.937 15.2156 35.6024 14.9872 36.2678C13.8562 35.9515 12.828 35.4824 11.7998 34.9588C12.0283 34.5552 12.2568 34.1625 12.4853 33.748C12.7023 33.8571 12.9194 33.9662 13.1364 34.0644C13.3763 34.1735 13.6163 34.2825 13.8562 34.3916C13.9476 34.4352 13.9933 34.4134 14.0389 34.3262C14.1075 34.1516 14.1989 33.9771 14.2789 33.7808C13.6277 33.4535 12.9765 33.1372 12.3025 32.8099C11.9255 33.3881 11.5485 33.9771 11.1486 34.588C10.8287 34.3807 10.4974 34.2062 10.2004 33.988C9.61778 33.5735 9.04657 33.1372 8.46393 32.7118C8.37254 32.6463 8.36111 32.5918 8.44108 32.5045C8.70384 32.2318 8.95517 31.9591 9.2065 31.6755C9.28647 31.5773 9.35502 31.61 9.44641 31.6755C9.76629 31.9373 10.0976 32.1882 10.4175 32.4391C10.5089 32.5154 10.566 32.5154 10.646 32.4172C10.7488 32.2645 10.8744 32.1227 10.9887 31.97C10.3946 31.4791 9.82341 30.9992 9.21793 30.4974C8.70384 30.9774 8.18975 31.4682 7.65281 31.97C7.32151 31.6318 6.99021 31.3155 6.68175 30.9664C6.24763 30.4756 5.84778 29.952 5.41366 29.4502C5.32227 29.3411 5.34512 29.2757 5.45936 29.1993C5.80209 28.9921 6.13339 28.763 6.48754 28.5339C6.62463 28.7194 6.76172 28.8939 6.91024 29.0575C7.09302 29.2757 7.27581 29.4938 7.4586 29.712C7.53857 29.7993 7.60712 29.7993 7.68708 29.712C7.82418 29.5811 7.97269 29.472 8.1212 29.3411C7.92699 29.1011 7.73278 28.8721 7.54999 28.6321C7.27581 28.2503 7.00163 27.8685 6.73887 27.4867C6.67033 27.3886 6.62463 27.3777 6.52181 27.4431C5.96203 27.7594 5.40224 28.0758 4.84245 28.3921C4.8196 28.403 4.78533 28.4248 4.75106 28.4357C4.08846 27.4431 3.56294 26.3959 3.16309 25.2506C3.59721 25.0978 4.03133 24.956 4.47688 24.8033C4.55685 24.9997 4.62539 25.1742 4.70536 25.3487C4.83103 25.6323 4.97954 25.916 5.10521 26.1996C5.15091 26.2977 5.21945 26.3305 5.31085 26.2868C5.49363 26.2105 5.67642 26.1232 5.84778 26.0359C5.52791 25.2615 5.23088 24.5088 4.911 23.7343C4.23697 23.9307 3.54009 24.127 2.84321 24.3234C2.40909 23.0907 2.20346 21.8145 2.07779 20.4946C2.52334 20.4728 2.95746 20.4401 3.39158 20.4182C3.48297 20.4182 3.4944 20.4728 3.50582 20.5491C3.56294 20.9746 3.60864 21.4 3.66576 21.8254C3.67718 21.9017 3.68861 21.9672 3.71146 22.0436C3.76858 22.2726 3.76858 22.2726 4.00849 22.229C4.16842 22.1963 4.32836 22.1635 4.51115 22.1199C4.46545 21.8254 4.41976 21.5418 4.39691 21.2691C4.33979 20.7564 4.29409 20.2546 4.23697 19.7419C4.21412 19.5565 4.2027 19.371 4.2027 19.1965C4.2027 19.0874 4.157 19.0547 4.04276 19.0547C3.47155 19.0547 2.90034 19.0547 2.32912 19.0547C2.272 19.0547 2.22631 19.0547 2.16919 19.0547C2.04352 19.0547 1.9864 19.0002 1.99782 18.8693C2.06637 18.1821 2.12349 17.4839 2.18061 16.7858C2.18061 16.7531 2.18061 16.7313 2.19203 16.6985C2.13491 16.6767 2.05494 16.6658 2.00925 16.6222C1.83788 16.4913 1.82646 16.3822 1.95213 16.2077C1.9864 16.1531 2.02067 16.0986 2.06637 16.0441C2.18061 15.9132 2.22631 15.8041 2.13491 15.6295C2.06637 15.5096 2.06637 15.3568 2.14634 15.215C2.20346 15.1169 2.18061 14.986 2.22631 14.8878C2.37482 14.4515 2.54619 14.026 2.83179 13.6552C3.10597 13.2952 3.23164 12.8589 3.41443 12.4553C3.59721 12.0298 3.81427 11.6153 4.00849 11.1899C4.05418 11.0808 4.1113 11.0808 4.21412 11.1354C4.45403 11.2554 4.70536 11.3754 4.94527 11.4953C5.02524 11.539 5.08236 11.5281 5.16233 11.4844C5.36797 11.3644 5.58503 11.2663 5.79066 11.1572C5.85921 11.1245 5.90491 11.059 5.97345 10.9936C5.49363 10.7318 5.03667 10.4918 4.54542 10.23C4.76248 9.88093 4.94527 9.54278 5.18518 9.22644C5.65357 8.60467 6.15624 8.00472 6.64748 7.38296C6.71603 7.29569 6.77315 7.28478 6.86454 7.36114C7.11587 7.5793 7.36721 7.78656 7.62996 8.00472C7.68708 8.04836 7.73278 8.1029 7.80133 8.15744C7.43575 8.61558 7.0816 9.07372 6.71603 9.52096C6.79599 9.63004 6.86454 9.65186 6.95593 9.56459C7.37863 9.20462 7.8356 8.92101 8.33826 8.67012C8.41823 8.6374 8.47536 8.56104 8.53248 8.49559C8.66957 8.34288 8.81808 8.19016 8.9666 8.01563C8.44108 7.52476 7.91557 7.0448 7.36721 6.54303C7.77848 6.17215 8.14405 5.82309 8.5439 5.49584C9.06942 5.08133 9.61778 4.68864 10.1433 4.28503C10.2347 4.21958 10.2918 4.21958 10.3489 4.31776C10.5546 4.61228 10.7602 4.9068 10.9773 5.19041C11.0572 5.3104 11.0458 5.37585 10.9201 5.46312C10.5431 5.73582 10.1661 6.03034 9.78914 6.30305C9.68632 6.3794 9.66347 6.44485 9.76629 6.54303C9.89196 6.67392 10.0176 6.80482 10.1433 6.94663C10.8059 6.46667 11.4571 5.99762 12.1311 5.51766C11.7541 4.92862 11.3771 4.33957 11.0001 3.76144C11.24 3.53237 13.582 2.39792 14.0961 2.2452C14.2217 2.55063 14.3588 2.85606 14.4845 3.16149C14.633 3.52146 14.6216 3.52146 14.256 3.67418C13.9133 3.82689 13.5706 3.99051 13.2278 4.13232C13.125 4.17595 13.1136 4.23049 13.1707 4.31776C13.2507 4.45956 13.3421 4.60137 13.422 4.74318C13.4792 4.84135 13.5363 4.7759 13.5934 4.75408C14.1646 4.52501 14.7358 4.28503 15.3185 4.04505C15.3984 4.01233 15.4784 3.9796 15.5698 3.94688C15.3413 3.28148 15.1128 2.61608 14.8729 1.95068C15.9239 1.64525 16.9521 1.36164 18.0489 1.20893C18.1288 1.64525 18.1974 2.08158 18.2888 2.53972C18.1745 2.56154 18.0374 2.59427 17.9118 2.61608C17.5919 2.68153 17.2606 2.74698 16.9407 2.82334C16.8265 2.84515 16.7808 2.9106 16.8265 3.03059C16.8836 3.20512 16.9179 3.37965 16.9521 3.55418C17.0435 3.54328 17.1235 3.53237 17.2149 3.52146C17.8089 3.41238 18.403 3.3033 18.9971 3.20512C19.1227 3.18331 19.1798 3.15058 19.1684 3.00878C19.0999 2.41973 19.0428 1.81978 18.9742 1.23074C18.9514 1.07803 19.0085 1.0453 19.1456 1.0344C20.1281 0.979854 21.0991 0.936222 22.0816 0.990763C22.2073 1.00167 22.253 1.0344 22.2415 1.16529C22.2073 1.55799 22.1844 1.96159 22.1616 2.36519C21.6475 2.36519 21.1334 2.36519 20.6079 2.36519C20.6079 2.59427 20.5965 2.81243 20.6193 3.01968C20.6193 3.05241 20.7221 3.08513 20.7678 3.09604C21.2248 3.11786 21.6703 3.12877 22.1273 3.13967C22.1501 3.13967 22.173 3.13967 22.1844 3.13967C22.2758 3.15058 22.3215 3.11786 22.3329 3.03059C22.3444 2.94333 22.3558 2.86697 22.3672 2.7797C22.4015 2.57245 22.55 2.507 22.7328 2.6379C22.7556 2.64881 22.7671 2.67062 22.8127 2.69244C22.8584 2.31065 22.8927 1.95068 22.927 1.5798C22.9384 1.438 22.9613 1.3071 22.9841 1.16529C22.9955 1.12166 23.0641 1.06712 23.0984 1.06712C24.1722 1.19802 25.2347 1.36164 26.2743 1.67798C26.1486 2.09249 26.023 2.51791 25.8859 2.95423C25.7602 2.93242 25.646 2.9106 25.5203 2.87788C25.1433 2.80152 24.7777 2.72516 24.4121 2.64881C24.3093 2.62699 24.2636 2.65971 24.2522 2.74698C24.2179 2.93242 24.1837 3.12877 24.1494 3.32511C24.892 3.51055 25.6117 3.69599 26.3657 3.88143C26.5942 3.22694 26.8112 2.57245 27.0397 1.89614C28.1707 2.21248 29.1989 2.68153 30.2271 3.20512C29.9986 3.60873 29.7701 4.01233 29.5416 4.40502C29.1532 4.21958 28.7762 4.02324 28.3878 3.85961C27.9651 3.67418 28.0679 3.68508 27.8965 4.03415C27.8394 4.14323 27.7937 4.25231 27.7366 4.3723C28.3535 4.74318 29.0047 5.05951 29.6787 5.39767ZM16.0839 17.9857C16.1753 17.9639 16.2324 17.9639 16.2895 17.9421C16.5751 17.8548 16.8722 17.8657 17.1692 17.8984C17.9346 18.0075 18.7 18.1384 19.4426 17.8112C19.4769 17.8003 19.534 17.8112 19.5568 17.833C19.5797 17.8548 19.5797 17.9094 19.5683 17.9421C19.5226 18.0948 19.3626 18.1384 19.237 18.1821C18.8942 18.2911 18.5515 18.3239 18.1859 18.2911C17.6833 18.2475 17.1806 18.193 16.6779 18.1821C15.9925 18.1602 15.5013 18.4875 15.1357 19.0111C15.0671 19.1202 15.01 19.2402 14.9415 19.3492C14.9529 19.3601 14.9643 19.382 14.9757 19.3929C15.1014 19.3383 15.2385 19.3056 15.3527 19.2402C15.6269 19.0765 15.8782 18.8802 16.1524 18.7166C16.6437 18.4329 17.1692 18.3457 17.729 18.5202C17.7861 18.542 17.8546 18.5857 17.8889 18.6293C17.9232 18.6838 17.9232 18.7602 17.9346 18.8256C17.8775 18.8256 17.8089 18.8365 17.7518 18.8256C17.3291 18.662 16.9179 18.662 16.518 18.8693C16.2096 19.0329 15.9125 19.2183 15.6155 19.4038C15.5469 19.4365 15.4898 19.4801 15.4327 19.5238C15.4441 19.5347 15.4441 19.5456 15.4556 19.5565C15.5127 19.5347 15.5584 19.5238 15.6155 19.5019C15.8554 19.4038 16.0953 19.2947 16.3466 19.1965C17.3291 18.8256 18.2431 18.9565 19.0656 19.6001C19.157 19.6765 19.2827 19.7965 19.2827 19.8946C19.2827 20.0474 19.0999 20.1019 18.9514 20.1564C18.6429 20.2655 18.323 20.3637 18.0032 20.451C17.6262 20.56 17.2606 20.6473 16.8607 20.5928C16.3809 20.5273 15.9582 20.3746 15.6041 20.0474C15.5127 19.971 15.4556 19.8728 15.3642 19.7637C15.307 19.7637 15.2042 19.7965 15.1814 19.6547C15.1814 19.6438 15.1243 19.6328 15.1014 19.6328C15.01 19.6219 14.9186 19.6219 14.8386 19.6001C14.6673 19.5674 14.5987 19.4583 14.6559 19.3056C14.7016 19.1747 14.7815 19.0438 14.8615 18.9238C14.9415 18.7929 15.0329 18.662 15.1243 18.5093C14.9415 18.4984 14.8386 18.5638 14.7358 18.662C14.5188 18.8802 14.2789 19.0874 13.9704 19.1856C13.9247 19.1965 13.879 19.2729 13.879 19.3165C13.8676 19.5129 13.8447 19.7201 13.8676 19.9165C13.9247 20.5055 13.9818 21.0945 14.0846 21.6727C14.3017 22.8835 14.7587 24.0288 15.3527 25.1088C15.5812 25.5233 15.764 25.9487 16.1524 26.265C16.4609 26.5159 16.7351 26.7995 17.0435 27.0286C17.6262 27.4649 18.2202 27.8903 18.7229 28.4248C18.86 28.5776 19.0085 28.7194 19.1798 28.8284C19.3055 28.9157 19.4769 29.003 19.6254 29.0139C20.1281 29.0357 20.6307 29.0575 21.1334 29.0139C21.8531 28.9593 22.4929 28.7303 23.007 28.2067C23.4068 27.814 23.8524 27.4758 24.2865 27.1049C24.652 26.7886 25.029 26.4941 25.3603 26.1559C25.943 25.5887 26.3543 24.8906 26.7541 24.2034C26.914 23.9416 27.0511 23.6471 27.1311 23.3525C27.3824 22.4581 27.6452 21.5636 27.7137 20.6255C27.7709 19.8837 27.828 19.142 27.7709 18.3893C27.7594 18.1711 27.7366 17.9421 27.7137 17.7239C27.7023 17.7348 27.6909 17.7348 27.6795 17.7457C27.6109 17.6803 27.5195 17.6257 27.4853 17.5494C27.371 17.353 27.3025 17.1349 27.1768 16.9385C26.7198 16.2622 26.1029 15.7713 25.3261 15.455C24.5035 15.1278 23.6353 14.986 22.7671 14.8769C22.1273 14.8005 21.4761 14.7787 20.8249 14.7242C20.4251 14.6914 20.0252 14.6805 19.6939 14.4078C19.6711 14.386 19.5797 14.3969 19.5568 14.4296C19.2484 14.7569 18.8828 15.0187 18.4944 15.2478C18.3687 15.3241 18.2773 15.3896 18.2888 15.5423C18.2888 15.5859 18.2659 15.6404 18.2431 15.6841C17.9917 16.0441 17.6947 16.3604 17.272 16.5349C16.7236 16.764 16.3809 17.1785 16.1524 17.6803C16.1067 17.8003 16.1067 17.8766 16.0839 17.9857ZM3.026 23.8434C3.0717 23.8434 3.09455 23.8434 3.1174 23.8325C3.74573 23.6798 4.36264 23.5271 4.99097 23.3634C5.17376 23.3198 5.1966 23.3198 5.25373 23.4943C5.34512 23.7998 5.42509 24.1161 5.55076 24.4106C5.79066 24.9779 6.06484 25.5342 6.3276 26.0905C6.3733 26.1887 6.36187 26.2323 6.25906 26.2868C5.90491 26.4505 5.55076 26.625 5.1966 26.7995C5.10521 26.8432 5.04809 26.8322 5.00239 26.745C4.911 26.5486 4.80818 26.3632 4.71679 26.1668C4.5797 25.8723 4.44261 25.5669 4.29409 25.2615C4.06561 25.3378 3.84855 25.4251 3.62006 25.5014C3.63149 25.5669 3.64291 25.6105 3.65433 25.6651C3.92852 26.4614 4.33979 27.1922 4.79676 27.9012C4.85388 27.9885 4.911 27.9885 4.99097 27.9449C5.23088 27.814 5.47079 27.6831 5.71069 27.5522C6.06485 27.3667 6.419 27.1704 6.7503 26.9959C7.36721 27.8249 7.97269 28.6321 8.57817 29.4611C8.24687 29.7338 7.89272 30.0393 7.51572 30.3556C7.15015 29.9084 6.79599 29.472 6.419 29.0248C6.22478 29.1557 6.01915 29.2866 5.83636 29.4066C5.84778 29.4393 5.85921 29.4611 5.85921 29.472C6.33903 30.1811 6.89881 30.8355 7.52714 31.4355C7.59569 31.5009 7.65281 31.5009 7.72136 31.4355C7.91557 31.2501 8.1212 31.0646 8.31542 30.8901C8.61245 30.6174 8.90948 30.3338 9.19508 30.0829C9.9605 30.7047 10.6917 31.3046 11.4457 31.9155C11.1829 32.2754 10.9087 32.6572 10.6231 33.039C10.1776 32.7227 9.74344 32.4063 9.2979 32.09C9.16081 32.2427 9.04657 32.3845 8.90948 32.5263C8.84093 32.6027 8.85235 32.6572 8.93232 32.7118C9.57208 33.159 10.2004 33.6171 10.8402 34.0644C10.9201 34.1189 10.9887 34.1189 11.0458 34.0316C11.3885 33.5081 11.7313 32.9954 12.0626 32.4718C12.1311 32.3627 12.1882 32.3409 12.3025 32.4172C12.4053 32.4827 12.5195 32.5372 12.6223 32.6027C12.6452 32.5481 12.6338 32.5263 12.6223 32.5154C12.4281 32.2209 12.2225 31.9373 12.154 31.5773C12.1425 31.5337 12.0968 31.5009 12.0626 31.4682C11.24 30.9119 10.4632 30.2901 9.75487 29.592C8.50963 28.3812 7.48145 27.0177 6.7503 25.4578C5.83636 23.5162 5.32227 21.4872 5.27657 19.3601C5.27657 19.0983 5.27657 18.8475 5.27657 18.5857C5.41366 18.5857 5.52791 18.5857 5.6193 18.5857C5.58503 23.778 7.75563 27.9012 12.0397 31.0755C12.0626 31.021 12.074 31.0101 12.074 30.9992C12.074 30.3338 12.2225 29.6793 12.3367 29.0248C12.3596 28.8503 12.3482 28.6648 12.3367 28.4903C12.3253 28.3267 12.2339 28.2067 12.074 28.1303C11.6741 27.9231 11.4 27.6176 11.2971 27.1922C11.2172 26.8322 11.2743 26.4832 11.4571 26.1559C11.4799 26.1123 11.4799 26.0141 11.4457 25.9705C11.2057 25.6651 11.0915 25.3051 11.023 24.9342C11.0001 24.836 10.9544 24.8033 10.8744 24.7706C10.7602 24.7161 10.6345 24.6615 10.5546 24.5743C10.3718 24.3779 10.2118 24.1706 10.0405 23.9634C10.029 23.9416 10.0176 23.9198 10.0062 23.8979C9.75487 23.4398 9.68632 22.9707 9.9605 22.4799C9.89196 22.4472 9.83484 22.4144 9.77772 22.3926C9.53781 22.2835 9.37787 22.1199 9.2522 21.9017C9.20651 21.8036 9.12654 21.7163 9.04657 21.6509C8.61245 21.3127 8.32684 20.8873 8.14405 20.3855C8.1212 20.331 8.09836 20.2655 8.08693 20.2219C7.92699 20.2437 7.7899 20.2655 7.65281 20.2764C7.21869 20.3092 6.87596 20.091 6.54466 19.8619C6.15624 19.6001 5.91633 19.2292 5.87063 18.782C5.84778 18.5638 5.75639 18.4329 5.5736 18.3348C5.20803 18.1602 5.00239 17.8657 4.93385 17.4839C4.911 17.3749 4.92242 17.2658 4.911 17.1567C4.76248 17.1894 4.67109 17.233 4.67109 17.3858C4.67109 17.4948 4.63682 17.6039 4.63682 17.713C4.63682 17.8003 4.59112 17.8439 4.51115 17.833C4.07703 17.8003 3.64291 17.7785 3.17452 17.7457C3.24306 17.2658 3.30018 16.8185 3.3573 16.3713C3.10597 16.4586 2.85464 16.5458 2.61473 16.644C2.58046 16.6549 2.54619 16.7204 2.54619 16.764C2.51191 16.9385 2.48906 17.1131 2.47764 17.2767C2.44337 17.713 2.42052 18.1602 2.38625 18.5966C2.37482 18.7057 2.42052 18.7384 2.53476 18.7493C2.88891 18.7493 3.23164 18.7711 3.58579 18.782C3.90567 18.7929 4.22555 18.8038 4.54542 18.8038C4.54542 18.8475 4.55685 18.8693 4.55685 18.902C4.54542 20.0801 4.67109 21.2363 4.93385 22.3817C4.9567 22.4908 4.89957 22.5017 4.83103 22.5126C4.43118 22.589 4.03133 22.6653 3.63149 22.7417C3.59721 22.7526 3.55152 22.7526 3.4944 22.7526C3.38015 22.1199 3.27734 21.4872 3.16309 20.8437C2.95746 20.8764 2.76325 20.8982 2.56903 20.92C2.45479 20.9309 2.43194 20.9855 2.45479 21.0836C2.56903 21.6945 2.66043 22.3053 2.77467 22.9162C2.84321 23.1889 2.94603 23.5162 3.026 23.8434ZM31.1639 23.2762C31.1639 23.298 31.1524 23.3089 31.1524 23.3089C31.1639 23.3525 31.1753 23.3853 31.1867 23.4289C31.2781 23.7561 31.2895 24.1161 31.1296 24.3997C31.0153 24.6179 30.9925 24.836 30.9468 25.0542C30.9354 25.0978 30.9239 25.1306 30.9125 25.1633C30.8554 25.3269 30.7869 25.905 30.8211 26.0905C30.9125 26.6577 30.7983 27.1704 30.4784 27.6504C30.3642 27.8249 30.2499 27.9994 30.1699 28.1849C30.0786 28.403 29.9757 28.643 29.9529 28.8721C29.9186 29.3302 29.9415 29.7993 29.9186 30.2683C29.9072 30.4974 29.8615 30.7374 29.8272 31.0101C32.0892 29.4284 33.8029 27.4867 34.9453 25.076C36.1905 22.4581 36.6018 19.7092 36.1562 16.8404C35.9049 16.9058 35.7564 16.7967 35.6079 16.644C35.5622 16.6004 35.5165 16.5458 35.4708 16.5022C35.368 16.4149 35.2766 16.404 35.1509 16.4804C35.0595 16.5458 35.0481 16.6113 35.0481 16.7095C35.0252 17.0694 34.991 17.4403 34.6597 17.6912C34.6254 17.713 34.614 17.7675 34.5911 17.8003C34.5454 17.9203 34.5226 18.0621 34.454 18.1711C34.2484 18.4875 33.9971 18.7493 33.5515 18.7493C33.5287 18.7493 33.4944 18.7711 33.4715 18.782C33.5058 18.8475 33.5287 18.902 33.5515 18.9565C33.78 19.5238 33.7115 20.0801 33.5058 20.6255C33.3116 21.1491 33.0945 21.6618 32.8661 22.1744C32.7061 22.5344 32.8889 22.8071 33.106 23.0689C33.1631 23.1344 33.2202 23.1889 33.1631 23.2544C33.1288 23.298 33.0374 23.3198 32.9803 23.3198C32.8089 23.3089 32.6376 23.2653 32.4662 23.2435C32.4319 23.2325 32.3862 23.2435 32.3405 23.2544C32.192 23.2762 32.0321 23.3089 31.8836 23.3089C31.6208 23.3198 31.3923 23.298 31.1639 23.2762ZM36.8531 16.284C36.7274 16.4477 36.6132 16.5895 36.5104 16.7313C36.4875 16.764 36.4875 16.8294 36.499 16.8731C36.5675 17.4839 36.6818 18.0839 36.6932 18.6947C36.7389 20.4291 36.4533 22.1199 35.8706 23.767C35.2766 25.4469 34.4083 26.985 33.2659 28.3812C32.272 29.5811 31.1067 30.5956 29.7929 31.4682C29.7358 31.5009 29.6673 31.5446 29.6444 31.5991C29.5416 31.8064 29.4616 32.0245 29.3588 32.2427C29.2903 32.3736 29.2217 32.4936 29.1303 32.6136C29.0161 32.7663 28.8904 32.8972 28.7533 33.0499C28.9247 33.3772 29.1303 33.7589 29.336 34.1407C29.2674 34.1735 29.2217 34.2062 29.1646 34.228C28.7648 34.4025 28.3649 34.588 27.9651 34.7625C27.8623 34.8061 27.828 34.8607 27.8737 34.9588C27.9422 35.1007 27.9993 35.2534 28.0679 35.3952C28.1136 35.4824 28.1707 35.5043 28.2621 35.4606C28.6848 35.2643 29.1189 35.0897 29.5302 34.8934C29.8501 34.7407 30.1471 34.5552 30.4898 34.3698C30.1014 33.748 29.7244 33.159 29.3474 32.559C30.2156 31.9918 31.0953 31.4682 31.8607 30.7592C32.192 31.1083 32.5005 31.4464 32.8318 31.7955C32.6604 31.9482 32.5005 32.1009 32.3291 32.2318C32.0549 32.45 31.7693 32.6463 31.4952 32.8536C31.438 32.8972 31.3809 32.9299 31.4495 33.0063C31.5751 33.159 31.7008 33.3226 31.8265 33.4862C32.6719 32.9626 33.4144 32.3518 34.1113 31.6318C33.5744 31.141 33.0603 30.661 32.5348 30.1811C32.569 30.1374 32.5805 30.1265 32.5919 30.1156C33.2773 29.4066 33.9399 28.6757 34.5112 27.8794C34.5797 27.7922 34.6368 27.814 34.7054 27.8576C34.9453 28.0103 35.1966 28.163 35.4365 28.3158C35.8021 28.5448 35.8021 28.5448 35.5393 28.8939C35.2651 29.2539 34.9795 29.6138 34.6939 29.9738C34.7168 30.0065 34.7396 30.0393 34.7625 30.0611C34.8881 30.1592 35.0138 30.2574 35.1395 30.3556C35.2195 30.421 35.2766 30.4101 35.3451 30.3338C35.9163 29.6684 36.4533 28.9921 36.876 28.2285C36.8988 28.1958 36.9102 28.163 36.9217 28.1194C36.8531 28.0758 36.796 28.0431 36.7389 28.0103C36.2248 27.7267 35.7107 27.4322 35.208 27.1486C35.0595 27.0613 35.0595 27.0395 35.1395 26.8868C35.3223 26.5704 35.5279 26.2541 35.6878 25.916C35.9278 25.436 36.1334 24.956 36.3505 24.4652C36.3961 24.3561 36.4418 24.3343 36.5561 24.3779C36.7046 24.4434 36.8645 24.487 37.0245 24.5415C37.2758 24.6288 37.5271 24.7051 37.7785 24.7924C37.7556 24.8579 37.7442 24.9124 37.7214 24.9669C37.5386 25.3705 37.3672 25.7851 37.173 26.1887C37.1273 26.2868 37.1387 26.3523 37.2301 26.3959C37.3672 26.4614 37.5157 26.5159 37.6528 26.5814C37.7442 26.6141 37.8013 26.5923 37.8356 26.505C38.0298 26.0687 38.2469 25.6433 38.4182 25.2069C38.5782 24.8251 38.6924 24.4324 38.8295 24.0398C38.1098 23.8325 37.4129 23.6252 36.716 23.418C36.7275 23.3743 36.7274 23.3525 36.7389 23.3198C37.0016 22.3926 37.1958 21.4654 37.2987 20.5164C37.3101 20.4073 37.3672 20.3964 37.4472 20.3964C37.7328 20.4182 38.0298 20.4401 38.3154 20.4619C38.4525 20.4728 38.5896 20.4837 38.761 20.5055C38.681 21.0836 38.601 21.629 38.5211 22.2072C38.7495 22.2508 38.9666 22.2944 39.1951 22.3381C39.2179 22.2508 39.2522 22.1854 39.2636 22.109C39.3207 21.8036 39.4007 21.4981 39.435 21.1818C39.4921 20.6691 39.515 20.1564 39.5492 19.6328C39.5607 19.5347 39.5035 19.491 39.4007 19.491C39.0923 19.491 38.7724 19.4692 38.4639 19.4692C38.1098 19.4692 37.7442 19.4692 37.3786 19.4692C37.3786 19.371 37.3786 19.3165 37.3786 19.262C37.3901 18.4548 37.3101 17.6585 37.2073 16.8513C37.1844 16.5676 36.9902 16.4477 36.8531 16.284ZM2.50049 15.3787C2.52334 15.3459 2.54619 15.3241 2.56903 15.2914C2.86606 14.9532 3.15167 14.5933 3.47155 14.266C3.92852 13.797 4.46545 13.4043 5.04809 13.077C5.69927 12.7062 6.3276 12.2807 7.10445 12.1826C7.15015 12.1826 7.18442 12.1498 7.23012 12.1498C7.52715 12.128 7.8356 12.0735 8.1212 12.0953C8.47535 12.128 8.81808 12.2371 9.17223 12.3244C9.35502 12.368 9.50353 12.3571 9.66347 12.2698C9.82341 12.1826 9.97193 12.0626 10.1433 12.0189C10.4403 11.9426 10.7031 11.7899 10.9773 11.6481C11.2286 11.5172 11.5028 11.4844 11.777 11.4735C11.8569 11.4735 11.9255 11.5063 11.9255 11.6044C11.9255 11.6917 11.914 11.7462 11.7884 11.768C11.1029 11.8553 10.5317 12.1935 10.0633 12.6625C9.61778 13.1098 9.33217 13.6661 9.14938 14.2551C9.13796 14.2987 9.17223 14.386 9.2065 14.4078C9.36644 14.4842 9.52638 14.5605 9.69775 14.6151C10.2918 14.7896 10.863 14.7569 11.3885 14.4187C11.7884 14.1569 12.1768 13.8951 12.5766 13.6224C12.9536 13.3606 13.3535 13.1316 13.8219 13.0334C14.5759 12.8698 15.2956 12.9461 15.9811 13.3061C16.3923 13.5243 16.8036 13.7315 17.2377 13.917C17.6833 14.1024 18.1517 14.1678 18.6201 14.0151C18.78 13.9606 18.9399 13.917 19.0885 13.8515C19.6368 13.6443 20.0138 13.2734 20.2423 12.7607C20.368 12.4771 20.4479 12.1826 20.5622 11.8989C20.5965 11.8117 20.5622 11.768 20.4936 11.7353C20.288 11.6153 20.0824 11.6262 19.8881 11.7244C19.7054 11.8226 19.5226 11.9535 19.3626 12.0953C19.0542 12.3789 18.7572 12.6843 18.4487 12.9679C18.0146 13.3606 17.4776 13.3715 16.9521 13.2079C16.4152 13.0443 15.9125 12.8043 15.3984 12.608C15.1814 12.5207 14.9529 12.4334 14.7244 12.3789C14.5645 12.3353 14.4731 12.2589 14.4274 12.1171C14.416 12.0735 14.3703 12.0189 14.3246 11.9971C14.1189 11.9099 13.9019 11.8444 13.7076 11.7462C13.2393 11.5281 12.7709 11.3972 12.2568 11.6262C12.2111 11.6481 12.1083 11.6153 12.074 11.5717C12.0397 11.5281 12.0397 11.4517 12.0511 11.3863C12.0626 11.3426 12.1083 11.2881 12.1425 11.2554C12.4053 11.0045 12.6452 10.7209 12.9308 10.5027C13.2507 10.2518 13.6163 10.0555 14.0389 10.0882C14.5987 10.1318 15.1128 9.91366 15.684 9.91366C15.6383 9.80457 15.5926 9.71731 15.5584 9.61913C15.3756 9.13918 15.0786 8.74648 14.6673 8.41924C14.336 8.16835 13.9818 8.07017 13.5591 8.1029C13.422 8.11381 13.3306 8.16835 13.2393 8.26652C13.1479 8.3756 13.045 8.47378 12.9308 8.59377C12.9422 8.62649 12.9765 8.68103 13.0108 8.73557C13.0565 8.84465 13.125 8.96464 13.1479 9.08463C13.1936 9.35734 13.1479 9.63004 13.045 9.89184C12.8394 10.3936 12.5081 10.7972 11.994 11.0372C11.1486 11.4299 10.2461 11.5499 9.30932 11.4735C8.5896 11.4081 7.85845 11.3644 7.1273 11.3317C6.69318 11.3099 6.25906 11.3208 5.85921 11.5281C5.53933 11.6917 5.23088 11.888 4.93385 12.0735C4.03133 12.6516 3.33446 13.3934 2.83179 14.3097C2.63758 14.6369 2.51191 14.986 2.50049 15.3787ZM12.8737 15.695C11.9483 16.0331 11.0687 16.0877 10.2347 15.6514C9.36644 15.9241 8.77238 15.6623 8.36111 14.866C8.31542 14.9751 8.26972 15.0405 8.24687 15.106C8.15548 15.4114 8.31542 15.6405 8.47536 15.8695C8.69242 16.175 8.89805 16.4913 9.08084 16.8185C9.22935 17.0912 9.30932 17.3967 9.30932 17.713C9.30932 18.422 9.11511 19.0656 8.65814 19.6328C8.52105 19.7965 8.46393 19.971 8.52105 20.1673C8.66957 20.6909 8.97802 21.1054 9.41214 21.4545C9.48069 21.5091 9.54923 21.5636 9.5835 21.6399C9.74344 21.9454 10.0062 22.109 10.3718 22.1526C10.8173 22.2072 11.1372 21.9563 11.0915 21.5745C11.0801 21.5745 11.0572 21.5636 11.0458 21.5636C10.486 21.6181 10.0405 21.3236 9.86911 20.8109C9.81199 20.6146 9.82341 20.451 9.97193 20.2982C10.1319 20.1455 10.3147 20.0692 10.5546 20.1455C10.783 20.2219 10.8973 20.3746 10.9658 20.5819C11.0115 20.7237 11.0572 20.8655 11.1258 21.0073C11.2629 21.3018 11.5028 21.4109 11.777 21.2909C11.8569 21.2582 11.9369 21.2145 11.9826 21.16C12.1197 20.9746 12.2682 20.7782 12.371 20.5709C12.4967 20.3092 12.5881 20.0364 12.7023 19.7747C12.7252 19.7092 12.7594 19.6438 12.7937 19.5674C12.7252 19.5565 12.6909 19.5456 12.6452 19.5347C12.3596 19.4583 12.1083 19.3383 11.9483 19.0874C11.8227 18.902 11.8569 18.7057 11.8683 18.5093C11.8798 18.0075 12.2453 17.5167 12.7366 17.3639C12.8623 17.3203 12.8851 17.2767 12.8508 17.1676C12.7366 16.7967 12.7023 16.4258 12.8051 16.0441C12.8166 15.9459 12.8394 15.8368 12.8737 15.695ZM12.2568 34.7734C12.3596 34.8389 12.4281 34.9043 12.531 34.9479C13.1821 35.2315 13.8447 35.4933 14.4959 35.777C14.6216 35.8315 14.6787 35.7988 14.7244 35.6788C14.93 35.1116 15.1471 34.5334 15.3642 33.9662C15.4099 33.8571 15.4556 33.8353 15.5698 33.868C16.4038 34.1298 17.2377 34.3698 18.106 34.4789C18.2088 34.4898 18.2316 34.5334 18.2202 34.6207C18.1745 34.9043 18.1174 35.1879 18.0717 35.4715C18.0489 35.6133 18.026 35.766 17.9917 35.9079C17.4319 35.7988 16.9064 35.6897 16.3581 35.5806C16.2895 35.8097 16.2324 36.0278 16.1639 36.2569C16.9978 36.4969 17.8204 36.6496 18.6772 36.7151C18.78 36.006 18.8714 35.3079 18.9628 34.6425C19.8996 34.6643 20.8021 34.697 21.7274 34.7189C21.7503 35.1661 21.7617 35.6242 21.7846 36.0824C21.6932 36.0933 21.6132 36.1042 21.5332 36.1042C21.2362 36.1042 20.9392 36.0933 20.6421 36.0933C20.4822 36.0933 20.3108 36.1042 20.1509 36.1151C20.1281 36.2896 20.1166 36.4642 20.0938 36.6496C20.0938 36.6605 20.0938 36.6714 20.0938 36.6823C20.0938 36.7914 20.1395 36.835 20.2651 36.846C20.9849 36.8787 21.7046 36.8787 22.4129 36.8023C22.6185 36.7805 22.63 36.7696 22.6071 36.5842C22.55 35.9951 22.4929 35.417 22.4358 34.8279C22.4243 34.6752 22.4586 34.6425 22.6185 34.6207C23.0869 34.5552 23.5553 34.5007 24.0237 34.4243C24.4121 34.3589 24.8006 34.2716 25.2004 34.1844C25.2233 34.2389 25.2461 34.2825 25.2575 34.3371C25.3603 34.6861 25.4632 35.0461 25.5774 35.3952C25.6117 35.5152 25.5774 35.5588 25.4517 35.5806C25.0405 35.657 24.6406 35.7551 24.2294 35.8424C24.1151 35.8642 24.0923 35.9188 24.1151 36.006C24.1494 36.1369 24.1837 36.2787 24.2065 36.4096C24.2294 36.5296 24.275 36.5733 24.4007 36.5405C25.0633 36.3769 25.7259 36.2351 26.3771 36.0715C26.617 36.0169 26.617 35.9951 26.537 35.7551C26.3657 35.2206 26.1829 34.697 26.0115 34.1625C25.943 33.9444 25.9201 33.9771 26.1486 33.8898C26.4 33.8026 26.6399 33.7153 26.8912 33.6171C26.9255 33.6062 26.9712 33.5844 27.0397 33.5517C26.9712 33.5408 26.9369 33.5299 26.9026 33.5299C26.5485 33.4971 26.1943 33.4753 25.8516 33.4208C25.6574 33.399 25.486 33.4208 25.3032 33.4644C23.8981 33.8571 22.47 34.0535 21.0077 34.0644C19.4312 34.0644 17.8775 33.8571 16.3581 33.4426C16.3009 33.4208 16.221 33.4208 16.1639 33.4426C15.7183 33.5953 15.2728 33.6608 14.8044 33.6171C14.6901 33.6062 14.633 33.639 14.5987 33.7371C14.5073 33.9989 14.3931 34.2607 14.2903 34.5116C14.2446 34.6207 14.1875 34.7298 14.1303 34.8498C13.6048 34.6098 13.1022 34.3807 12.5881 34.1516C12.4853 34.3807 12.371 34.5661 12.2568 34.7734ZM12.748 8.27743C12.7594 8.25561 12.7823 8.2338 12.7937 8.20107C12.9537 7.91746 13.2164 7.75384 13.5477 7.72111C14.0846 7.65566 14.553 7.79747 14.9757 8.13562C15.5355 8.58286 15.8668 9.15008 16.0153 9.82639C16.0382 9.93547 16.0839 9.99001 16.1867 10.0446C16.518 10.2191 16.8379 10.3936 17.1578 10.5791C17.272 10.6445 17.3634 10.7427 17.4776 10.7972C17.649 10.8736 17.8318 10.9063 18.0146 10.9717C18.106 11.0045 18.1859 11.0045 18.2545 10.9281C18.6086 10.4809 19.0999 10.3282 19.6597 10.3282C20.3565 10.3282 20.8021 10.6772 20.9049 11.3317C20.9506 11.6371 21.0077 11.888 21.2591 12.128C21.6932 12.5534 22.1387 12.9134 22.7556 13.0334C22.9384 13.0661 22.9727 13.0225 22.927 12.8589C22.9156 12.8261 22.8584 12.7934 22.8127 12.7825C22.4586 12.6843 22.093 12.5643 21.876 12.2589C21.7274 12.0517 21.6018 11.8117 21.4875 11.5826C21.2248 11.059 21.1791 10.4918 21.2019 9.92456C21.2134 9.68458 21.2591 9.4446 21.2819 9.20462C21.1334 9.19372 21.0077 9.19372 20.8706 9.18281C20.4936 9.1719 20.2651 8.94283 20.1166 8.65921C20.0367 8.51741 19.9453 8.41923 19.8196 8.34288C19.7282 8.27743 19.6825 8.31015 19.6025 8.36469C19.3969 8.51741 19.1798 8.69194 18.9399 8.7683C18.483 8.9101 18.0603 8.75739 17.7404 8.45196C17.5805 8.29924 17.4319 8.16835 17.2035 8.07017C16.7351 7.86292 16.4038 7.52476 16.3352 7.00117C16.3238 6.95754 16.3009 6.89209 16.2552 6.87027C15.8897 6.70665 15.5241 6.55394 15.1699 6.39031C14.7016 6.18306 14.2103 5.99762 13.9476 5.51766C13.9361 5.49584 13.8447 5.48493 13.8219 5.49584C13.6734 5.60492 13.5249 5.71401 13.4106 5.85581C13.1593 6.17215 13.0907 6.54303 13.205 6.92481C13.2621 7.09934 13.205 7.20843 13.0565 7.24115C12.7252 7.31751 12.4396 7.48113 12.1882 7.69929C12.1083 7.76474 12.0397 7.83019 11.9712 7.89564C12.2225 8.02654 12.4738 8.14653 12.748 8.27743ZM23.2811 1.42709C23.2012 2.01613 23.1441 2.56154 23.0527 3.09604C23.007 3.32511 23.1098 3.4451 23.2697 3.55418C23.3497 3.60873 23.4525 3.65236 23.5553 3.68508C23.8295 3.77235 24.1037 3.84871 24.3779 3.93597C24.6635 4.03415 24.9262 4.16504 25.0976 4.41593C25.1661 4.51411 25.2347 4.53592 25.3489 4.51411C25.4746 4.5032 25.6003 4.47047 25.7145 4.48138C26.4685 4.52501 27.074 4.85226 27.6109 5.33222C27.7823 5.48493 27.9537 5.61583 28.1479 5.73582C28.5249 5.96489 28.9247 6.17215 29.3131 6.3794C29.3703 6.41213 29.4388 6.43395 29.4959 6.43395C30.0557 6.47758 30.5469 6.63029 30.9468 7.0339C31.3238 7.41568 31.6894 7.80838 32.1692 8.09199C32.4091 8.2447 32.6376 8.43014 32.8775 8.58286C33.0146 8.67012 33.1745 8.75739 33.323 8.7683C33.4144 8.7683 33.5172 8.62649 33.6201 8.55013C33.7115 8.47378 33.8028 8.39742 33.8942 8.32106C34.077 8.16835 34.2484 8.02654 34.4426 7.86292C34.4769 7.90655 34.4997 7.92837 34.5226 7.96109C34.831 8.33197 35.1395 8.71376 35.4594 9.08463C35.4936 9.11736 35.5622 9.1719 35.585 9.16099C35.7792 9.05191 35.962 8.93192 36.1562 8.81193C35.6536 8.05926 35.0824 7.39387 34.454 6.78301C34.3855 6.71756 34.3284 6.71756 34.2598 6.78301C34.0999 6.93572 33.9285 7.08844 33.7686 7.24115C33.4373 7.54658 33.106 7.86292 32.7861 8.14653C32.0321 7.52476 31.2895 6.92481 30.5355 6.31396C30.7983 5.95399 31.0725 5.58311 31.3581 5.19041C31.8036 5.50675 32.2377 5.82309 32.6833 6.13942C32.8204 5.98671 32.9346 5.8449 33.0717 5.7031C33.1402 5.62674 33.1288 5.5722 33.0489 5.51766C32.4091 5.07042 31.7808 4.61228 31.141 4.16504C31.0496 4.09959 30.9811 4.12141 30.9239 4.20868C30.5926 4.72136 30.2499 5.23405 29.9186 5.74673C29.8501 5.86672 29.7929 5.86672 29.6787 5.80127C29.1303 5.50675 28.582 5.21223 28.0336 4.92862C27.8051 4.80863 27.5538 4.71045 27.3025 4.60137C27.4853 4.16504 27.6566 3.75053 27.8394 3.3033C28.3763 3.54328 28.879 3.77235 29.3931 4.01233C29.4959 3.8378 29.5759 3.67418 29.6787 3.51055C29.7244 3.42329 29.713 3.36875 29.633 3.32511C29.5873 3.3033 29.553 3.25966 29.5073 3.24876C28.8333 2.96514 28.1593 2.68153 27.4967 2.39792C27.371 2.34338 27.3139 2.38701 27.2682 2.507C27.0626 3.07422 26.8455 3.63054 26.6513 4.19777C26.6056 4.32867 26.5599 4.35048 26.4228 4.30685C25.6231 4.05596 24.812 3.81598 23.978 3.71781C23.9095 3.7069 23.8524 3.69599 23.7724 3.67418C23.8524 3.19422 23.9323 2.73607 24.0123 2.26702C24.5607 2.3761 25.0976 2.48518 25.646 2.59427C25.7031 2.38701 25.7602 2.20157 25.8059 1.99432C25.8173 1.96159 25.7602 1.89614 25.7259 1.88523C25.5089 1.81978 25.2918 1.76524 25.0747 1.72161C24.4578 1.62344 23.8866 1.52526 23.2811 1.42709ZM39.6635 16.284C39.6749 16.2404 39.6863 16.2077 39.6863 16.1859C39.6635 15.9241 39.6521 15.6623 39.5949 15.4114C39.4464 14.7351 39.2065 14.1024 38.6924 13.6006C38.6581 13.5679 38.6239 13.5352 38.6124 13.4915C38.5325 13.2407 38.3154 13.0879 38.1326 12.9352C37.6071 12.4662 37.0702 12.008 36.5218 11.5717C36.0991 11.2335 35.6307 10.9499 35.1166 10.7536C34.4655 10.5027 33.7914 10.3063 33.0717 10.2627C32.2492 10.2082 31.4266 10.0773 30.6041 9.99001C29.8729 9.90275 29.1875 9.7064 28.5934 9.28098C28.3992 9.15008 28.2164 9.00828 28.0222 8.86647C27.9536 8.81193 27.8965 8.81193 27.828 8.85556C27.3025 9.13918 26.7541 9.19372 26.1715 9.01919C25.943 8.95374 25.6917 8.9101 25.4517 8.93192C25.1433 8.96464 24.8463 9.05191 24.5492 9.16099C24.2065 9.29189 23.8752 9.45551 23.5439 9.60823C23.1897 9.77185 22.8242 9.89184 22.4243 9.87002C22.3215 9.87002 22.2301 9.85911 22.0816 9.85911C22.1616 9.92456 22.2073 9.9682 22.253 10.0118C22.5957 10.2518 22.9955 10.3173 23.4068 10.3173C23.9209 10.3063 24.4236 10.2627 24.9377 10.2518C25.2575 10.2409 25.5888 10.2627 25.863 10.4263C26.0801 10.5572 26.2743 10.5245 26.4685 10.47C26.8112 10.3718 27.1425 10.2518 27.4853 10.1318C28.1364 9.92456 28.7876 9.87002 29.4502 10.0336C30.0671 10.1864 30.7069 10.2191 31.3352 10.2191C31.9407 10.2191 32.5119 10.3282 33.0717 10.5245C33.2431 10.59 33.403 10.699 33.5858 10.7209C33.9628 10.7754 34.3169 10.8954 34.6482 11.0699C35.2537 11.3863 35.6536 11.9099 36.0991 12.3898C36.2019 12.4989 36.3276 12.5971 36.4076 12.7171C36.5447 12.9134 36.6703 13.1316 36.796 13.3388C36.9559 13.5897 37.1159 13.8406 37.2872 14.0915C37.3672 14.2006 37.47 14.2987 37.5386 14.4078C37.8242 14.8987 38.2697 15.2478 38.7153 15.5968C38.7838 15.6514 38.8638 15.6841 38.9323 15.7277C39.0237 15.7932 39.1037 15.8804 39.1837 15.9459C39.2979 16.0331 39.4121 16.1313 39.5378 16.2186C39.5721 16.2295 39.6064 16.2513 39.6635 16.284ZM26.9826 24.8033C26.9483 24.8251 26.914 24.836 26.9026 24.8579C26.8455 24.956 26.7884 25.0433 26.7313 25.1415C26.2514 25.9269 25.6574 26.6032 24.9262 27.1922C24.3436 27.6722 23.8181 28.2067 23.2583 28.7085C23.1212 28.8284 22.9727 28.9702 22.8013 29.0357C22.4929 29.1666 22.173 29.2648 21.8531 29.3629C21.2591 29.5375 20.6536 29.4938 20.0367 29.4938C19.4426 29.4938 18.9742 29.2539 18.5744 28.8612C18.0717 28.3485 17.5119 27.9012 16.9179 27.4867C16.518 27.2031 16.1296 26.8977 15.8097 26.5377C15.2728 25.9487 14.93 25.2397 14.5987 24.5306C14.5873 24.5088 14.5759 24.4761 14.5759 24.4543C14.5645 24.4652 14.5416 24.4761 14.5302 24.487C14.5302 24.6179 14.5302 24.7488 14.5302 24.8797C14.5302 25.0324 14.5073 25.1851 14.553 25.316C14.7587 25.9923 15.0214 26.6468 15.4213 27.2358C15.7754 27.7594 16.1867 28.2503 16.6094 28.7303C17.0207 29.1884 17.4776 29.6247 18.026 29.9411C18.2659 30.0829 18.5058 30.2138 18.7914 30.072C18.8257 30.0611 18.86 30.0502 18.8942 30.0502C19.4083 29.952 19.911 29.9084 20.3794 30.2138C20.4022 30.2356 20.4594 30.2356 20.4822 30.2247C20.8249 30.072 21.1677 30.1483 21.499 30.2683C21.5561 30.2901 21.6475 30.2792 21.7046 30.2574C22.0473 30.0829 22.4129 29.952 22.8013 29.9302C23.1783 29.9084 23.4639 29.7447 23.7381 29.5375C24.1608 29.2211 24.5721 28.9048 24.9262 28.5012C25.2118 28.174 25.5431 27.9012 25.8402 27.5849C26.3771 27.0177 26.8455 26.3959 27.291 25.7632C27.371 25.6542 27.371 25.5778 27.3139 25.4687C27.2111 25.2615 27.1083 25.0433 26.9826 24.8033ZM9.51496 12.8043C9.22935 12.728 8.9209 12.6516 8.61245 12.5862C8.42966 12.5425 8.23545 12.4989 8.04123 12.4989C7.53857 12.4771 7.04733 12.5534 6.59036 12.7389C6.15624 12.9243 5.74497 13.1425 5.33369 13.3715C4.2027 14.026 3.27734 14.8987 2.59188 16.0004C2.55761 16.055 2.52334 16.1095 2.48906 16.1859C2.54619 16.1859 2.56903 16.1859 2.59188 16.175C2.95746 16.0441 3.33446 15.9022 3.59721 15.6186C3.92852 15.2696 4.21412 14.8987 4.534 14.5387C4.78533 14.2442 5.07094 13.9715 5.42509 13.7752C5.67642 13.6333 5.90491 13.4588 6.15624 13.3279C6.36187 13.2079 6.59036 13.1098 6.80742 13.0225C6.88739 12.9898 7.01305 12.9898 7.09302 13.0334C7.16157 13.0661 7.21869 13.1643 7.21869 13.2407C7.23012 13.2843 7.13872 13.3606 7.0816 13.3825C6.94451 13.437 6.78457 13.4697 6.63606 13.5243C6.27048 13.6661 5.88206 14.0588 6.042 14.5169C6.12197 14.7351 6.27048 14.9532 6.43042 15.1387C6.67033 15.4114 7.04733 15.5096 7.36721 15.6841C7.62996 15.8259 7.80133 16.0222 7.89272 16.284C8.07551 16.7749 8.00696 17.2549 7.80133 17.7348C7.59569 18.2039 6.91024 18.6838 6.31618 18.5748C6.29333 18.5748 6.28191 18.5748 6.24763 18.5857C6.27048 18.8584 6.3276 19.1202 6.54466 19.3056C6.7046 19.4474 6.86454 19.5783 7.04733 19.6874C7.4586 19.9492 8.00696 19.8401 8.28114 19.4583C8.42966 19.2511 8.57817 19.0329 8.69241 18.7929C9.19508 17.7566 8.85235 16.9603 8.17832 16.1313C7.85845 15.7386 7.72136 15.3241 7.8813 14.8442C7.92699 14.7133 8.00696 14.5933 8.15548 14.5933C8.40681 14.5824 8.63529 14.626 8.73811 14.8878C8.88663 15.2478 9.21793 15.335 9.5835 15.3677C9.6292 15.3677 9.68632 15.3568 9.76629 15.3459C9.53781 15.1496 9.40072 14.9205 9.11511 14.8442C9.00087 14.8114 8.89805 14.7351 8.81808 14.6587C8.76096 14.6042 8.72669 14.4951 8.74954 14.4187C8.79523 14.2224 8.86378 14.0369 8.94375 13.8515C9.14938 13.4915 9.3436 13.1425 9.51496 12.8043ZM26.5713 10.8736C26.6513 10.9717 26.7313 11.0808 26.8341 11.179C27.2225 11.5608 27.4853 12.008 27.6109 12.5316C27.668 12.7825 27.7252 13.0443 27.8508 13.2625C28.0336 13.5897 28.125 13.9279 28.1364 14.2878C28.1364 14.4187 28.1936 14.4842 28.3078 14.5387C28.6848 14.7133 29.0846 14.7023 29.4845 14.6587C29.6102 14.6478 29.7473 14.5824 29.8386 14.4951C30.0443 14.2878 30.2613 14.3315 30.4213 14.4406C30.6383 14.5824 30.8326 14.746 31.0382 14.8878C31.0953 14.9314 31.1753 14.9641 31.2438 14.9532C31.6322 14.9205 31.9293 15.0623 32.1692 15.3568C32.2606 15.4659 32.3405 15.575 32.4205 15.6732C32.5919 15.8804 33.0489 16.0222 33.3116 15.9459C33.3687 15.935 33.4144 15.9022 33.4715 15.8695C33.0488 15.2696 33.1517 14.2115 33.6658 13.5788C33.5401 13.2079 33.1974 13.0661 32.8889 12.8807C32.5805 12.6952 32.2035 12.6734 31.8493 12.6625C31.6551 12.6625 31.4609 12.6734 31.2895 12.7389C31.0839 12.8152 30.8783 12.8589 30.6612 12.837C30.4556 12.8261 30.2499 12.8043 30.0443 12.7716C29.3817 12.6843 28.7533 12.4989 28.2393 12.0844C27.828 11.768 27.4624 11.4081 27.0854 11.059C26.9483 10.9717 26.777 10.8954 26.5713 10.8736ZM16.8607 5.86672C16.9521 5.99762 17.0778 6.04125 17.2149 6.05216C17.9118 6.12852 18.403 6.44485 18.6429 7.09934C18.7457 7.39386 18.9742 7.5684 19.3512 7.5793C19.6711 7.59021 19.9681 7.73202 20.1395 8.03745C20.2309 8.19016 20.3337 8.33197 20.4365 8.47378C20.6878 8.82284 21.3847 8.82284 21.5447 8.41924C21.6361 8.20107 21.7389 7.98291 21.8074 7.75383C22.0131 7.14298 22.0359 6.53212 21.8645 5.91035C21.8417 5.8449 21.8303 5.81218 21.7274 5.80127C21.0534 5.74673 20.6536 5.02679 20.9849 4.47047C21.0191 4.41593 21.042 4.36139 21.0648 4.29594C20.4936 4.15414 19.9567 4.15413 19.4426 4.3723C19.0542 4.53592 18.6658 4.73227 18.3002 4.95043C17.8204 5.23405 17.352 5.55038 16.8607 5.86672ZM34.6825 12.2807C34.4312 12.0189 34.2027 11.779 33.9628 11.5281C33.8942 11.4517 33.8371 11.3644 33.7686 11.299C33.3345 10.9172 32.8204 10.6554 32.2377 10.5791C31.7808 10.5245 31.3238 10.5136 30.8668 10.5027C30.3984 10.4809 29.93 10.4372 29.4616 10.3282C29.039 10.2191 28.5934 10.1427 28.1479 10.2518C27.7594 10.35 27.371 10.4482 26.9369 10.5572C27.074 10.6445 27.1768 10.6881 27.2453 10.7536C27.5195 11.0045 27.7937 11.2554 28.045 11.5281C28.3649 11.8553 28.7305 12.1171 29.1532 12.2698C29.4731 12.3898 29.8272 12.4444 30.1699 12.5098C30.4898 12.5643 30.8097 12.5971 31.1296 12.5207C31.518 12.4116 31.9293 12.3898 32.3291 12.4771C32.8204 12.5862 33.3116 12.6952 33.8257 12.6407C34.1684 12.5971 34.4655 12.4989 34.6825 12.2807ZM22.5728 31.0537C22.5614 31.0646 22.5614 31.0755 22.55 31.0864C22.5957 31.1083 22.63 31.141 22.6757 31.1628C23.1555 31.3919 23.6124 31.6646 23.9894 32.0245C24.355 32.3736 24.7663 32.6354 25.2575 32.8208C25.646 32.9736 26.0572 33.039 26.4685 33.0935C26.914 33.1481 27.3596 33.159 27.7937 32.9954C28.6505 32.679 29.0504 32.0245 29.3131 31.2392C29.4959 30.6828 29.5302 30.1047 29.553 29.5266C29.5645 29.2757 29.5073 29.0248 29.5302 28.7848C29.5759 28.4139 29.7016 28.0649 29.9186 27.7594C30.1585 27.4213 30.3756 27.0613 30.4099 26.6468C30.4327 26.4614 30.3984 26.265 30.3984 26.0796C30.3756 26.0796 30.3642 26.0687 30.3413 26.0687C30.1928 26.1996 30.0443 26.3414 29.8729 26.4614C29.6444 26.625 29.4959 26.8322 29.4274 27.094C29.3703 27.3013 29.3017 27.5195 29.1989 27.7049C28.9818 28.1085 28.8219 28.5121 28.8219 28.9703C28.8219 29.1339 28.8219 29.2866 28.799 29.4393C28.7533 29.952 28.7762 30.4647 28.5477 30.9446C28.4335 31.1955 28.2964 31.4355 28.1707 31.6755C28.1593 31.6973 28.1364 31.7191 28.1136 31.7191C27.8851 31.7627 27.6566 31.8609 27.4396 31.8391C27.0169 31.8064 26.6284 31.6318 26.2514 31.4464C25.5888 31.1301 24.9262 30.8137 24.2522 30.5301C23.5211 30.2138 22.7785 30.2356 22.0473 30.541C22.0131 30.5519 21.9788 30.5738 21.9445 30.5956C22.0245 30.7047 22.1044 30.781 22.2415 30.7156C22.3101 30.6828 22.3901 30.6937 22.47 30.6828C23.1212 30.6501 23.6696 30.8792 24.1608 31.2501C24.6749 31.6428 25.2118 32.0136 25.8516 32.2318C26.5028 32.45 27.1654 32.559 27.8508 32.3954C27.8965 32.3845 27.9536 32.3954 28.0108 32.4063C27.9536 32.6136 27.6795 32.8427 27.451 32.8427C27.154 32.8427 26.8455 32.8427 26.5485 32.8099C25.4974 32.679 24.6635 32.1227 23.8638 31.5337C23.4754 31.2719 23.0641 31.0864 22.5728 31.0537ZM14.0618 4.92862C14.1532 5.10315 14.2332 5.24495 14.3017 5.38676C14.3474 5.48493 14.4045 5.50675 14.5188 5.45221C15.7297 4.91771 16.9864 4.53592 18.3116 4.32867C18.6315 4.27413 18.9399 4.18686 19.237 4.04505C19.9224 3.75053 20.6421 3.68508 21.3619 3.95779C21.3961 3.9687 21.4418 3.9796 21.4761 3.9796C21.7503 3.90325 21.9445 3.75053 22.1044 3.47783C21.4647 3.47783 20.8592 3.47783 20.2309 3.47783C20.208 2.99787 20.1852 2.53972 20.1738 2.05976C20.745 2.05976 21.2705 2.05976 21.8531 2.05976C21.8531 1.8416 21.8645 1.63435 21.8417 1.438C21.8417 1.39437 21.7617 1.32892 21.716 1.32892C20.9849 1.28528 20.2537 1.29619 19.5226 1.36164C19.3626 1.37255 19.3169 1.438 19.3398 1.5798C19.4083 2.15794 19.454 2.74698 19.5226 3.32511C19.534 3.46692 19.4883 3.53237 19.3398 3.54328C19.237 3.54328 19.1456 3.55419 19.0428 3.56509C18.323 3.69599 17.6033 3.82689 16.8836 3.95779C16.7808 3.9796 16.7351 3.95779 16.7008 3.85961C16.6094 3.54328 16.518 3.23785 16.4266 2.93242C16.3352 2.62699 16.3352 2.62699 16.6551 2.56154C16.6894 2.55063 16.7236 2.55063 16.7579 2.53972C17.1121 2.46337 17.4776 2.38701 17.8546 2.29974C17.7975 2.05976 17.7404 1.8416 17.6947 1.60162C17.6262 1.61253 17.569 1.61253 17.5119 1.62344C16.8379 1.78706 16.1753 1.95068 15.5013 2.1034C15.3413 2.13612 15.3299 2.22339 15.3756 2.34338C15.4556 2.59427 15.5469 2.85606 15.6383 3.10695C15.7526 3.46692 15.8668 3.82689 15.9811 4.17595C15.3299 4.44866 14.713 4.67773 14.0618 4.92862ZM20.3337 30.9664C20.3223 30.8137 20.3108 30.6828 20.2994 30.5519C20.2994 30.5301 20.2766 30.5083 20.2537 30.4974C20.0595 30.4319 19.8653 30.3447 19.6597 30.3229C19.3055 30.2901 18.9514 30.3556 18.6201 30.4865C18.0374 30.7265 17.4548 30.9664 16.9064 31.261C16.2781 31.5991 15.6498 31.9155 14.9872 32.1882C14.6444 32.33 14.2903 32.4172 13.9247 32.2863C13.8105 32.2427 13.7076 32.1882 13.6277 32.1009C13.3649 31.85 13.3078 31.5119 13.285 31.1846C13.2507 30.7265 13.2507 30.2465 13.3078 29.7884C13.3535 29.3739 13.3306 28.9702 13.2735 28.5557C13.2164 28.0867 12.9879 27.7267 12.5424 27.4976C12.1768 27.3122 11.8455 27.094 11.697 26.7013C11.697 26.6904 11.6741 26.6904 11.6513 26.6795C11.6399 26.7341 11.6284 26.7777 11.6284 26.8213C11.5942 27.2577 11.8227 27.5413 12.1997 27.7485C12.4167 27.8685 12.6223 27.9994 12.828 28.1412C13.0108 28.2721 13.1022 28.4685 13.1136 28.6866C13.1136 28.7412 13.0679 28.8175 13.0222 28.8612C12.9879 28.883 12.908 28.8393 12.8623 28.8284C12.828 28.8175 12.7937 28.7848 12.7366 28.7521C12.6795 29.0466 12.6223 29.3193 12.5766 29.592C12.4853 30.1156 12.371 30.6392 12.4281 31.1846C12.4853 31.7846 12.7823 32.2318 13.1936 32.6245C13.5477 32.9626 13.9933 33.1808 14.4959 33.2572C15.2842 33.3881 16.0153 33.2463 16.7008 32.8536C17.1349 32.6027 17.569 32.3409 18.0146 32.1118C18.3345 31.9482 18.6886 31.85 19.0199 31.7191C19.0656 31.7082 19.1227 31.6646 19.1227 31.6318C19.1456 31.5009 19.157 31.3701 19.1684 31.2064C19.0542 31.2501 18.9285 31.2937 18.8257 31.3482C18.3687 31.5773 17.9118 31.8173 17.4548 32.0464C17.0892 32.2209 16.7122 32.3736 16.3466 32.559C16.0268 32.7227 15.684 32.7663 15.3413 32.799C15.2499 32.8099 15.1471 32.7663 15.0557 32.7336C15.0214 32.7227 14.9757 32.6681 14.9757 32.6572C14.9872 32.6245 15.0214 32.5809 15.0671 32.57C15.2271 32.5263 15.387 32.4827 15.5469 32.4391C15.7983 32.3627 16.0496 32.3191 16.2781 32.21C17.0435 31.85 17.8089 31.4682 18.5629 31.0864C18.9856 30.8792 19.4312 30.7483 19.911 30.8901C20.0252 30.9555 20.1738 30.9446 20.3337 30.9664ZM30.5926 18.7384C30.7069 18.5638 30.8326 18.4111 30.9239 18.2475C31.061 17.9966 31.5751 17.7566 31.895 17.8112C32.1806 17.8657 32.4434 17.9639 32.6833 18.1166C32.9232 18.2693 33.1859 18.3566 33.4715 18.3784C33.7686 18.4002 34.0199 18.2584 34.0999 18.0075C33.9971 18.0184 33.8942 18.0293 33.7914 18.0184C33.4144 18.0075 33.0717 17.8984 32.8432 17.6039C32.6719 17.3858 32.5576 17.124 32.3977 16.8949C32.2149 16.6222 32.2035 16.3168 32.1578 16.0113C32.1463 15.935 32.1235 15.8586 32.0778 15.8041C32.0321 15.7277 31.9636 15.6732 31.9179 15.6077C31.7808 15.4223 31.5866 15.335 31.3923 15.3677C31.4266 15.5096 31.4609 15.6514 31.4952 15.7823C31.6094 16.1531 31.4837 16.4695 31.2667 16.764C31.2324 16.8185 31.1524 16.8404 31.0953 16.8731C31.061 16.8185 31.0268 16.7749 31.0039 16.7204C30.9811 16.6767 30.9582 16.6222 30.9468 16.5676C30.8554 16.2186 30.6612 15.935 30.3756 15.7059C30.2956 15.6405 30.2156 15.6186 30.1357 15.7277C29.9186 15.9786 29.6444 16.1313 29.2903 16.1531C28.8447 16.1859 28.4106 16.1313 27.9993 15.8913C27.8623 16.1859 27.9879 16.4695 28.0108 16.7313C28.0565 17.3421 28.1593 17.953 28.2507 18.6075C28.3535 18.5202 28.422 18.4439 28.4906 18.4002C28.662 18.2911 28.8447 18.1166 29.0275 18.1057C29.5188 18.073 29.9757 18.2366 30.3642 18.5529C30.4327 18.6184 30.5127 18.6729 30.5926 18.7384ZM21.499 9.76094C21.4875 9.80457 21.4875 9.84821 21.4761 9.89184C21.419 10.5136 21.5789 11.0917 21.8645 11.6481C22.093 12.0953 22.47 12.3571 22.9955 12.4553C23.384 12.5207 23.7724 12.5207 24.1608 12.4662C24.5264 12.4225 24.892 12.3353 25.2575 12.3244C25.863 12.3135 26.4571 12.4444 27.0054 12.7171C27.1197 12.7716 27.2339 12.8152 27.3824 12.8807C27.2682 12.368 27.0968 11.9317 26.7655 11.5717C26.6399 11.4408 26.5256 11.299 26.4 11.1681C26.0572 10.7972 25.6345 10.5572 25.1204 10.5463C24.5264 10.5354 23.9323 10.5791 23.3383 10.6009C22.8813 10.6227 22.4472 10.5463 22.0702 10.2736C21.876 10.1209 21.7046 9.93547 21.499 9.76094ZM27.451 16.764C27.4738 16.7531 27.5081 16.7422 27.531 16.7313C27.5424 16.6767 27.5538 16.6331 27.5538 16.5786C27.531 16.3822 27.4967 16.1859 27.4738 15.9895C27.4053 15.4223 27.0626 14.9969 26.6284 14.6478C26.3314 14.4078 25.9544 14.2551 25.5546 14.1897C25.0519 14.1024 24.5492 14.026 24.058 13.917C23.7495 13.8515 23.4182 13.7752 23.2012 13.5461C23.0412 13.3825 22.8699 13.3715 22.6757 13.3279C21.9902 13.2079 21.4418 12.8698 21.0191 12.3462C20.9849 12.3025 20.9163 12.2698 20.8592 12.2262C20.8364 12.2807 20.8135 12.3135 20.8021 12.3571C20.6307 12.957 20.3337 13.5134 20.0138 14.0479C19.9224 14.1897 19.9453 14.2551 20.1052 14.3315C20.1623 14.3642 20.2309 14.386 20.2994 14.3969C20.665 14.4406 21.042 14.4951 21.419 14.5278C22.5386 14.6042 23.6467 14.7242 24.732 15.0078C25.783 15.2805 26.7084 15.7713 27.371 16.6222C27.3824 16.6658 27.4167 16.7095 27.451 16.764ZM10.1661 4.71045C9.30932 5.23405 8.57817 5.8449 7.8813 6.56484C8.40681 7.05571 8.93232 7.53567 9.45784 8.01563C9.37787 8.1029 9.33217 8.16835 9.27505 8.2338C9.3436 8.2447 9.38929 8.2338 9.43499 8.22289C9.81199 8.12471 10.189 8.02654 10.5546 7.91746C10.6003 7.90655 10.646 7.87383 10.6917 7.85201C11.3314 7.31751 12.0169 6.83755 12.7252 6.40122C12.7709 6.3794 12.8166 6.33577 12.8394 6.28123C12.9651 5.94308 13.0793 5.59402 13.3535 5.36494C13.1136 4.91771 12.8851 4.5032 12.6452 4.06687C13.0336 3.89234 13.3878 3.73962 13.7419 3.576C14.2103 3.36875 14.2217 3.32511 13.959 2.88879C13.9476 2.86697 13.9247 2.84515 13.9247 2.82334C13.879 2.73607 13.8219 2.72516 13.7191 2.75789C13.2735 2.95424 12.828 3.15058 12.3939 3.35784C12.0968 3.49964 11.8112 3.67418 11.4913 3.84871C11.8798 4.45956 12.2568 5.05951 12.6338 5.65946C11.7655 6.22669 10.8859 6.75028 10.1204 7.44841C9.78914 7.09934 9.48069 6.76119 9.14938 6.41213C9.2979 6.28123 9.43499 6.15033 9.5835 6.03034C9.88053 5.80127 10.1776 5.58311 10.4746 5.35403C10.5317 5.3104 10.6117 5.27768 10.5317 5.19041C10.4175 5.0377 10.2918 4.87408 10.1661 4.71045ZM29.3588 26.1559C29.3474 26.1559 29.336 26.1559 29.336 26.1559C29.0504 26.5159 28.7762 26.8759 28.4906 27.2358C28.2621 27.5195 28.0222 27.814 27.7937 28.0976C27.7137 28.1958 27.6223 28.2939 27.531 28.3921C27.451 28.4794 27.3596 28.4576 27.2796 28.403C27.2111 28.3485 27.2225 28.2721 27.2796 28.2067C27.5881 27.8467 27.8851 27.4649 28.2164 27.1159C28.6048 26.7123 28.8562 26.2214 29.1189 25.7523C29.1532 25.6869 29.1646 25.6214 29.176 25.556C29.1646 25.5451 29.1418 25.5451 29.1303 25.5342C29.0846 25.5996 29.0275 25.6542 28.9818 25.7196C28.8676 25.8723 28.7533 26.025 28.6277 26.1668C28.5934 26.1996 28.502 26.1887 28.4335 26.1996C28.4335 26.145 28.422 26.0796 28.4449 26.0469C28.5934 25.7851 28.7533 25.5233 28.9133 25.2615C28.959 25.1851 28.9933 25.1197 28.9133 25.0433C28.7419 24.8579 28.5706 24.6724 28.3878 24.4761C28.0907 25.0106 27.8166 25.5342 27.4967 26.0359C27.1654 26.5377 26.8112 27.0177 26.4228 27.4758C26.0344 27.934 25.6003 28.3703 25.1661 28.7957C24.732 29.2102 24.2751 29.6138 23.7952 30.0393C24.0009 30.0938 24.2179 30.1592 24.435 30.2138C24.4807 30.2247 24.5607 30.1811 24.5949 30.1483C24.9491 29.8647 25.2918 29.5811 25.6345 29.2975C25.7488 29.1993 25.8516 29.0902 25.9773 28.9921C26.0115 28.9702 26.0801 28.9593 26.1029 28.9812C26.1372 29.003 26.1486 29.0684 26.1372 29.1011C26.1029 29.1775 26.0687 29.243 26.0115 29.2975C25.6574 29.6247 25.2918 29.9411 24.9262 30.2574C24.812 30.3556 24.812 30.3883 24.9377 30.4538C25.029 30.4974 25.1204 30.5519 25.2233 30.5738C25.2918 30.5847 25.3946 30.5738 25.4403 30.5301C25.6802 30.3447 25.9201 30.1701 26.1372 29.9629C26.6399 29.4938 27.1425 29.0248 27.6109 28.5339C27.908 28.2285 28.1593 27.8794 28.422 27.5522C28.7076 27.1813 28.9818 26.7995 29.256 26.4286C29.3246 26.3196 29.336 26.2323 29.3588 26.1559ZM16.8036 33.1699C19.5568 33.8789 22.2987 33.9007 25.0519 33.2026C24.3893 32.9954 23.9437 32.4936 23.4182 32.09C23.3611 32.1773 23.3154 32.2427 23.2583 32.3082C23.0984 32.4936 22.9156 32.679 22.6414 32.6681C22.3558 32.6572 22.0702 32.6136 21.796 32.5481C21.6246 32.5045 21.5218 32.4718 21.3505 32.6027C20.9049 32.919 19.8082 32.9517 19.4198 32.2209C19.3284 32.0573 19.2255 32.0464 19.0656 32.0791C18.6543 32.1663 18.2773 32.3191 17.9118 32.5263C17.6033 32.7008 17.3063 32.8863 16.9978 33.0717C16.9293 33.1045 16.8607 33.1372 16.8036 33.1699ZM28.7762 6.58666C28.7305 6.53212 28.7191 6.52121 28.7076 6.5103C28.662 6.47758 28.6277 6.45576 28.5706 6.43395C27.9993 6.16124 27.5195 5.76855 27.0397 5.36494C26.7541 5.12496 26.4228 4.95043 26.0572 4.83044C25.5089 4.65591 24.8348 4.92862 24.6178 5.40858C24.4921 5.68128 24.3893 5.95399 24.3322 6.2376C24.2408 6.75028 24.1837 7.27388 24.1151 7.79747C24.1037 7.90655 24.0923 8.02654 24.0808 8.13562C24.0923 8.14653 24.1037 8.14653 24.1265 8.15744C24.2065 8.09199 24.2865 8.03745 24.3664 7.972C24.6863 7.73202 24.9948 7.45931 25.3375 7.25206C25.646 7.05571 26.023 6.94663 26.4 7.02299C26.8683 7.11025 27.3253 7.09934 27.7709 6.95754C28.0907 6.84846 28.422 6.71756 28.7762 6.58666ZM6.47612 10.8845C6.48754 10.9063 6.49897 10.9281 6.51039 10.939C6.56751 10.939 6.62463 10.939 6.68175 10.939C7.4129 10.9608 8.14405 10.9717 8.8752 11.0263C9.78914 11.0917 10.6688 11.0917 11.5485 10.7754C12.0968 10.5791 12.4624 10.23 12.748 9.76094C12.7937 9.68458 12.7709 9.64095 12.6909 9.61913C12.3025 9.51005 11.9369 9.35734 11.537 9.3028C10.6117 9.1719 9.69775 9.25916 8.81808 9.56459C8.31542 9.73913 7.82417 9.9682 7.35578 10.23C7.0359 10.4045 6.77315 10.6663 6.47612 10.8845ZM13.3649 26.4723C13.1821 26.6359 13.1593 26.6795 13.2393 26.8868C13.2621 26.9522 13.2964 27.0286 13.3192 27.094C13.4906 27.7376 13.8105 28.3158 14.1989 28.8612C14.6102 29.4393 15.1014 29.9629 15.6269 30.4538C15.844 30.661 16.1067 30.8137 16.3466 30.9883C16.438 31.0537 16.5409 31.0755 16.6322 30.9555C16.3809 30.7265 16.1296 30.4974 15.8897 30.2683C15.8097 30.192 15.7297 30.1047 15.6612 30.0065C15.6383 29.9738 15.6269 29.9084 15.6498 29.8756C15.6726 29.8429 15.7412 29.8211 15.7754 29.832C15.8554 29.8429 15.9468 29.8647 16.0039 29.9193C16.2781 30.1265 16.5294 30.3338 16.7922 30.541C16.9864 30.6937 17.1692 30.7919 17.4091 30.6174C17.5462 30.5192 17.729 30.4538 17.9003 30.3665C16.1981 29.1121 14.8958 27.6067 14.2332 25.6214C14.0846 25.7523 13.9476 25.8832 13.799 25.9923C13.7076 26.0687 13.6734 26.145 13.7191 26.2432C13.879 26.6468 14.039 27.0613 14.1989 27.4649C14.256 27.6176 14.336 27.7813 14.3817 27.934C14.3931 27.9885 14.3474 28.0649 14.3131 28.1085C14.2903 28.1303 14.1875 28.0867 14.1532 28.054C14.0961 28.0103 14.0504 27.9449 14.0275 27.8685C13.799 27.4322 13.582 26.9522 13.3649 26.4723ZM28.3649 8.67012C28.3535 8.68103 28.3421 8.69194 28.3306 8.70285C28.3763 8.7683 28.422 8.83375 28.4792 8.88829C28.879 9.23735 29.3246 9.49914 29.8501 9.58641C30.6498 9.71731 31.4609 9.78276 32.2606 9.89184C32.8661 9.9682 33.4601 10.0555 34.0656 10.1645C34.9795 10.3391 35.7792 10.7645 36.5561 11.2335C36.6132 11.2663 36.6818 11.3099 36.7274 11.3535C37.3215 11.8662 37.9041 12.3789 38.4868 12.8916C38.5553 12.9461 38.6239 13.0007 38.6924 13.0552C38.7038 13.0443 38.7267 13.0334 38.7381 13.0225C38.6696 12.8807 38.5896 12.728 38.5211 12.5862C38.3154 12.1389 37.9955 11.768 37.6528 11.419C37.4015 11.1572 37.1045 10.9172 36.8074 10.699C36.4418 10.4263 36.0877 10.1427 35.6764 9.93547C35.1738 9.67368 34.6368 9.48824 34.1113 9.28098C33.6429 9.09554 33.1402 9.11736 32.649 9.05191C32.4776 9.03009 32.2834 9.07373 32.1121 9.07373C31.3352 9.09554 30.5584 9.10645 29.7701 9.11736C29.2903 9.12827 28.8447 9.041 28.4677 8.74648C28.4449 8.70285 28.3992 8.69194 28.3649 8.67012ZM34.454 12.7607C34.4655 12.7934 34.4769 12.8043 34.4769 12.8043C34.4997 12.8152 34.534 12.8261 34.5568 12.848C35.0595 13.0661 35.4479 13.4152 35.7335 13.8624C36.0991 14.4515 36.4418 15.0623 36.8188 15.6514C37.0816 16.0659 37.4357 16.404 37.8813 16.6658C38.0412 16.7531 38.1898 16.764 38.3497 16.7095C38.4182 16.6876 38.5096 16.7095 38.5782 16.7313C38.761 16.7858 38.9437 16.8622 39.138 16.9167C39.2865 16.9603 39.4236 16.884 39.4807 16.7531C39.5492 16.6113 39.4464 16.5458 39.3436 16.4804C39.058 16.2622 38.761 16.055 38.4754 15.8259C37.7442 15.2478 37.2187 14.5169 36.716 13.7533C36.3276 13.1643 35.9506 12.5534 35.4479 12.0408C35.0938 11.6808 34.7282 11.3535 34.2598 11.1354C34.157 11.0917 34.0542 11.0481 33.9399 11.0154C33.9285 11.0263 33.9171 11.0372 33.9171 11.059C34.1456 11.3208 34.3741 11.5935 34.6254 11.8226C34.7511 11.9426 34.9453 12.0189 35.1052 12.1171C35.1395 12.1389 35.1966 12.1716 35.1966 12.2044C35.1966 12.248 35.1623 12.3135 35.1166 12.3353C34.8996 12.4662 34.6711 12.608 34.454 12.7607ZM30.9354 7.45931C30.6383 6.96845 29.9986 6.76119 29.5302 6.76119H29.5188C29.1646 6.85936 28.8105 6.93572 28.4677 7.06662C27.8737 7.28478 27.2796 7.48113 26.6284 7.35023C26.1486 7.25206 25.7031 7.35023 25.3147 7.61203C25.0976 7.75384 24.892 7.91746 24.6977 8.09199C24.3207 8.44105 23.9666 8.80102 23.5782 9.18281C23.681 9.15008 23.7495 9.12827 23.8181 9.10645C24.1151 8.99737 24.4121 8.85556 24.7206 8.7683C25.189 8.62649 25.6688 8.5065 26.1715 8.65921C26.777 8.84465 27.3367 8.75739 27.8737 8.43014C28.125 8.27743 28.1364 8.2447 27.9993 7.98291C27.9422 7.87383 27.9879 7.79747 28.1022 7.77565C28.4106 7.72111 28.7305 7.67748 29.0389 7.62294C29.6102 7.51385 30.1699 7.40477 30.7526 7.45931C30.8097 7.48113 30.8668 7.47022 30.9354 7.45931ZM30.6269 19.9819C30.7069 20.0037 30.764 20.0255 30.8097 20.0364C31.3581 20.1673 31.7922 20.5491 31.8836 21.0727C31.9179 21.2909 31.9407 21.5091 31.9636 21.7272C31.9978 22.0981 32.0092 22.469 32.2949 22.7635C32.3291 22.7962 32.3634 22.818 32.4091 22.8617C32.3977 22.709 32.3634 22.5671 32.3977 22.4362C32.5005 21.9236 32.6947 21.4327 32.9346 20.9746C33.106 20.6364 33.2202 20.2764 33.2659 19.9165C33.3002 19.6219 33.2888 19.3274 33.1517 19.0547C33.0717 18.9129 32.9575 18.782 32.8318 18.662C32.7404 18.5748 32.6033 18.5202 32.4891 18.4548C32.3177 18.3675 32.1578 18.2693 31.975 18.2148C31.5294 18.073 31.0268 18.4439 31.0382 18.8802C31.0496 19.2074 30.9925 19.5129 30.764 19.7747C30.7069 19.8183 30.684 19.8946 30.6269 19.9819ZM16.7122 14.2006C16.7122 14.1788 16.7122 14.1678 16.7236 14.146C16.6894 14.1242 16.6551 14.1024 16.6208 14.0806C16.3581 13.9388 16.0953 13.8188 15.844 13.6661C15.5469 13.4915 15.2156 13.3825 14.8843 13.3497C14.1989 13.2734 13.5477 13.437 12.9879 13.8297C12.6909 14.0369 12.3939 14.2442 12.0968 14.4624C11.5485 14.8551 10.9658 15.1387 10.2461 15.1278C10.2118 15.1278 10.1661 15.1387 10.0862 15.1496C10.2004 15.2368 10.2804 15.3023 10.3718 15.3568C10.6802 15.5096 11.0115 15.575 11.3657 15.5859C11.9826 15.6077 12.5538 15.4114 13.0907 15.1387C13.2964 15.0296 13.502 14.9096 13.6962 14.7787C13.9704 14.5933 14.256 14.4406 14.5759 14.386C15.0557 14.3206 15.5469 14.2769 16.0268 14.2333C16.2552 14.2224 16.4837 14.2115 16.7122 14.2006ZM29.7587 26.025C29.7701 26.025 29.7815 26.025 29.7929 26.025C29.8158 26.0141 29.8386 25.9923 29.8615 25.9814C30.1014 25.8505 30.2042 25.5996 30.3756 25.4142C30.6612 25.0869 30.6955 24.7379 30.5469 24.3561C30.4327 24.0507 30.2499 23.7998 30.0214 23.5707C29.6216 23.178 29.2332 22.7853 28.8219 22.3926C28.5134 22.0981 28.3649 21.7272 28.2735 21.3236C28.2393 21.1709 28.205 21.0291 28.1707 20.8437C28.045 21.4327 27.9422 21.9781 27.828 22.5235C27.8051 22.6326 27.8051 22.7417 27.828 22.8399C27.908 23.2325 28.1022 23.5707 28.3649 23.8652C28.6277 24.1816 28.9247 24.4761 29.1989 24.7924C29.4159 25.0324 29.5873 25.2942 29.6559 25.6105C29.6901 25.7523 29.7244 25.8832 29.7587 26.025ZM12.0169 26.4941C12.0283 26.4941 12.0511 26.4941 12.0626 26.4941C12.0854 26.4505 12.1083 26.4068 12.1311 26.3523C12.2453 26.1123 12.3367 25.8505 12.4738 25.6214C12.7594 25.1742 13.1593 24.8142 13.6163 24.5088C13.7076 24.4543 13.799 24.3997 13.8904 24.3343C14.176 24.1161 14.256 23.8107 14.1875 23.4943C14.1189 23.1889 14.0161 22.8944 13.9247 22.589C13.9133 22.5453 13.879 22.5017 13.8447 22.4472C13.7419 22.5344 13.6734 22.6217 13.5706 22.6653C13.3421 22.7962 13.1136 22.9162 12.8623 23.0144C12.451 23.178 12.1083 23.4289 11.8112 23.7452C11.4571 24.127 11.3086 24.5743 11.4228 25.076C11.4799 25.316 11.5485 25.556 11.7541 25.7196C11.8683 25.8069 11.914 25.905 11.9255 26.0359C11.9597 26.1996 11.994 26.3414 12.0169 26.4941ZM20.4137 11.1899C20.3794 10.9608 20.1966 10.7863 19.9795 10.7427C19.3284 10.6336 18.8028 10.819 18.3916 11.3208C18.3459 11.3754 18.3002 11.4299 18.2545 11.4844C18.1745 11.5826 18.0831 11.5717 18.0032 11.4953C17.9346 11.4408 17.8889 11.3535 17.8089 11.3208C17.272 11.1136 16.7236 11.0263 16.2096 11.3317C15.8668 11.539 15.5698 11.8226 15.2271 12.0953C15.387 12.1716 15.5127 12.2371 15.6383 12.2916C16.1524 12.5316 16.6779 12.7498 17.2492 12.848C17.5805 12.9025 17.9118 12.8807 18.1745 12.6625C18.3916 12.488 18.5858 12.2807 18.7914 12.0735C18.8942 11.9753 18.9856 11.8662 19.0885 11.768C19.4426 11.419 19.8653 11.1899 20.4137 11.1899ZM22.2415 5.76855C22.2644 5.8449 22.2758 5.89944 22.2872 5.94308C22.4015 6.34668 22.4472 6.7721 22.3786 7.18661C22.2758 7.83019 22.0588 8.44105 21.6703 8.98646C21.5904 9.09554 21.6246 9.29189 21.7274 9.36825C22.1159 9.65186 22.6528 9.61913 22.9955 9.29189C23.0527 9.23735 23.1212 9.18281 23.1783 9.12827C23.2354 9.06282 23.2926 8.99737 23.3383 8.93192C23.3954 8.83375 23.4411 8.73557 23.4868 8.6374C23.5325 8.52832 23.601 8.41924 23.6239 8.31015C23.6924 7.90655 23.761 7.50295 23.8067 7.09934C23.8181 6.96845 23.7952 6.81573 23.7267 6.70665C23.4411 6.25941 23.0184 5.95399 22.4929 5.80127C22.4243 5.76855 22.3444 5.77945 22.2415 5.76855ZM23.224 12.8916C23.2469 13.2079 23.4411 13.3934 23.7495 13.4588C24.2179 13.5679 24.6749 13.677 25.1433 13.7752C25.6802 13.8842 26.2172 14.0042 26.697 14.2878C26.8112 14.3642 26.9255 14.4406 27.0169 14.5387C27.2225 14.7569 27.4053 14.9969 27.5995 15.2259C27.6223 15.215 27.6338 15.215 27.6338 15.2041C27.6452 15.1823 27.6566 15.1605 27.668 15.1387C27.8166 14.8332 27.8051 14.506 27.7823 14.1897C27.7594 13.677 27.4738 13.3279 27.0054 13.1098C26.777 13.0007 26.5599 12.9025 26.3314 12.8043C26.2743 12.7825 26.2057 12.7607 26.1372 12.7498C25.646 12.6516 25.1547 12.6516 24.6521 12.7389C24.1951 12.8152 23.7153 12.837 23.224 12.8916ZM22.5957 3.4342C22.55 3.52146 22.5157 3.59782 22.4814 3.66327C22.3101 3.9687 22.0245 4.15414 21.716 4.30685C21.4647 4.42684 21.3162 4.62319 21.2819 4.88498C21.2591 5.07042 21.339 5.23405 21.5218 5.29949C21.6932 5.35403 21.876 5.37585 22.0588 5.40858C22.2187 5.43039 22.3786 5.41948 22.5386 5.45221C22.9498 5.53947 23.3154 5.73582 23.6353 5.99762C23.7153 6.06307 23.7952 6.12852 23.8981 6.20487C23.9323 6.11761 23.978 6.04125 24.0009 5.9758C24.1608 5.52857 24.2979 5.05951 24.7092 4.75408C24.7434 4.73227 24.7434 4.6341 24.7206 4.61228C24.6064 4.5032 24.4921 4.3723 24.355 4.30685C24.138 4.20868 23.9095 4.14323 23.681 4.08869C23.2811 3.99051 22.9041 3.84871 22.6642 3.51055C22.6528 3.46692 22.63 3.45601 22.5957 3.4342ZM32.4776 16.2186C32.5005 16.3604 32.4891 16.4695 32.5348 16.5676C32.6719 16.8294 32.8204 17.0912 32.9689 17.3421C33.106 17.5603 33.3459 17.6476 33.5858 17.7239C33.9856 17.8439 34.7054 17.4512 34.7168 16.9058C34.7168 16.7967 34.7282 16.6876 34.7282 16.5786C34.7396 16.3604 34.8881 16.175 35.1281 16.0986C35.3451 16.0222 35.5165 16.0768 35.6764 16.2731C35.745 16.3495 35.8021 16.4149 35.8821 16.4804C35.9278 16.5131 35.9849 16.5458 36.0306 16.5458C36.2248 16.5458 36.499 16.3168 36.5104 16.1204C36.5332 15.7713 36.3276 15.5096 36.1334 15.2478C36.1334 15.2368 36.122 15.2368 36.1105 15.2368C35.8592 15.1278 35.5965 15.0732 35.3451 15.2259C34.9681 15.455 34.614 15.7168 34.237 15.9459C33.9971 16.0986 33.7343 16.2077 33.4715 16.3277C33.2773 16.4149 33.0717 16.404 32.8775 16.3495C32.7632 16.284 32.649 16.2513 32.4776 16.2186ZM28.6734 27.9012C28.6619 27.8903 28.6505 27.8903 28.6391 27.8794C27.7937 28.9375 26.8455 29.9084 25.7374 30.7592C26.0115 30.9119 26.24 31.0428 26.4914 31.1628C26.8455 31.3373 27.2225 31.4573 27.6452 31.4355C27.8508 31.4246 27.9993 31.3373 28.0793 31.1737C28.1593 31.0319 28.2164 30.8792 28.2621 30.7156C28.3878 30.2683 28.422 29.8102 28.422 29.3411C28.4335 28.8939 28.4677 28.4357 28.6505 28.0103C28.662 27.9776 28.6734 27.934 28.6734 27.9012ZM13.662 28.7957C13.662 28.8721 13.6505 28.9375 13.6505 28.9921C13.6505 29.5593 13.6391 30.1374 13.6391 30.7047C13.6391 30.9664 13.6505 31.2282 13.6734 31.49C13.6962 31.8718 14.1189 32.0573 14.4045 32.0136C14.5416 31.9918 14.6673 31.9373 14.7929 31.8936C15.1814 31.73 15.5584 31.5664 15.9468 31.4028C16.0039 31.381 16.061 31.3264 16.1296 31.2719C15.5812 30.9774 15.1814 30.5628 14.7929 30.1483C14.4045 29.712 14.0504 29.2648 13.662 28.7957ZM29.2674 20.0692C29.4502 20.2001 29.5987 20.3201 29.7587 20.4182C29.9072 20.4946 30.0671 20.5491 30.2271 20.6037C30.3185 20.6364 30.3756 20.5819 30.3527 20.4837C30.3299 20.3746 30.2956 20.2655 30.2613 20.1564C30.2271 20.0037 30.2156 19.8728 30.3527 19.7528C30.4441 19.6656 30.5012 19.5347 30.5698 19.4256C30.5812 19.4038 30.5812 19.3601 30.5698 19.3383C30.3299 18.902 29.9529 18.6184 29.4502 18.4984C29.2332 18.4439 29.0275 18.4439 28.8219 18.5529C28.6048 18.6838 28.4906 18.8802 28.3992 19.0874C28.3878 19.0983 28.3992 19.1311 28.4106 19.142C28.6163 19.5129 28.582 19.9165 28.5706 20.3201C28.5591 20.6691 28.5363 21.0182 28.6391 21.3563C28.662 21.4327 28.7076 21.5091 28.7419 21.5854C28.8562 21.0618 28.8904 20.5273 29.2674 20.0692ZM29.3246 20.6037C29.3588 20.7018 29.4045 20.7564 29.4045 20.8C29.3474 21.1491 29.5073 21.4218 29.7473 21.6509C29.93 21.8254 30.1357 21.9781 30.3299 22.1526C30.5355 22.3381 30.764 22.5126 30.8668 22.7744C30.8897 22.818 30.9354 22.8617 30.9925 22.8835C31.3009 22.9817 31.6322 23.0035 31.9636 22.9817C31.9521 22.9489 31.9521 22.9271 31.9407 22.9162C31.6551 22.5781 31.5866 22.1745 31.5637 21.7599C31.5523 21.52 31.518 21.28 31.4723 21.0509C31.3923 20.7018 31.1182 20.5164 30.7869 20.3528C30.7754 20.5164 30.764 20.6582 30.7526 20.8C30.7412 20.8982 30.684 20.9746 30.5698 20.9636C30.2271 20.9527 29.8958 20.9309 29.6102 20.7128C29.5416 20.68 29.4502 20.6582 29.3246 20.6037ZM13.0565 16.4367C13.0793 16.4367 13.0907 16.4477 13.1136 16.4477C13.1593 16.3822 13.205 16.3277 13.2393 16.2622C13.3763 16.055 13.502 15.8477 13.6391 15.6405C13.799 15.4223 14.0275 15.2805 14.2789 15.215C14.9186 15.0405 15.5698 15.1059 16.1981 15.2914C16.5523 15.4005 16.9179 15.4441 17.2834 15.3896C18.0146 15.2914 18.5858 14.8987 19.0999 14.4296C19.1456 14.3969 19.1684 14.3424 19.2027 14.2769C19.157 14.2769 19.1456 14.2769 19.1342 14.2769C18.6886 14.4515 18.2316 14.5605 17.7404 14.4842C17.7061 14.4842 17.6719 14.4951 17.6376 14.4951C17.4662 14.5169 17.2949 14.5496 17.1235 14.5605C16.5637 14.5933 16.0039 14.6151 15.4441 14.6587C14.8158 14.7133 14.2103 14.8005 13.6962 15.215C13.3992 15.455 13.2278 15.7386 13.1136 16.0768C13.0793 16.1968 13.0793 16.3168 13.0565 16.4367ZM35.8364 14.7242C35.6878 14.4406 35.5736 14.1788 35.4137 13.9606C35.1281 13.5461 34.9795 13.4479 34.4655 13.5897C34.4083 13.6006 34.3512 13.6115 34.3055 13.6333C33.9742 13.7533 33.7115 13.9497 33.6086 14.2878C33.4601 14.8005 33.5058 15.2914 33.78 15.8041C33.9742 15.6732 34.1684 15.5423 34.3512 15.4114C34.7968 15.095 35.1852 14.7133 35.8364 14.7242ZM16.6779 10.7536C16.3009 10.5463 15.9468 10.2627 15.4784 10.3064C15.307 10.3173 15.1243 10.3609 14.9529 10.3827C14.7358 10.4154 14.5073 10.4809 14.2903 10.4591C13.8904 10.4154 13.5591 10.5354 13.2507 10.7427C13.125 10.8299 13.0108 10.939 12.8623 11.059C12.9536 11.0808 12.9993 11.0808 13.045 11.1026C13.4906 11.2554 13.9361 11.4081 14.3703 11.5826C14.633 11.6808 14.8843 11.6808 15.1471 11.6481C15.1928 11.6371 15.2499 11.6044 15.2842 11.5717C15.6726 11.1899 16.1067 10.8736 16.6779 10.7536ZM6.48754 15.6732C6.47612 15.6841 6.46469 15.6841 6.45327 15.695C6.68175 16.0768 6.7046 16.4477 6.419 16.8076C6.14481 17.1567 5.77924 17.3203 5.32227 17.2985C5.27657 17.4839 5.35654 17.6257 5.48221 17.7348C5.5736 17.8112 5.68785 17.8766 5.77924 17.9421C6.11054 18.1821 6.68175 18.1821 7.02448 17.9748C7.4586 17.7021 7.62996 17.2876 7.65281 16.8185C7.66424 16.5458 7.59569 16.284 7.33293 16.1313C7.05875 15.9677 6.77315 15.8259 6.48754 15.6732ZM28.3763 8.09199C28.4106 8.15744 28.422 8.20107 28.4449 8.2338C28.6734 8.57195 29.0389 8.71376 29.4274 8.75739C29.6673 8.79011 29.9186 8.7683 30.1585 8.7683C30.8097 8.75739 31.4723 8.74648 32.1235 8.74648C32.2035 8.74648 32.2834 8.73557 32.3634 8.72466C32.3748 8.70285 32.3862 8.68103 32.4091 8.65921C32.352 8.62649 32.2834 8.58286 32.2263 8.55013C31.9864 8.39742 31.7579 8.22289 31.5066 8.08108C31.3124 7.972 31.0953 7.88473 30.8783 7.8411C30.3185 7.72111 29.7701 7.81928 29.2217 7.91746C28.9476 7.95018 28.6734 8.02654 28.3763 8.09199ZM17.8432 15.6732C17.4205 15.7823 16.9978 15.7495 16.5751 15.7386C16.5523 15.7386 16.5294 15.7386 16.518 15.7386C16.0953 15.9241 15.6498 16.0659 15.4213 16.5022C15.3299 16.6767 15.2613 16.8513 15.1928 17.0258C15.0786 17.3421 15.01 17.6803 15.0329 18.0184C15.0443 18.1602 15.1014 18.2148 15.2271 18.1711C15.3756 18.1166 15.5127 18.0512 15.6041 17.8984C15.764 17.6148 15.9239 17.3312 16.1182 17.0694C16.2552 16.8949 16.4266 16.7313 16.6094 16.6004C16.8265 16.4477 17.0778 16.3495 17.3177 16.2186C17.5348 16.0986 17.6947 15.8913 17.8432 15.6732ZM6.55609 9.89184C6.46469 9.8373 6.40757 9.78276 6.3276 9.75003C6.19051 9.68458 6.19051 9.60823 6.28191 9.49914C6.59036 9.11736 6.88739 8.72466 7.19584 8.34288C7.27581 8.2447 7.27581 8.17925 7.17299 8.11381C7.04733 8.02654 6.93309 7.93927 6.81884 7.8411C6.73887 7.78656 6.68175 7.80838 6.62463 7.87383C6.11054 8.47378 5.60788 9.08463 5.20803 9.76094C5.15091 9.85912 5.09379 9.9682 5.02524 10.0773C5.41366 10.2954 5.77924 10.5027 6.17909 10.7209C6.09912 10.3391 6.30475 10.11 6.55609 9.89184ZM7.18442 9.81548C7.19584 9.82639 7.20727 9.8373 7.23012 9.85911C7.24154 9.85911 7.25296 9.87002 7.25296 9.87002C7.28724 9.85912 7.31008 9.84821 7.33293 9.8373C7.8813 9.5755 8.42966 9.29189 9.03514 9.13917C9.83484 8.93192 10.646 8.86647 11.4685 8.95374C11.8455 8.99737 12.2111 9.11736 12.5766 9.20462C12.6338 9.21553 12.6909 9.21553 12.7709 9.22644C12.748 9.16099 12.7366 9.11736 12.7137 9.07373C12.5652 8.79011 12.4167 8.51741 12.074 8.41924C11.5827 8.27743 11.0687 8.25561 10.5546 8.32106C9.89196 8.39742 9.30932 8.65921 8.71526 8.92101C8.23545 9.12827 7.77848 9.37916 7.37863 9.7064C7.31008 9.72822 7.24154 9.77185 7.18442 9.81548ZM10.646 23.8434C10.7145 24.0179 10.7488 24.1597 10.8173 24.2906C10.8402 24.3452 10.9316 24.367 11.0001 24.3888C11.023 24.3888 11.0687 24.3125 11.0915 24.2688C11.1943 24.0398 11.2514 23.778 11.4114 23.5925C11.7084 23.2544 12.0626 22.9598 12.4967 22.7853C12.6909 22.709 12.8851 22.6326 13.0679 22.5344C13.2507 22.4253 13.4335 22.3163 13.5934 22.1635C13.8105 21.9563 13.7419 21.4327 13.502 21.2473C13.4335 21.1927 13.3763 21.1818 13.3078 21.28C13.2164 21.4109 13.1136 21.5418 12.9993 21.6727C12.5881 22.1526 12.0169 22.4581 11.5256 22.8399C11.2971 23.0144 11.0915 23.2107 10.8973 23.418C10.783 23.5489 10.7259 23.7016 10.646 23.8434ZM19.3626 8.00472C19.2712 8.00472 19.1798 8.00472 19.0999 7.99382C19.0085 7.98291 18.9057 7.98291 18.8485 7.93927C18.6429 7.76474 18.4144 7.61203 18.3116 7.32842C18.1631 6.92481 17.9118 6.63029 17.4434 6.54303C17.2149 6.49939 16.975 6.53212 16.7693 6.3794C16.7579 6.3794 16.6779 6.43395 16.6779 6.46667C16.6437 6.73937 16.6894 7.01208 16.8379 7.25206C16.9978 7.50295 17.2492 7.61203 17.5233 7.72111C17.649 7.76474 17.8089 7.81928 17.8546 7.91746C18.0146 8.22289 18.3116 8.31015 18.6086 8.39742C18.8371 8.44105 19.2484 8.2338 19.3626 8.00472ZM15.8211 15.5859C15.467 15.4877 15.1357 15.5205 14.8158 15.5205C14.4045 15.5314 14.0732 15.695 13.8562 16.0222C13.6505 16.3277 13.502 16.6549 13.3421 16.9822C13.3078 17.0476 13.2964 17.1349 13.285 17.2112C13.2735 17.3749 13.3535 17.4403 13.5249 17.3967C13.6163 17.3749 13.6962 17.3421 13.7876 17.3094C13.8447 17.2876 13.9247 17.2658 13.959 17.2221C14.1989 16.9931 14.416 16.7422 14.6559 16.5131C14.7587 16.404 14.8843 16.3168 15.01 16.2186C15.2728 16.0004 15.5355 15.8041 15.8211 15.5859ZM23.0527 31.8064C22.7899 31.6646 22.5157 31.5555 22.2872 31.3919C22.0473 31.2282 21.8531 31.0101 21.6361 30.8246C21.419 30.6392 21.1677 30.5519 20.8821 30.5628C20.6764 30.5738 20.6307 30.6392 20.6878 30.8355C20.8821 31.5773 21.5218 32.1336 22.3215 32.2536C22.7214 32.3191 22.9384 32.1882 23.0527 31.8064ZM28.1364 14.8551C28.0907 15.0187 28.0336 15.1714 27.9993 15.3132C27.9879 15.335 28.0222 15.3787 28.0565 15.4114C28.3192 15.6623 28.6391 15.7823 29.0047 15.8041C29.4845 15.8477 29.8272 15.6732 30.01 15.2478C30.0214 15.215 30.0329 15.1823 30.0557 15.1496C30.1357 15.0514 30.2271 15.0514 30.307 15.1496C30.3527 15.2041 30.387 15.2587 30.4441 15.2914C30.6955 15.455 30.9011 15.6514 31.061 15.9022C31.0839 15.935 31.1182 15.9568 31.141 15.9895C31.1524 15.9786 31.1753 15.9786 31.1867 15.9677C31.1639 15.8259 31.1524 15.6841 31.0953 15.5532C30.9239 15.1932 30.6269 14.9314 30.2842 14.7242C30.2499 14.7023 30.2042 14.6914 30.1699 14.7023C30.09 14.7351 29.9986 14.7787 29.93 14.8332C29.7472 14.986 29.5302 15.0296 29.2903 15.0296C28.8904 15.0623 28.5134 15.0078 28.1364 14.8551ZM18.1974 19.491C17.6376 19.2838 17.0549 19.2729 16.4837 19.5456C16.1753 19.6874 16.1753 19.6874 16.2324 20.0146C16.2324 20.0364 16.2438 20.0583 16.2324 20.0692C16.1867 20.1783 16.2667 20.211 16.3466 20.2437C16.8722 20.451 17.4091 20.4728 17.946 20.2873C18.1859 20.2001 18.2659 20.0583 18.2202 19.8292C18.2088 19.7201 18.2088 19.611 18.1974 19.491ZM5.85921 15.0187C5.73354 15.0514 5.58503 15.0623 5.44794 15.1278C5.288 15.1932 5.13948 15.2805 5.01382 15.3896C4.92242 15.4659 4.85388 15.575 4.83103 15.6841C4.79676 15.8586 4.8196 16.0441 4.83103 16.2186C4.84245 16.524 5.09379 16.8076 5.40224 16.8622C5.69927 16.9058 6.042 16.6985 6.19051 16.3931C6.25906 16.2404 6.22478 16.0768 6.11054 16.0222C5.9963 15.9786 5.82494 16.055 5.73354 16.175C5.68785 16.2295 5.59645 16.284 5.53933 16.2731C5.48221 16.2622 5.40224 16.1859 5.39082 16.1204C5.32227 15.8804 5.55075 15.6077 5.85921 15.5641C5.98488 15.5423 6.12197 15.5641 6.25906 15.5641C6.13339 15.3677 6.00772 15.2041 5.85921 15.0187ZM10.3147 23.5598C10.3489 23.5162 10.3718 23.5052 10.3718 23.4834C10.5774 23.1235 10.8859 22.8508 11.2172 22.5999C11.7198 22.2181 12.2796 21.9017 12.7137 21.4436C12.9537 21.1927 13.0565 20.92 13.0336 20.5928C13.0222 20.5164 12.9879 20.4291 12.9536 20.3528C12.8623 20.4837 12.8051 20.6146 12.748 20.7455C12.531 21.2254 12.2453 21.6399 11.617 21.6618C11.5827 21.6618 11.537 21.7054 11.5256 21.7381C11.4685 21.869 11.4342 21.9999 11.3657 22.1308C11.24 22.3599 11.0458 22.4908 10.7602 22.4799C10.6574 22.4799 10.566 22.469 10.4632 22.4799C10.4175 22.4799 10.3489 22.5126 10.3261 22.5453C10.189 22.818 10.1319 23.1016 10.2233 23.3962C10.2461 23.4507 10.2804 23.4943 10.3147 23.5598ZM13.6048 17.8112C13.422 17.7894 13.2735 17.7566 13.1136 17.7457C12.9879 17.7457 12.8508 17.7348 12.748 17.7894C12.4738 17.9094 12.2682 18.1166 12.1882 18.4002C12.154 18.5093 12.1425 18.6293 12.1768 18.7384C12.2568 18.9784 12.8851 19.1529 13.0907 18.9893C13.2621 18.8584 13.422 18.7166 13.422 18.4657C13.422 18.3457 13.4792 18.2148 13.5134 18.0948C13.5477 17.9966 13.5706 17.9094 13.6048 17.8112ZM14.7473 5.72491C14.7473 5.74673 14.7358 5.75764 14.7358 5.77945C14.8729 5.82309 14.9986 5.89944 15.1357 5.92126C15.5698 5.9758 16.0039 5.91035 16.3923 5.7031C16.9179 5.40858 17.4091 5.09224 17.9232 4.7759C17.9232 4.7759 17.9232 4.75409 17.9232 4.73227C16.815 4.93952 15.7526 5.25586 14.7473 5.72491ZM21.1791 32.2318C21.1677 32.21 21.1562 32.1882 21.1448 32.1773C20.9049 31.9591 20.6764 31.7409 20.5508 31.4464C20.5393 31.4137 20.5051 31.3919 20.4708 31.381C20.1852 31.3482 19.8881 31.3264 19.614 31.4464C19.4997 31.49 19.4655 31.5664 19.5112 31.6646C19.6368 32.0245 19.8539 32.2863 20.2766 32.3409C20.5965 32.3954 20.8935 32.3845 21.1791 32.2318ZM30.7983 24.0507C30.8097 24.0507 30.8211 24.0507 30.844 24.0398C30.8554 23.9743 30.8668 23.9198 30.8668 23.8543C30.8897 23.4289 30.6955 23.058 30.4213 22.7526C30.0671 22.3599 29.6444 22.0217 29.2446 21.6618C29.2332 21.7599 29.2332 21.8472 29.2674 21.9345C29.3588 22.1635 29.416 22.4144 29.5645 22.5999C29.9872 23.0798 30.5012 23.4725 30.7983 24.0507ZM14.8272 16.9167C14.8158 16.9058 14.8044 16.8949 14.7815 16.8949C14.6901 16.9712 14.5987 17.0367 14.5188 17.1131C14.2103 17.4294 14.0275 17.8003 13.8333 18.193C13.7076 18.4548 13.8904 18.662 13.9133 18.9129C14.2446 18.7929 14.4616 18.5748 14.6444 18.3348C14.6787 18.2911 14.6787 18.2257 14.6673 18.1821C14.6102 17.833 14.6673 17.4948 14.7701 17.1567C14.8044 17.0694 14.8158 16.9931 14.8272 16.9167ZM14.1189 24.6724C14.0504 24.7051 13.9933 24.727 13.9476 24.7488C13.5134 25.0215 13.1593 25.3815 12.8623 25.7851C12.6223 26.1123 12.4967 26.4832 12.5081 26.8868C12.5081 26.9413 12.5538 26.985 12.5766 27.0395C12.6109 26.9959 12.6566 26.9631 12.668 26.9195C12.7709 26.4723 13.0565 26.1341 13.3992 25.8396C13.5706 25.6869 13.7533 25.5451 13.9133 25.3815C14.1189 25.196 14.1532 24.956 14.1189 24.6724ZM27.6223 23.4071C27.1768 24.0725 27.2453 24.836 27.668 25.1742C27.828 24.847 27.9765 24.5306 28.125 24.2143C28.1364 24.1925 28.125 24.1488 28.1136 24.127C27.9422 23.887 27.7823 23.658 27.6223 23.4071ZM33.8257 8.83375C34.0199 9.06282 34.3055 9.06282 34.534 9.1719C34.7625 9.28098 35.0138 9.35734 35.2537 9.45551C35.208 9.33552 35.1395 9.23735 35.0709 9.15008C34.8767 8.92101 34.6825 8.69194 34.4883 8.45196C34.4312 8.38651 34.3741 8.3756 34.3055 8.44105C34.157 8.56104 33.9971 8.69194 33.8257 8.83375ZM4.4883 16.764C4.29409 16.3168 4.30551 15.8477 4.44261 15.3568C4.22555 15.5968 4.03133 15.7932 3.84855 16.0004C3.83712 16.0113 3.8257 16.0441 3.83712 16.0659C3.85997 16.2077 3.87139 16.3604 3.92852 16.5022C4.01991 16.764 4.157 16.8185 4.4883 16.764ZM3.76858 12.4334C3.78 12.4444 3.79142 12.4553 3.81427 12.4553C4.09988 12.2262 4.38548 11.9971 4.67109 11.768C4.55685 11.7135 4.45403 11.6699 4.35121 11.6262C4.22555 11.5717 4.14558 11.5935 4.09988 11.7244C4.05418 11.8444 3.98564 11.9535 3.92852 12.0735C3.87139 12.1935 3.81427 12.3135 3.76858 12.4334ZM3.66576 16.8076C3.65433 16.8076 3.64291 16.8185 3.63149 16.8185C3.62006 16.9822 3.59721 17.1349 3.58579 17.2985C3.58579 17.3203 3.63149 17.3639 3.65433 17.3749C3.85997 17.4076 4.06561 17.4294 4.28267 17.4621C4.29409 17.3749 4.31694 17.3094 4.32836 17.2221C4.01991 17.2003 3.80285 17.0694 3.66576 16.8076ZM13.4906 20.8873C13.502 20.8873 13.5134 20.8873 13.5363 20.8873C13.5477 20.8764 13.5591 20.8546 13.5591 20.8437C13.5363 20.4837 13.5134 20.1128 13.4906 19.7528C13.4906 19.731 13.4563 19.6874 13.4335 19.6874C13.3649 19.7092 13.2735 19.7201 13.2164 19.7637C13.1479 19.8183 13.1364 19.8837 13.1936 19.971C13.3421 20.211 13.4563 20.4619 13.4563 20.7455C13.4449 20.7891 13.4677 20.8437 13.4906 20.8873ZM34.6025 13.1752C34.2712 13.0116 33.9628 12.9134 33.5629 12.9461C33.6772 13.0225 33.7686 13.0661 33.8371 13.1316C33.9057 13.197 33.9628 13.2625 34.0313 13.3388C34.2027 13.2952 34.3855 13.2407 34.6025 13.1752ZM12.7823 6.81573C12.7709 6.80482 12.7594 6.79392 12.7594 6.78301C12.2111 7.09934 11.697 7.44841 11.1715 7.87383C11.3086 7.87383 11.3885 7.88473 11.4799 7.87383C11.5142 7.87383 11.5713 7.8411 11.5827 7.80838C11.7541 7.53567 12.0054 7.32842 12.2796 7.13207C12.4396 7.02299 12.6109 6.92481 12.7823 6.81573ZM5.67642 14.5278C5.665 14.4078 5.665 14.266 5.65357 14.0915C5.40224 14.3206 5.17376 14.5387 4.94527 14.746C4.9567 14.7569 4.96812 14.7678 4.97954 14.7787C5.20803 14.6914 5.43651 14.6151 5.67642 14.5278ZM10.7145 21.16C10.6917 21.0618 10.6688 20.9746 10.646 20.8873C10.6231 20.8 10.6117 20.7018 10.566 20.6146C10.5431 20.56 10.4746 20.5164 10.4289 20.4619C10.3718 20.5273 10.269 20.5819 10.2575 20.6582C10.2233 20.8 10.5203 21.1273 10.7145 21.16ZM37.47 10.8736C37.4814 10.8627 37.4929 10.8627 37.4929 10.8518C37.4015 10.699 37.3101 10.5463 37.2073 10.3936C37.0816 10.1864 37.0473 10.1864 36.8417 10.35C37.0588 10.5245 37.2644 10.699 37.47 10.8736ZM38.7838 17.3858C39.0009 17.353 39.2065 17.3312 39.4121 17.2985C39.4464 17.2985 39.4693 17.244 39.5035 17.2221C39.4693 17.2112 39.4236 17.1894 39.4007 17.2003C39.2065 17.2658 39.0123 17.244 38.8295 17.1676C38.8067 17.1567 38.7838 17.1676 38.7495 17.1785C38.761 17.244 38.7724 17.2985 38.7838 17.3858ZM18.9742 19.9492C18.8028 19.8183 18.6658 19.7201 18.5058 19.611C18.5287 19.7747 18.5401 19.9165 18.5629 20.0692C18.6886 20.0364 18.8028 20.0037 18.9742 19.9492ZM15.9468 6.27032C15.9468 6.29214 15.9468 6.31395 15.9354 6.32486C16.0496 6.35759 16.1524 6.3794 16.2667 6.41213C16.2781 6.33577 16.3009 6.24851 16.3238 6.15033C16.1639 6.19396 16.061 6.2376 15.9468 6.27032ZM15.684 19.8074C15.684 19.8183 15.6726 19.8292 15.6726 19.8401C15.7297 19.8837 15.7869 19.9165 15.844 19.9601C15.8668 19.8837 15.8668 19.8183 15.8326 19.7965C15.8097 19.7747 15.7412 19.8074 15.684 19.8074Z" fill="black"/>
<path d="M25.2347 19.0329C25.1547 18.9783 25.0976 18.9347 25.0405 18.8911C24.3322 18.4984 23.6353 18.542 22.9384 18.9129C22.8242 18.9783 22.7214 19.0656 22.5957 19.1201C22.5614 19.142 22.4814 19.142 22.4586 19.1201C22.4357 19.0983 22.4243 19.0329 22.4358 18.9892C22.4472 18.9456 22.4929 18.8911 22.5271 18.8583C22.9041 18.5311 23.3611 18.4002 23.8524 18.3566C24.3436 18.3129 24.8006 18.3457 25.2233 18.6293C25.3946 18.7493 25.5888 18.8474 25.783 18.9456C26.2057 19.142 26.6056 19.022 26.8455 18.6293C26.8798 18.5747 26.9255 18.5202 26.9712 18.4766C27.0054 18.4547 27.074 18.4329 27.1083 18.4438C27.1425 18.4656 27.1654 18.5202 27.1654 18.5747C27.1654 18.6184 27.1425 18.6729 27.1197 18.7165C26.8798 19.1092 26.5485 19.3601 26.0572 19.3492C26.023 19.3492 26.0001 19.3492 25.9658 19.3492C25.9544 19.3492 25.9544 19.3601 25.943 19.371C26.1829 19.5892 26.1943 19.611 25.9087 19.8074C25.406 20.1455 24.8805 20.4291 24.2408 20.4618C24.0808 20.4728 23.9209 20.4728 23.7724 20.44C23.3497 20.3419 22.9384 20.2328 22.5271 20.1237C22.3558 20.0801 22.3101 19.9273 22.3672 19.7637C22.5843 19.1092 23.1669 18.9674 23.761 18.8802C24.1837 18.8147 24.6063 18.902 25.029 19.022C25.0747 19.0329 25.1204 19.0438 25.1661 19.0547C25.1776 19.0547 25.189 19.0438 25.2347 19.0329ZM23.1098 19.3383C23.1326 19.4474 23.1555 19.5237 23.1555 19.611C23.1441 19.8728 23.2811 20.0582 23.5553 20.1128C24.0808 20.2219 24.5949 20.2328 25.0862 19.971C25.2918 19.8619 25.3147 19.851 25.2918 19.6219C25.2804 19.5128 25.2461 19.4474 25.1433 19.4038C25.0176 19.3492 24.892 19.2838 24.7549 19.2401C24.1951 19.0765 23.6353 19.0874 23.1098 19.3383ZM22.5386 19.731C22.55 19.7528 22.5614 19.7855 22.5843 19.8074C22.6757 19.8401 22.7671 19.8728 22.8813 19.9164C22.8699 19.7746 22.8584 19.6546 22.847 19.5456C22.8242 19.5347 22.8127 19.5237 22.7899 19.5128C22.6985 19.5892 22.6185 19.6655 22.5386 19.731Z" fill="black"/>
<path d="M23.0527 25.8179C23.0298 25.7743 23.0184 25.7524 23.007 25.7197C22.9727 25.5997 23.0412 25.5125 23.1669 25.5561C23.4182 25.6324 23.5553 25.8288 23.6696 26.036C23.681 26.0579 23.6581 26.1342 23.6353 26.1451C23.5896 26.1669 23.5211 26.1779 23.4754 26.156C23.384 26.1015 23.2926 26.1233 23.2012 26.1342C22.8813 26.1997 22.55 26.2869 22.2187 26.3088C22.0245 26.3197 21.8188 26.2433 21.6361 26.1779C21.3961 26.0906 21.1905 26.047 20.962 26.2215C20.7678 26.3742 20.5622 26.396 20.3451 26.2542C20.0709 26.0906 19.7739 26.0797 19.4769 26.1779C19.2827 26.2324 19.0885 26.2978 18.8942 26.3524C18.6429 26.4178 18.3916 26.4178 18.1517 26.2869C18.0489 26.2324 17.9689 26.2433 17.9003 26.3306C17.8318 26.4178 17.7518 26.4178 17.6719 26.3524C17.5805 26.2869 17.5805 26.1997 17.649 26.1233C17.729 26.0142 17.8204 25.9052 17.9232 25.8179C18.0831 25.6761 18.1859 25.7197 18.2545 25.9052C18.2659 25.9379 18.3345 25.9815 18.3802 25.9815C18.6201 25.9706 18.8714 25.9597 19.1113 25.9379C19.2141 25.927 19.3284 25.8942 19.4312 25.8615C19.7853 25.7633 20.1166 25.7852 20.4479 25.927C20.5736 25.9815 20.6764 25.9815 20.7907 25.9161C21.0648 25.7415 21.3619 25.7524 21.6589 25.8506C22.0816 25.9815 22.5043 26.047 22.927 25.8724C22.9727 25.8506 23.007 25.8397 23.0527 25.8179Z" fill="black"/>
<path d="M19.8082 18.8365C20.0367 18.6947 20.0938 18.7056 20.1395 18.9565C20.1623 19.0983 20.1623 19.251 20.1509 19.4038C20.1395 19.851 20.1052 20.3091 20.0938 20.7564C20.0938 21.0291 20.1395 21.3127 20.1281 21.5854C20.1166 21.8254 20.0481 22.0544 20.0024 22.2835C19.9338 22.5998 19.8539 22.9162 19.9567 23.2434C20.0595 23.5816 20.2423 23.7234 20.6079 23.7234C20.7221 23.7234 20.8364 23.7234 20.9506 23.7125C21.0306 23.7125 21.0877 23.7343 21.0991 23.8216C21.1105 23.9088 21.0763 23.9525 20.9963 23.9852C20.585 24.1706 19.8996 24.0179 19.7054 23.4834C19.5683 23.0907 19.5683 22.7089 19.6825 22.3271C19.831 21.8254 19.8767 21.3236 19.7853 20.8109C19.7511 20.5927 19.8082 20.3528 19.8082 20.1346C19.8196 19.6983 19.8082 19.2619 19.8082 18.8365Z" fill="black"/>
<path d="M21.9902 18.6075C22.0245 18.5747 22.0473 18.542 22.0816 18.5311C22.3786 18.4329 22.5728 18.1929 22.8013 17.9966C22.9841 17.833 23.1783 17.6584 23.4411 17.593C23.6124 17.5494 23.7724 17.473 23.9437 17.4403C24.2065 17.3966 24.4807 17.3966 24.7434 17.4948C25.1661 17.6584 25.5888 17.8002 26.0115 17.9311C26.3314 18.0293 26.6627 18.0402 26.994 17.9639C27.0626 17.953 27.154 17.9748 27.2339 17.9857C27.1768 18.0402 27.1197 18.1057 27.0511 18.1384C26.6741 18.2911 26.2743 18.2257 25.8973 18.1384C25.5888 18.073 25.2918 17.9421 24.9948 17.833C24.6635 17.713 24.3093 17.6039 23.9666 17.7021C23.5896 17.8002 23.2126 17.9202 22.9384 18.2257C22.8013 18.3784 22.63 18.5093 22.47 18.6293C22.3329 18.7274 22.1159 18.7056 21.9902 18.6075Z" fill="black"/>
<path d="M21.1791 27.0612C20.8821 27.0285 20.5965 26.9958 20.3109 26.974C20.1509 26.963 19.991 26.9849 19.831 27.0176C19.4883 27.083 19.157 27.0939 18.8371 26.963C18.7572 26.9303 18.6886 26.8867 18.6315 26.8321C18.5858 26.7885 18.5972 26.7012 18.5744 26.6358C18.6429 26.6358 18.7115 26.614 18.7686 26.6249C18.8714 26.6467 18.9628 26.7122 19.0542 26.7231C19.3169 26.734 19.5797 26.7122 19.8425 26.7231C20.1166 26.7231 20.4022 26.6903 20.665 26.7449C21.2591 26.854 21.8189 26.7558 22.3786 26.5594C22.4815 26.5267 22.5843 26.5267 22.6071 26.614C22.6185 26.6576 22.5386 26.7776 22.4815 26.7994C22.0702 26.9303 21.6361 27.0503 21.1791 27.0612Z" fill="black"/>
<path d="M21.9674 25.5015C21.8303 25.4579 21.6703 25.4034 21.5104 25.3488C21.2819 25.2615 21.0648 25.207 20.8249 25.3488C20.745 25.3924 20.585 25.3488 20.4708 25.3052C20.288 25.2397 20.1395 25.2725 19.9795 25.3379C19.8196 25.4034 19.6597 25.4797 19.4883 25.5124C19.3626 25.5343 19.237 25.5015 19.1113 25.4906C19.077 25.4797 19.0428 25.4252 19.0199 25.3924C19.0542 25.3597 19.1113 25.2943 19.1342 25.2943C19.4769 25.3597 19.7396 25.1634 20.0367 25.0652C20.2423 24.9998 20.4365 24.967 20.6422 25.0543C20.6993 25.0761 20.7907 25.0543 20.8592 25.0216C21.1105 24.8798 21.3619 24.9125 21.6018 25.0434C21.7846 25.1525 21.9674 25.2725 22.1958 25.2725C22.2301 25.2725 22.2758 25.3379 22.2758 25.3706C22.2758 25.4034 22.2301 25.447 22.1958 25.4688C22.1273 25.4797 22.0702 25.4797 21.9674 25.5015Z" fill="black"/>
<path d="M18.323 23.8215C18.323 23.8106 18.323 23.7779 18.3345 23.767C18.3687 23.7343 18.4144 23.6906 18.4715 23.6688C18.483 23.6688 18.5515 23.7343 18.5515 23.7779C18.5744 23.9961 18.6543 24.0506 18.8828 24.007C19.0999 23.9633 19.3169 23.9088 19.534 23.887C19.7853 23.8652 19.991 23.9633 20.1738 24.1161C20.208 24.1488 20.208 24.2033 20.2194 24.2579C20.1738 24.2688 20.1166 24.2906 20.0709 24.2797C19.7853 24.1488 19.5111 24.1815 19.2141 24.2579C19.077 24.2906 18.9399 24.3124 18.8028 24.3233C18.5515 24.3124 18.323 24.0833 18.323 23.8215Z" fill="black"/>
<path d="M22.7442 23.5489C22.7442 23.8216 22.5957 23.9852 22.2758 24.0616C22.0816 24.1052 21.876 24.1052 21.6703 24.127C21.5447 24.1379 21.4076 24.1488 21.2819 24.1488C21.2248 24.1488 21.1791 24.1052 21.122 24.0834C21.1563 24.0398 21.1905 23.9743 21.2362 23.9634C21.3962 23.9198 21.5447 23.9089 21.7046 23.8761C21.8646 23.8543 22.0245 23.8543 22.1844 23.8107C22.3444 23.7671 22.4586 23.6689 22.47 23.4944C22.47 23.4616 22.4815 23.4289 22.4929 23.4071C22.5386 23.3744 22.5957 23.3307 22.6528 23.3198C22.6757 23.3198 22.7099 23.3962 22.7328 23.4398C22.7556 23.4725 22.7442 23.5162 22.7442 23.5489Z" fill="black"/>
<path d="M22.4814 20.92C22.4129 20.8655 22.3329 20.8327 22.2872 20.7673C22.0359 20.4509 21.876 20.091 21.8303 19.6983C21.8303 19.6546 21.8531 19.611 21.8645 19.5674C21.9102 19.5892 21.9674 19.611 22.0016 19.6437C22.0359 19.6983 22.0473 19.7637 22.0702 19.8183C22.1958 20.0801 22.3215 20.3528 22.4357 20.6146C22.47 20.7018 22.4929 20.7891 22.5271 20.8764C22.5157 20.8873 22.4929 20.8982 22.4814 20.92Z" fill="black"/>
<path d="M21.1791 24.5959C21.2019 24.7487 21.122 24.8359 21.0077 24.8468C20.8592 24.8468 20.6993 24.8032 20.5393 24.7705C20.5279 24.7705 20.5051 24.705 20.5165 24.6832C20.5393 24.6614 20.585 24.6396 20.6193 24.6396C20.7107 24.6396 20.8021 24.6614 20.8935 24.6505C20.9734 24.6505 21.0648 24.6178 21.1791 24.5959Z" fill="black"/>
</svg>
