<svg width="26" height="21" viewBox="0 0 26 21" fill="none" xmlns="http://www.w3.org/2000/svg">
<path d="M16.0146 18.881V18.8052H11.4412V18.881L11.442 18.9184C11.442 19.3379 11.282 19.7402 10.9974 20.0368C10.7127 20.3334 10.3267 20.5 9.92413 20.5C9.52158 20.5 9.13551 20.3334 8.85087 20.0368C8.56622 19.7402 8.40631 19.3379 8.40631 18.9184L8.4071 18.8793V18.8052H7.88573C7.66344 18.8052 7.44784 18.726 7.27471 18.5807C7.10159 18.4355 6.98136 18.2328 6.93399 18.0065L6.93319 17.9999L3.88557 2.96337L1.28187 2.51161C1.03389 2.45941 0.8151 2.30881 0.671713 2.09163C0.528326 1.87445 0.471576 1.60769 0.513452 1.34771C0.555328 1.08773 0.692551 0.854893 0.896129 0.698393C1.09971 0.541892 1.3537 0.473983 1.60444 0.509012L1.59965 0.50818L4.85806 1.07393C5.25488 1.14465 5.56627 1.45748 5.64931 1.8585L5.65011 1.86515L6.20262 4.58076L15.708 5.40609C15.6493 5.73146 15.6194 6.06176 15.6186 6.39283V6.39615C15.6186 6.73061 15.6465 7.05842 15.7008 7.37707L15.696 7.34379C15.4344 7.4297 15.2124 7.61302 15.0723 7.85874C14.9322 8.10446 14.884 8.39534 14.9367 8.6758L14.9359 8.66831L15.51 12.9863C15.5451 13.2634 15.6665 13.5063 15.8437 13.6894C16.005 13.8566 16.2262 13.9614 16.4713 13.9639H16.4721C16.5264 13.9639 16.5799 13.9581 16.631 13.9481L16.6254 13.9489C16.8976 13.8748 17.1326 13.6956 17.2828 13.4477C17.433 13.1997 17.4871 12.9016 17.4342 12.6136L17.435 12.6211L17.122 10.2732C17.6188 10.8118 18.2149 11.2401 18.8747 11.5323C19.5344 11.8246 20.244 11.9747 20.9609 11.9738C20.9952 11.9738 21.0296 11.9738 21.0631 11.9688L21.1374 11.9646L20.6032 15.2111C20.5904 15.2898 20.5513 15.3612 20.4929 15.4128C20.4345 15.4644 20.3604 15.4929 20.2838 15.4931H8.41509L8.67618 16.7802H19.9796C20.2311 16.7906 20.4691 16.902 20.6436 17.091C20.8181 17.28 20.9157 17.5321 20.9159 17.7944C20.9161 18.0567 20.8189 18.3089 20.6447 18.4983C20.4705 18.6876 20.2327 18.7994 19.9812 18.8102H19.0502V18.8859C19.0502 19.3054 18.8903 19.7077 18.6057 20.0043C18.321 20.3009 17.935 20.4676 17.5324 20.4676C17.1299 20.4676 16.7438 20.3009 16.4592 20.0043C16.1745 19.7077 16.0146 19.3054 16.0146 18.8859V18.881ZM17.0989 18.881C17.099 18.943 17.1116 19.0044 17.1357 19.0612C17.1598 19.118 17.195 19.1689 17.239 19.2108C17.283 19.2527 17.3348 19.2846 17.3913 19.3045C17.4477 19.3244 17.5075 19.3319 17.5669 19.3264C17.6262 19.321 17.6839 19.3028 17.7361 19.2729C17.7884 19.2431 17.8341 19.2022 17.8704 19.153C17.9067 19.1038 17.9328 19.0472 17.9471 18.9869C17.9613 18.9266 17.9634 18.8639 17.9532 18.8027V18.8052H17.1069C17.1026 18.8302 17.1004 18.8556 17.1005 18.881H17.0989ZM9.49138 18.881C9.49154 18.943 9.50408 19.0044 9.5282 19.0612C9.55232 19.118 9.58749 19.1689 9.63148 19.2108C9.67548 19.2527 9.72735 19.2846 9.78379 19.3045C9.84024 19.3244 9.90003 19.3319 9.9594 19.3264C10.0188 19.321 10.0764 19.3028 10.1286 19.2729C10.1809 19.2431 10.2266 19.2022 10.2629 19.153C10.2993 19.1038 10.3254 19.0472 10.3396 18.9869C10.3539 18.9266 10.3559 18.8639 10.3457 18.8027V18.8052H9.49856C9.49456 18.8297 9.49269 18.8545 9.49298 18.8793V18.881H9.49138ZM12.5789 7.33713C12.3066 7.41109 12.0715 7.59025 11.9213 7.83824C11.7711 8.08623 11.717 8.38448 11.7701 8.67247L11.7693 8.66498L12.3434 12.983C12.3785 13.26 12.4999 13.503 12.6771 13.686C12.8384 13.8533 13.0596 13.9581 13.3047 13.9606H13.3055C13.3598 13.9606 13.4133 13.9548 13.4644 13.9448L13.4588 13.9456C13.731 13.8715 13.966 13.6923 14.1162 13.4443C14.2664 13.1964 14.3205 12.8982 14.2676 12.6103L14.2684 12.6178L13.6943 8.29974C13.6612 8.03324 13.5438 7.78585 13.3606 7.59671C13.1939 7.42317 12.9687 7.32436 12.733 7.32132H12.7322C12.6771 7.32132 12.6236 7.32715 12.5717 7.33796L12.5773 7.33713H12.5789ZM9.41233 7.33713C9.13909 7.41075 8.90314 7.5903 8.75267 7.8391C8.6022 8.0879 8.54856 8.38718 8.60272 8.6758L8.60192 8.66831L9.176 12.9863C9.21113 13.2634 9.33249 13.5063 9.50974 13.6894C9.67103 13.8566 9.89219 13.9614 10.1373 13.9639H10.1381C10.1924 13.9639 10.2459 13.9581 10.297 13.9481L10.2914 13.9489C10.5639 13.8751 10.7992 13.6961 10.9496 13.4481C11.0999 13.2 11.1541 12.9017 11.101 12.6136L11.1018 12.6211L10.5269 8.30057C10.4938 8.03407 10.3764 7.78668 10.1932 7.59754C10.0267 7.4237 9.80135 7.32483 9.56563 7.32216H9.56483C9.51054 7.32216 9.45784 7.32798 9.40674 7.33796L9.41233 7.33713ZM16.4298 6.39865C16.43 5.14532 16.908 3.94341 17.7586 3.05733C18.1798 2.61858 18.6798 2.27058 19.2301 2.0332C19.7804 1.79581 20.3701 1.67369 20.9657 1.67379C21.5612 1.6739 22.151 1.79625 22.7011 2.03383C23.2513 2.27142 23.7512 2.61961 24.1723 3.0585C24.5933 3.4974 24.9273 4.01842 25.1551 4.59181C25.3829 5.1652 25.5001 5.77973 25.5 6.40031C25.4997 7.65386 25.0215 8.85594 24.1706 9.7421C23.3197 10.6283 22.1659 11.1259 20.9629 11.1256C19.7599 11.1253 18.6063 10.627 17.7559 9.74034C16.9054 8.85371 16.4279 7.65137 16.4282 6.39782L16.4298 6.39865ZM17.7288 6.39865C17.7288 6.84147 17.8125 7.27996 17.9752 7.68907C18.1378 8.09819 18.3762 8.46992 18.6767 8.78304C18.9771 9.09617 19.3339 9.34455 19.7265 9.51401C20.1191 9.68347 20.5399 9.77069 20.9649 9.77069C21.3899 9.77069 21.8107 9.68347 22.2033 9.51401C22.5959 9.34455 22.9526 9.09617 23.2531 8.78304C23.5536 8.46992 23.792 8.09819 23.9546 7.68907C24.1172 7.27996 24.2009 6.84147 24.2009 6.39865C24.2011 5.50411 23.8601 4.64616 23.2532 4.01354C22.6462 3.38093 21.823 3.02547 20.9645 3.02536C20.106 3.02525 19.2827 3.3805 18.6756 4.01296C18.0685 4.64541 17.7273 5.50327 17.7272 6.39782L17.7288 6.39865ZM20.3158 7.7473V7.07506H19.6706C19.4983 7.07506 19.3329 7.0037 19.2111 6.8767C19.0892 6.74969 19.0207 6.57743 19.0207 6.39782C19.0207 6.2182 19.0892 6.04594 19.2111 5.91894C19.3329 5.79193 19.4983 5.72058 19.6706 5.72058H20.3158V5.04833C20.3158 4.86872 20.3842 4.69646 20.5061 4.56946C20.628 4.44245 20.7933 4.3711 20.9657 4.3711C21.1381 4.3711 21.3034 4.44245 21.4253 4.56946C21.5471 4.69646 21.6156 4.86872 21.6156 5.04833V5.72058H22.2607C22.4331 5.72058 22.5984 5.79193 22.7203 5.91894C22.8422 6.04594 22.9107 6.2182 22.9107 6.39782C22.9107 6.57743 22.8422 6.74969 22.7203 6.8767C22.5984 7.0037 22.4331 7.07506 22.2607 7.07506H21.6156V7.74647C21.6156 7.92608 21.5471 8.09834 21.4253 8.22535C21.3034 8.35236 21.1381 8.42371 20.9657 8.42371C20.7933 8.42371 20.628 8.35236 20.5061 8.22535C20.3842 8.09834 20.3158 7.92608 20.3158 7.74647V7.7473Z" fill="#423232"/>
</svg>
