<svg width="22" height="25" viewBox="0 0 22 25" fill="none" xmlns="http://www.w3.org/2000/svg">
<path d="M8.99853 0.295259C9.09091 0.201618 9.20131 0.127246 9.3232 0.0765353C9.4451 0.0258241 9.57602 -0.000199601 9.70824 1.1527e-06C9.84047 0.000201906 9.97131 0.0266229 10.093 0.077704C10.2148 0.128785 10.3249 0.203492 10.417 0.297413L21.6912 11.7489C21.8892 11.95 22 12.2197 22 12.5005C22 12.7814 21.8892 13.0511 21.6912 13.2522L10.417 24.7037C10.3248 24.7975 10.2145 24.872 10.0927 24.9229C9.97089 24.9738 9.84 25 9.70778 25C9.57556 25 9.44468 24.9738 9.32286 24.9229C9.20105 24.872 9.09077 24.7975 8.99853 24.7037C8.80877 24.5113 8.70253 24.2532 8.70253 23.9843C8.70253 23.7155 8.80877 23.4573 8.99853 23.265L19.6004 12.5005L8.99853 1.73181C8.80942 1.53958 8.70359 1.28186 8.70359 1.01353C8.70359 0.745208 8.80942 0.487485 8.99853 0.295259ZM0.296 0.295259C0.388384 0.201618 0.498782 0.127246 0.620677 0.0765353C0.742572 0.0258241 0.873494 -0.000199601 1.00572 1.1527e-06C1.13794 0.000201906 1.26878 0.0266229 1.39052 0.077704C1.51225 0.128785 1.62242 0.203492 1.71451 0.297413L12.9886 11.7489C13.1867 11.95 13.2975 12.2197 13.2975 12.5005C13.2975 12.7814 13.1867 13.0511 12.9886 13.2522L1.71451 24.7037C1.62227 24.7975 1.51199 24.872 1.39018 24.9229C1.26836 24.9738 1.13748 25 1.00526 25C0.873035 25 0.742153 24.9738 0.620337 24.9229C0.498521 24.872 0.388239 24.7975 0.296 24.7037C0.106237 24.5113 0 24.2532 0 23.9843C0 23.7155 0.106237 23.4573 0.296 23.265L10.8979 12.5005L0.296 1.73181C0.106888 1.53958 0.00106076 1.28186 0.00106076 1.01353C0.00106076 0.745208 0.106888 0.487485 0.296 0.295259Z" fill="#BFB3A4"/>
</svg>
