<svg width="22" height="25" viewBox="0 0 22 25" fill="none" xmlns="http://www.w3.org/2000/svg">
<path d="M13.0015 0.295259C12.9091 0.201618 12.7987 0.127246 12.6768 0.0765352C12.5549 0.0258241 12.424 -0.000199601 12.2918 1.1527e-06C12.1595 0.000201906 12.0287 0.0266229 11.907 0.077704C11.7852 0.128785 11.6751 0.203492 11.583 0.297413L0.308834 11.7489C0.110821 11.95 0 12.2197 0 12.5005C0 12.7814 0.110821 13.0511 0.308834 13.2522L11.583 24.7037C11.6752 24.7974 11.7855 24.872 11.9073 24.9229C12.0291 24.9738 12.16 25 12.2922 25C12.4244 25 12.5553 24.9738 12.6771 24.9229C12.799 24.872 12.9092 24.7974 13.0015 24.7037C13.1912 24.5113 13.2975 24.2532 13.2975 23.9843C13.2975 23.7155 13.1912 23.4573 13.0015 23.265L2.39962 12.5005L13.0015 1.73181C13.1906 1.53958 13.2964 1.28186 13.2964 1.01353C13.2964 0.745208 13.1906 0.487485 13.0015 0.295259ZM21.704 0.295259C21.6116 0.201618 21.5012 0.127246 21.3793 0.0765352C21.2574 0.0258241 21.1265 -0.000199601 20.9943 1.1527e-06C20.8621 0.000201906 20.7312 0.0266229 20.6095 0.077704C20.4877 0.128785 20.3776 0.203492 20.2855 0.297413L9.01136 11.7489C8.81335 11.95 8.70253 12.2197 8.70253 12.5005C8.70253 12.7814 8.81335 13.0511 9.01136 13.2522L20.2855 24.7037C20.3777 24.7974 20.488 24.872 20.6098 24.9229C20.7316 24.9738 20.8625 25 20.9947 25C21.127 25 21.2578 24.9738 21.3797 24.9229C21.5015 24.872 21.6118 24.7974 21.704 24.7037C21.8938 24.5113 22 24.2532 22 23.9843C22 23.7155 21.8938 23.4573 21.704 23.265L11.1021 12.5005L21.704 1.73181C21.8931 1.53958 21.9989 1.28186 21.9989 1.01353C21.9989 0.745208 21.8931 0.487485 21.704 0.295259Z" fill="#423232"/>
</svg>
