<svg width="20" height="19" viewBox="0 0 20 19" fill="none" xmlns="http://www.w3.org/2000/svg">
<path d="M10 7.31223C9.52907 7.31239 9.06877 7.44084 8.67729 7.68133C8.28581 7.92183 7.98074 8.26357 7.80065 8.66334C7.62055 9.06312 7.57352 9.50298 7.66551 9.92732C7.75749 10.3516 7.98435 10.7414 8.31741 11.0473C8.65047 11.3532 9.07477 11.5614 9.53666 11.6458C9.99856 11.7301 10.4773 11.6868 10.9124 11.5212C11.3474 11.3555 11.7193 11.0751 11.9809 10.7154C12.2425 10.3556 12.3821 9.93267 12.3821 9.5C12.3817 8.91976 12.1305 8.36342 11.6839 7.9532C11.2372 7.54298 10.6316 7.31244 10 7.31223ZM15.5674 5.63059C15.4462 5.34833 15.2631 5.09198 15.0296 4.87742C14.7961 4.66286 14.517 4.49468 14.2098 4.3833C13.2723 4.04328 11.0402 4.11957 10 4.11957C8.95982 4.11957 6.72991 4.04041 5.78973 4.3833C5.48252 4.49468 5.20349 4.66286 4.96996 4.87742C4.73642 5.09198 4.55337 5.34833 4.43214 5.63059C4.0625 6.49191 4.14509 8.54475 4.14509 9.49959C4.14509 10.4544 4.0625 12.5048 4.43393 13.369C4.55515 13.6513 4.73821 13.9076 4.97174 14.1222C5.20528 14.3367 5.4843 14.5049 5.79152 14.6163C6.72902 14.9563 8.96116 14.88 10.0018 14.88C11.0424 14.88 13.2714 14.9592 14.2116 14.6163C14.5188 14.5049 14.7978 14.3367 15.0314 14.1222C15.2649 13.9076 15.448 13.6513 15.5692 13.369C15.942 12.5077 15.8562 10.4548 15.8562 9.5C15.8562 8.54516 15.942 6.4952 15.5692 5.631L15.5674 5.63059ZM10 12.8633C9.27598 12.8633 8.56822 12.666 7.96622 12.2965C7.36421 11.9269 6.89501 11.4016 6.61794 10.7871C6.34087 10.1725 6.26838 9.49627 6.40963 8.84386C6.55088 8.19144 6.89952 7.59216 7.41148 7.1218C7.92344 6.65144 8.57572 6.33112 9.28583 6.20134C9.99594 6.07157 10.732 6.13818 11.4009 6.39273C12.0698 6.64729 12.6415 7.07837 13.0438 7.63146C13.446 8.18455 13.6607 8.83481 13.6607 9.5C13.6613 9.94182 13.567 10.3794 13.3833 10.7877C13.1995 11.196 12.9299 11.567 12.5898 11.8794C12.2498 12.1918 11.846 12.4395 11.4016 12.6084C10.9572 12.7772 10.4809 12.8638 10 12.8633ZM13.8116 6.78066C13.6426 6.78075 13.4773 6.73477 13.3368 6.64856C13.1962 6.56235 13.0866 6.43977 13.0219 6.29633C12.9571 6.15289 12.9401 5.99503 12.9731 5.84272C13.006 5.69041 13.0873 5.55049 13.2068 5.44066C13.3263 5.33083 13.4785 5.25602 13.6443 5.2257C13.8101 5.19538 13.9819 5.2109 14.138 5.2703C14.2942 5.32971 14.4277 5.43033 14.5216 5.55944C14.6155 5.68855 14.6656 5.84034 14.6656 5.99563C14.6661 6.09874 14.6444 6.20093 14.6018 6.29633C14.5592 6.39173 14.4965 6.47846 14.4173 6.55155C14.3381 6.62464 14.244 6.68264 14.1404 6.72224C14.0368 6.76184 13.9256 6.78225 13.8134 6.7823L13.8116 6.78066ZM17.8571 0.3125H2.14286C1.57454 0.3125 1.02949 0.519921 0.627628 0.889134C0.225765 1.25835 0 1.7591 0 2.28125L0 16.7188C0 17.2409 0.225765 17.7417 0.627628 18.1109C1.02949 18.4801 1.57454 18.6875 2.14286 18.6875H17.8571C18.4255 18.6875 18.9705 18.4801 19.3724 18.1109C19.7742 17.7417 20 17.2409 20 16.7188V2.28125C20 1.7591 19.7742 1.25835 19.3724 0.889134C18.9705 0.519921 18.4255 0.3125 17.8571 0.3125ZM17.0929 12.207C17.0353 13.2583 16.7741 14.1897 15.9388 14.9551C15.1036 15.7204 14.0906 15.9653 12.9478 16.0153C11.7688 16.0764 8.23393 16.0764 7.05491 16.0153C5.91071 15.9624 4.90045 15.7221 4.06384 14.9551C3.22723 14.1881 2.96429 13.2562 2.90982 12.207C2.8433 11.1234 2.8433 7.87537 2.90982 6.79297C2.96741 5.74174 3.22545 4.81027 4.06384 4.04492C4.90223 3.27957 5.91518 3.03758 7.05491 2.98754C8.23393 2.92643 11.7688 2.92643 12.9478 2.98754C14.092 3.04045 15.1054 3.2808 15.9388 4.04779C16.7723 4.81479 17.0384 5.74666 17.0929 6.79789C17.1594 7.87742 17.1594 11.1226 17.0929 12.207Z" fill="white"/>
</svg>
