<svg width="21" height="21" viewBox="0 0 21 21" fill="none" xmlns="http://www.w3.org/2000/svg">
<path d="M10.5 20.5C16.0228 20.5 20.5 16.0228 20.5 10.5C20.5 4.97715 16.0228 0.5 10.5 0.5C4.97715 0.5 0.5 4.97715 0.5 10.5C0.5 16.0228 4.97715 20.5 10.5 20.5Z" fill="#423232"/>
<path d="M10.5 18.8334C5.905 18.8334 2.16663 15.095 2.16663 10.5C2.16663 5.90504 5.905 2.16669 10.5 2.16669C15.0951 2.16669 18.8333 5.90504 18.8333 10.5C18.8333 15.095 15.0951 18.8334 10.5 18.8334Z" fill="#423232"/>
<path opacity="0.3" d="M13.238 10.3754C12.0903 10.3754 11.1599 11.3057 11.1599 12.4534C11.1599 13.6012 12.0903 14.5315 13.238 14.5315C14.3857 14.5315 15.3161 13.6012 15.3161 12.4534C15.3161 11.3057 14.3857 10.3754 13.238 10.3754ZM14.5123 12.6488H13.4333V13.7277H13.0427V12.6488H11.9637V12.2582H13.0427V11.1792H13.4333V12.2582H14.5123V12.6488Z" fill="#423232"/>
<path opacity="0.3" d="M10.7692 12.4535C10.7692 11.0923 11.8766 9.98469 13.2379 9.98469C13.9794 9.98469 14.6438 10.3148 15.0967 10.834C15.3718 10.2364 15.5 9.66806 15.5 9.15327C15.5 7.7559 14.3672 6.62309 12.9698 6.62309C12.0556 6.62309 11.2571 7.10959 10.8125 7.83621C10.3679 7.10959 9.56938 6.62309 8.65517 6.62309C7.25779 6.62309 6.125 7.7559 6.125 9.15327C6.125 10.8125 7.43746 13.024 10.8125 15.0019C11.1429 14.8083 11.4535 14.6124 11.7451 14.415C11.1534 13.9636 10.7692 13.2535 10.7692 12.4535Z" fill="#423232"/>
<path d="M12.9255 10.0629C11.7778 10.0629 10.8474 10.9932 10.8474 12.1409C10.8474 13.2887 11.7778 14.219 12.9255 14.219C14.0732 14.219 15.0036 13.2887 15.0036 12.1409C15.0036 10.9932 14.0732 10.0629 12.9255 10.0629ZM14.1998 12.3363H13.1208V13.4152H12.7302V12.3363H11.6512V11.9457H12.7302V10.8667H13.1208V11.9457H14.1998V12.3363Z" fill="white"/>
<path d="M10.4567 12.141C10.4567 10.7798 11.5641 9.67219 12.9254 9.67219C13.6669 9.67219 14.3313 10.0023 14.7842 10.5215C15.0593 9.92386 15.1875 9.35556 15.1875 8.84077C15.1875 7.4434 14.0547 6.31059 12.6573 6.31059C11.7431 6.31059 10.9446 6.79709 10.5 7.52371C10.0554 6.79709 9.25688 6.31059 8.34267 6.31059C6.94529 6.31059 5.8125 7.4434 5.8125 8.84077C5.8125 10.5 7.12496 12.7115 10.5 14.6894C10.8304 14.4958 11.141 14.2999 11.4326 14.1025C10.8409 13.6511 10.4567 12.941 10.4567 12.141Z" fill="white"/>
</svg>
