<svg width="84" height="33" viewBox="0 0 84 33" fill="none" xmlns="http://www.w3.org/2000/svg">
<path d="M3.22175 5.84H8.59775V7.92H3.22175V5.84ZM3.41375 12H0.821752V0.799999H9.28575V2.88H3.41375V12ZM11.3445 12L16.4645 0.799999H17.6325L22.7525 12H21.5045L16.8005 1.488H17.2805L12.5765 12H11.3445ZM13.3605 9.008L13.7125 8.048H20.2245L20.5765 9.008H13.3605ZM29.2933 12.096C28.4613 12.096 27.6613 11.9627 26.8933 11.696C26.1359 11.4187 25.5493 11.0667 25.1333 10.64L25.5973 9.728C25.9919 10.112 26.5199 10.4373 27.1813 10.704C27.8533 10.96 28.5573 11.088 29.2933 11.088C29.9973 11.088 30.5679 11.0027 31.0053 10.832C31.4533 10.6507 31.7786 10.4107 31.9813 10.112C32.1946 9.81333 32.3013 9.48267 32.3013 9.12C32.3013 8.68267 32.1733 8.33067 31.9173 8.064C31.6719 7.79733 31.3466 7.58933 30.9413 7.44C30.5359 7.28 30.0879 7.14133 29.5973 7.024C29.1066 6.90667 28.6159 6.784 28.1253 6.656C27.6346 6.51733 27.1813 6.336 26.7653 6.112C26.3599 5.888 26.0293 5.59467 25.7733 5.232C25.5279 4.85867 25.4053 4.37333 25.4053 3.776C25.4053 3.22133 25.5493 2.71467 25.8373 2.256C26.1359 1.78667 26.5893 1.41333 27.1973 1.136C27.8053 0.848 28.5839 0.704 29.5333 0.704C30.1626 0.704 30.7866 0.794666 31.4053 0.976C32.0239 1.14667 32.5573 1.38667 33.0053 1.696L32.6053 2.64C32.1253 2.32 31.6133 2.08533 31.0693 1.936C30.5359 1.78667 30.0186 1.712 29.5173 1.712C28.8453 1.712 28.2906 1.80267 27.8533 1.984C27.4159 2.16533 27.0906 2.41067 26.8773 2.72C26.6746 3.01867 26.5733 3.36 26.5733 3.744C26.5733 4.18133 26.6959 4.53333 26.9413 4.8C27.1973 5.06667 27.5279 5.27467 27.9333 5.424C28.3493 5.57333 28.8026 5.70667 29.2933 5.824C29.7839 5.94133 30.2693 6.06933 30.7493 6.208C31.2399 6.34667 31.6879 6.528 32.0933 6.752C32.5093 6.96533 32.8399 7.25333 33.0853 7.616C33.3413 7.97867 33.4693 8.45333 33.4693 9.04C33.4693 9.584 33.3199 10.0907 33.0213 10.56C32.7226 11.0187 32.2639 11.392 31.6453 11.68C31.0373 11.9573 30.2533 12.096 29.2933 12.096ZM45.841 0.799999H47.009V12H45.841V0.799999ZM38.833 12H37.649V0.799999H38.833V12ZM45.953 6.832H38.705V5.792H45.953V6.832ZM52.2646 12V0.799999H53.4486V12H52.2646ZM63.5888 12.096C62.7461 12.096 61.9621 11.9573 61.2368 11.68C60.5221 11.392 59.8981 10.992 59.3648 10.48C58.8421 9.95733 58.4314 9.35467 58.1328 8.672C57.8448 7.97867 57.7008 7.22133 57.7008 6.4C57.7008 5.57867 57.8448 4.82667 58.1328 4.144C58.4314 3.45067 58.8421 2.848 59.3648 2.336C59.8981 1.81333 60.5221 1.41333 61.2368 1.136C61.9514 0.848 62.7354 0.704 63.5888 0.704C64.4314 0.704 65.2101 0.848 65.9248 1.136C66.6394 1.41333 67.2581 1.808 67.7808 2.32C68.3141 2.832 68.7248 3.43467 69.0128 4.128C69.3114 4.82133 69.4608 5.57867 69.4608 6.4C69.4608 7.22133 69.3114 7.97867 69.0128 8.672C68.7248 9.36533 68.3141 9.968 67.7808 10.48C67.2581 10.992 66.6394 11.392 65.9248 11.68C65.2101 11.9573 64.4314 12.096 63.5888 12.096ZM63.5888 11.04C64.2608 11.04 64.8794 10.928 65.4448 10.704C66.0208 10.4693 66.5168 10.144 66.9328 9.728C67.3594 9.30133 67.6901 8.81067 67.9248 8.256C68.1594 7.69067 68.2768 7.072 68.2768 6.4C68.2768 5.728 68.1594 5.11467 67.9248 4.56C67.6901 3.99467 67.3594 3.504 66.9328 3.088C66.5168 2.66133 66.0208 2.336 65.4448 2.112C64.8794 1.87733 64.2608 1.76 63.5888 1.76C62.9168 1.76 62.2928 1.87733 61.7168 2.112C61.1408 2.336 60.6394 2.66133 60.2128 3.088C59.7968 3.504 59.4661 3.99467 59.2208 4.56C58.9861 5.11467 58.8688 5.728 58.8688 6.4C58.8688 7.06133 58.9861 7.67467 59.2208 8.24C59.4661 8.80533 59.7968 9.30133 60.2128 9.728C60.6394 10.144 61.1408 10.4693 61.7168 10.704C62.2928 10.928 62.9168 11.04 63.5888 11.04ZM73.7146 12V0.799999H74.6906L82.4186 10.528H81.9066V0.799999H83.0746V12H82.0986L74.3866 2.272H74.8986V12H73.7146ZM19.0267 20.8H21.6187V32H19.0267V20.8ZM13.9387 32H11.3467V20.8H13.9387V32ZM19.2188 27.408H13.7467V25.216H19.2188V27.408ZM31.2606 32.096C30.418 32.096 29.634 31.9573 28.9086 31.68C28.194 31.392 27.57 30.992 27.0366 30.48C26.514 29.9573 26.1033 29.3547 25.8046 28.672C25.5166 27.9787 25.3726 27.2213 25.3726 26.4C25.3726 25.5787 25.5166 24.8267 25.8046 24.144C26.1033 23.4507 26.514 22.848 27.0366 22.336C27.57 21.8133 28.194 21.4133 28.9086 21.136C29.6233 20.848 30.4073 20.704 31.2606 20.704C32.1033 20.704 32.882 20.848 33.5966 21.136C34.3113 21.4133 34.93 21.808 35.4526 22.32C35.986 22.832 36.3966 23.4347 36.6846 24.128C36.9833 24.8213 37.1326 25.5787 37.1326 26.4C37.1326 27.2213 36.9833 27.9787 36.6846 28.672C36.3966 29.3653 35.986 29.968 35.4526 30.48C34.93 30.992 34.3113 31.392 33.5966 31.68C32.882 31.9573 32.1033 32.096 31.2606 32.096ZM31.2606 31.04C31.9326 31.04 32.5513 30.928 33.1166 30.704C33.6926 30.4693 34.1886 30.144 34.6046 29.728C35.0313 29.3013 35.362 28.8107 35.5966 28.256C35.8313 27.6907 35.9486 27.072 35.9486 26.4C35.9486 25.728 35.8313 25.1147 35.5966 24.56C35.362 23.9947 35.0313 23.504 34.6046 23.088C34.1886 22.6613 33.6926 22.336 33.1166 22.112C32.5513 21.8773 31.9326 21.76 31.2606 21.76C30.5886 21.76 29.9646 21.8773 29.3886 22.112C28.8126 22.336 28.3113 22.6613 27.8846 23.088C27.4686 23.504 27.138 23.9947 26.8926 24.56C26.658 25.1147 26.5406 25.728 26.5406 26.4C26.5406 27.0613 26.658 27.6747 26.8926 28.24C27.138 28.8053 27.4686 29.3013 27.8846 29.728C28.3113 30.144 28.8126 30.4693 29.3886 30.704C29.9646 30.928 30.5886 31.04 31.2606 31.04ZM45.8985 32.096C44.4692 32.096 43.3438 31.6853 42.5225 30.864C41.7012 30.0427 41.2905 28.8267 41.2905 27.216V20.8H42.4745V27.168C42.4745 28.4907 42.7732 29.4667 43.3705 30.096C43.9678 30.7253 44.8105 31.04 45.8985 31.04C46.9972 31.04 47.8452 30.7253 48.4425 30.096C49.0398 29.4667 49.3385 28.4907 49.3385 27.168V20.8H50.4905V27.216C50.4905 28.8267 50.0798 30.0427 49.2585 30.864C48.4478 31.6853 47.3278 32.096 45.8985 32.096ZM58.7464 32.096C57.9144 32.096 57.1144 31.9627 56.3464 31.696C55.589 31.4187 55.0024 31.0667 54.5864 30.64L55.0504 29.728C55.445 30.112 55.973 30.4373 56.6344 30.704C57.3064 30.96 58.0104 31.088 58.7464 31.088C59.4504 31.088 60.021 31.0027 60.4584 30.832C60.9064 30.6507 61.2317 30.4107 61.4344 30.112C61.6477 29.8133 61.7544 29.4827 61.7544 29.12C61.7544 28.6827 61.6264 28.3307 61.3704 28.064C61.125 27.7973 60.7997 27.5893 60.3944 27.44C59.989 27.28 59.541 27.1413 59.0504 27.024C58.5597 26.9067 58.069 26.784 57.5784 26.656C57.0877 26.5173 56.6344 26.336 56.2184 26.112C55.813 25.888 55.4824 25.5947 55.2264 25.232C54.981 24.8587 54.8584 24.3733 54.8584 23.776C54.8584 23.2213 55.0024 22.7147 55.2904 22.256C55.589 21.7867 56.0424 21.4133 56.6504 21.136C57.2584 20.848 58.037 20.704 58.9864 20.704C59.6157 20.704 60.2397 20.7947 60.8584 20.976C61.477 21.1467 62.0104 21.3867 62.4584 21.696L62.0584 22.64C61.5784 22.32 61.0664 22.0853 60.5224 21.936C59.989 21.7867 59.4717 21.712 58.9704 21.712C58.2984 21.712 57.7437 21.8027 57.3064 21.984C56.869 22.1653 56.5437 22.4107 56.3304 22.72C56.1277 23.0187 56.0264 23.36 56.0264 23.744C56.0264 24.1813 56.149 24.5333 56.3944 24.8C56.6504 25.0667 56.981 25.2747 57.3864 25.424C57.8024 25.5733 58.2557 25.7067 58.7464 25.824C59.237 25.9413 59.7224 26.0693 60.2024 26.208C60.693 26.3467 61.141 26.528 61.5464 26.752C61.9624 26.9653 62.293 27.2533 62.5384 27.616C62.7944 27.9787 62.9224 28.4533 62.9224 29.04C62.9224 29.584 62.773 30.0907 62.4744 30.56C62.1757 31.0187 61.717 31.392 61.0984 31.68C60.4904 31.9573 59.7064 32.096 58.7464 32.096ZM68.1581 25.808H74.0781V26.816H68.1581V25.808ZM68.2861 30.976H75.0221V32H67.1021V20.8H74.7821V21.824H68.2861V30.976Z" fill="#423232"/>
<path d="M-0.506248 14H11.3178V14.8H-0.506248V14ZM10.0187 34H24.5467V34.8H10.0187V34Z" fill="#423232"/>
<path d="M11.3125 14H86.4986V14.8H11.3125V14ZM24.5406 34H75.9821V34.8H24.5406V34Z" fill="#423232"/>
</svg>
