<svg width="83" height="33" viewBox="0 0 83 33" fill="none" xmlns="http://www.w3.org/2000/svg">
<path d="M2.72175 5.84H8.09775V7.92H2.72175V5.84ZM2.91375 12H0.321752V0.799999H8.78575V2.88H2.91375V12ZM10.8445 12L15.9645 0.799999H17.1325L22.2525 12H21.0045L16.3005 1.488H16.7805L12.0765 12H10.8445ZM12.8605 9.008L13.2125 8.048H19.7245L20.0765 9.008H12.8605ZM28.7933 12.096C27.9613 12.096 27.1613 11.9627 26.3933 11.696C25.6359 11.4187 25.0493 11.0667 24.6333 10.64L25.0973 9.728C25.4919 10.112 26.0199 10.4373 26.6813 10.704C27.3533 10.96 28.0573 11.088 28.7933 11.088C29.4973 11.088 30.0679 11.0027 30.5053 10.832C30.9533 10.6507 31.2786 10.4107 31.4813 10.112C31.6946 9.81333 31.8013 9.48267 31.8013 9.12C31.8013 8.68267 31.6733 8.33067 31.4173 8.064C31.1719 7.79733 30.8466 7.58933 30.4413 7.44C30.0359 7.28 29.5879 7.14133 29.0973 7.024C28.6066 6.90667 28.1159 6.784 27.6253 6.656C27.1346 6.51733 26.6813 6.336 26.2653 6.112C25.8599 5.888 25.5293 5.59467 25.2733 5.232C25.0279 4.85867 24.9053 4.37333 24.9053 3.776C24.9053 3.22133 25.0493 2.71467 25.3373 2.256C25.6359 1.78667 26.0893 1.41333 26.6973 1.136C27.3053 0.848 28.0839 0.704 29.0333 0.704C29.6626 0.704 30.2866 0.794666 30.9053 0.976C31.5239 1.14667 32.0573 1.38667 32.5053 1.696L32.1053 2.64C31.6253 2.32 31.1133 2.08533 30.5693 1.936C30.0359 1.78667 29.5186 1.712 29.0173 1.712C28.3453 1.712 27.7906 1.80267 27.3533 1.984C26.9159 2.16533 26.5906 2.41067 26.3773 2.72C26.1746 3.01867 26.0733 3.36 26.0733 3.744C26.0733 4.18133 26.1959 4.53333 26.4413 4.8C26.6973 5.06667 27.0279 5.27467 27.4333 5.424C27.8493 5.57333 28.3026 5.70667 28.7933 5.824C29.2839 5.94133 29.7693 6.06933 30.2493 6.208C30.7399 6.34667 31.1879 6.528 31.5933 6.752C32.0093 6.96533 32.3399 7.25333 32.5853 7.616C32.8413 7.97867 32.9693 8.45333 32.9693 9.04C32.9693 9.584 32.8199 10.0907 32.5213 10.56C32.2226 11.0187 31.7639 11.392 31.1453 11.68C30.5373 11.9573 29.7533 12.096 28.7933 12.096ZM45.341 0.799999H46.509V12H45.341V0.799999ZM38.333 12H37.149V0.799999H38.333V12ZM45.453 6.832H38.205V5.792H45.453V6.832ZM51.7646 12V0.799999H52.9486V12H51.7646ZM63.0888 12.096C62.2461 12.096 61.4621 11.9573 60.7368 11.68C60.0221 11.392 59.3981 10.992 58.8648 10.48C58.3421 9.95733 57.9314 9.35467 57.6328 8.672C57.3448 7.97867 57.2008 7.22133 57.2008 6.4C57.2008 5.57867 57.3448 4.82667 57.6328 4.144C57.9314 3.45067 58.3421 2.848 58.8648 2.336C59.3981 1.81333 60.0221 1.41333 60.7368 1.136C61.4514 0.848 62.2354 0.704 63.0888 0.704C63.9314 0.704 64.7101 0.848 65.4248 1.136C66.1394 1.41333 66.7581 1.808 67.2808 2.32C67.8141 2.832 68.2248 3.43467 68.5128 4.128C68.8114 4.82133 68.9608 5.57867 68.9608 6.4C68.9608 7.22133 68.8114 7.97867 68.5128 8.672C68.2248 9.36533 67.8141 9.968 67.2808 10.48C66.7581 10.992 66.1394 11.392 65.4248 11.68C64.7101 11.9573 63.9314 12.096 63.0888 12.096ZM63.0888 11.04C63.7608 11.04 64.3794 10.928 64.9448 10.704C65.5208 10.4693 66.0168 10.144 66.4328 9.728C66.8594 9.30133 67.1901 8.81067 67.4248 8.256C67.6594 7.69067 67.7768 7.072 67.7768 6.4C67.7768 5.728 67.6594 5.11467 67.4248 4.56C67.1901 3.99467 66.8594 3.504 66.4328 3.088C66.0168 2.66133 65.5208 2.336 64.9448 2.112C64.3794 1.87733 63.7608 1.76 63.0888 1.76C62.4168 1.76 61.7928 1.87733 61.2168 2.112C60.6408 2.336 60.1394 2.66133 59.7128 3.088C59.2968 3.504 58.9661 3.99467 58.7208 4.56C58.4861 5.11467 58.3688 5.728 58.3688 6.4C58.3688 7.06133 58.4861 7.67467 58.7208 8.24C58.9661 8.80533 59.2968 9.30133 59.7128 9.728C60.1394 10.144 60.6408 10.4693 61.2168 10.704C61.7928 10.928 62.4168 11.04 63.0888 11.04ZM73.2146 12V0.799999H74.1906L81.9186 10.528H81.4066V0.799999H82.5746V12H81.5986L73.8866 2.272H74.3986V12H73.2146ZM18.5267 20.8H21.1187V32H18.5267V20.8ZM13.4387 32H10.8467V20.8H13.4387V32ZM18.7188 27.408H13.2467V25.216H18.7188V27.408ZM30.7606 32.096C29.918 32.096 29.134 31.9573 28.4086 31.68C27.694 31.392 27.07 30.992 26.5366 30.48C26.014 29.9573 25.6033 29.3547 25.3046 28.672C25.0166 27.9787 24.8726 27.2213 24.8726 26.4C24.8726 25.5787 25.0166 24.8267 25.3046 24.144C25.6033 23.4507 26.014 22.848 26.5366 22.336C27.07 21.8133 27.694 21.4133 28.4086 21.136C29.1233 20.848 29.9073 20.704 30.7606 20.704C31.6033 20.704 32.382 20.848 33.0966 21.136C33.8113 21.4133 34.43 21.808 34.9526 22.32C35.486 22.832 35.8966 23.4347 36.1846 24.128C36.4833 24.8213 36.6326 25.5787 36.6326 26.4C36.6326 27.2213 36.4833 27.9787 36.1846 28.672C35.8966 29.3653 35.486 29.968 34.9526 30.48C34.43 30.992 33.8113 31.392 33.0966 31.68C32.382 31.9573 31.6033 32.096 30.7606 32.096ZM30.7606 31.04C31.4326 31.04 32.0513 30.928 32.6166 30.704C33.1926 30.4693 33.6886 30.144 34.1046 29.728C34.5313 29.3013 34.862 28.8107 35.0966 28.256C35.3313 27.6907 35.4486 27.072 35.4486 26.4C35.4486 25.728 35.3313 25.1147 35.0966 24.56C34.862 23.9947 34.5313 23.504 34.1046 23.088C33.6886 22.6613 33.1926 22.336 32.6166 22.112C32.0513 21.8773 31.4326 21.76 30.7606 21.76C30.0886 21.76 29.4646 21.8773 28.8886 22.112C28.3126 22.336 27.8113 22.6613 27.3846 23.088C26.9686 23.504 26.638 23.9947 26.3926 24.56C26.158 25.1147 26.0406 25.728 26.0406 26.4C26.0406 27.0613 26.158 27.6747 26.3926 28.24C26.638 28.8053 26.9686 29.3013 27.3846 29.728C27.8113 30.144 28.3126 30.4693 28.8886 30.704C29.4646 30.928 30.0886 31.04 30.7606 31.04ZM45.3985 32.096C43.9692 32.096 42.8438 31.6853 42.0225 30.864C41.2012 30.0427 40.7905 28.8267 40.7905 27.216V20.8H41.9745V27.168C41.9745 28.4907 42.2732 29.4667 42.8705 30.096C43.4678 30.7253 44.3105 31.04 45.3985 31.04C46.4972 31.04 47.3452 30.7253 47.9425 30.096C48.5398 29.4667 48.8385 28.4907 48.8385 27.168V20.8H49.9905V27.216C49.9905 28.8267 49.5798 30.0427 48.7585 30.864C47.9478 31.6853 46.8278 32.096 45.3985 32.096ZM58.2464 32.096C57.4144 32.096 56.6144 31.9627 55.8464 31.696C55.089 31.4187 54.5024 31.0667 54.0864 30.64L54.5504 29.728C54.945 30.112 55.473 30.4373 56.1344 30.704C56.8064 30.96 57.5104 31.088 58.2464 31.088C58.9504 31.088 59.521 31.0027 59.9584 30.832C60.4064 30.6507 60.7317 30.4107 60.9344 30.112C61.1477 29.8133 61.2544 29.4827 61.2544 29.12C61.2544 28.6827 61.1264 28.3307 60.8704 28.064C60.625 27.7973 60.2997 27.5893 59.8944 27.44C59.489 27.28 59.041 27.1413 58.5504 27.024C58.0597 26.9067 57.569 26.784 57.0784 26.656C56.5877 26.5173 56.1344 26.336 55.7184 26.112C55.313 25.888 54.9824 25.5947 54.7264 25.232C54.481 24.8587 54.3584 24.3733 54.3584 23.776C54.3584 23.2213 54.5024 22.7147 54.7904 22.256C55.089 21.7867 55.5424 21.4133 56.1504 21.136C56.7584 20.848 57.537 20.704 58.4864 20.704C59.1157 20.704 59.7397 20.7947 60.3584 20.976C60.977 21.1467 61.5104 21.3867 61.9584 21.696L61.5584 22.64C61.0784 22.32 60.5664 22.0853 60.0224 21.936C59.489 21.7867 58.9717 21.712 58.4704 21.712C57.7984 21.712 57.2437 21.8027 56.8064 21.984C56.369 22.1653 56.0437 22.4107 55.8304 22.72C55.6277 23.0187 55.5264 23.36 55.5264 23.744C55.5264 24.1813 55.649 24.5333 55.8944 24.8C56.1504 25.0667 56.481 25.2747 56.8864 25.424C57.3024 25.5733 57.7557 25.7067 58.2464 25.824C58.737 25.9413 59.2224 26.0693 59.7024 26.208C60.193 26.3467 60.641 26.528 61.0464 26.752C61.4624 26.9653 61.793 27.2533 62.0384 27.616C62.2944 27.9787 62.4224 28.4533 62.4224 29.04C62.4224 29.584 62.273 30.0907 61.9744 30.56C61.6757 31.0187 61.217 31.392 60.5984 31.68C59.9904 31.9573 59.2064 32.096 58.2464 32.096ZM67.6581 25.808H73.5781V26.816H67.6581V25.808ZM67.7861 30.976H74.5221V32H66.6021V20.8H74.2821V21.824H67.7861V30.976Z" fill="white"/>
<path d="M-1.00625 14H10.8178V14.8H-1.00625V14ZM9.51875 34H24.0467V34.8H9.51875V34Z" fill="white"/>
<path d="M10.8125 14H85.9986V14.8H10.8125V14ZM24.0406 34H75.4821V34.8H24.0406V34Z" fill="white"/>
</svg>
