<svg width="20" height="20" viewBox="0 0 20 20" fill="none" xmlns="http://www.w3.org/2000/svg">
<path d="M7.9075 0.00335449L8.515 0.000854492H11.485L12.0933 0.00335449L12.855 0.0116878L13.2158 0.0175212L13.5642 0.0266878L13.9 0.0383545L14.2233 0.0516878L14.535 0.0691878L14.835 0.0900212L15.1225 0.115021L15.4 0.142521C16.85 0.305854 17.8442 0.655854 18.5942 1.40585C19.3442 2.15585 19.6942 3.14919 19.8575 4.60002L19.8858 4.87752L19.91 5.16585L19.9308 5.46585L19.9475 5.77669L19.9683 6.26669L19.9783 6.60835L19.9892 7.14502L19.9967 7.90752L20 8.72419L19.9992 11.485L19.9967 12.0934L19.9883 12.855L19.9825 13.2159L19.9733 13.5642L19.9617 13.9L19.9483 14.2234L19.9308 14.535L19.91 14.835L19.885 15.1225L19.8575 15.4C19.6942 16.85 19.3442 17.8442 18.5942 18.5942C17.8442 19.3442 16.8508 19.6942 15.4 19.8575L15.1225 19.8859L14.8342 19.91L14.5342 19.9309L14.2233 19.9475L13.7333 19.9684L13.3917 19.9784L12.855 19.9892L12.0925 19.9967L11.2758 20L8.515 19.9992L7.90667 19.9967L7.145 19.9884L6.78417 19.9825L6.43583 19.9734L6.1 19.9617L5.77667 19.9484L5.465 19.9309L5.165 19.91L4.8775 19.885L4.6 19.8575C3.15 19.6942 2.15583 19.3442 1.40583 18.5942C0.655833 17.8442 0.305833 16.8509 0.1425 15.4L0.114167 15.1225L0.09 14.8342L0.0691667 14.5342L0.0525 14.2234L0.0316667 13.7334L0.0216667 13.3917L0.0108333 12.855L0.00333333 12.0925L0 11.2759L0.000833333 8.51502L0.00333333 7.90669L0.0116667 7.14502L0.0175 6.78419L0.0266667 6.43585L0.0383333 6.10002L0.0516667 5.77669L0.0691667 5.46502L0.09 5.16502L0.115 4.87752L0.1425 4.60002C0.305833 3.15002 0.655833 2.15585 1.40583 1.40585C2.15583 0.655854 3.14917 0.305854 4.6 0.142521L4.8775 0.114188L5.16583 0.0900212L5.46583 0.0691878L5.77667 0.0525212L6.26667 0.0316878L6.60833 0.0216878L7.145 0.0108545L7.9075 0.00335449ZM5.65833 6.08335H3.375C3.48333 11.2834 6.08333 14.4084 10.6417 14.4084H10.9V11.4334C12.575 11.6 13.8417 12.825 14.35 14.4084H16.7167C16.0667 12.0417 14.3583 10.7334 13.2917 10.2334C14.3583 9.61669 15.8583 8.11669 16.2167 6.08335H14.0667C13.6 7.73335 12.2167 9.23335 10.9 9.37502V6.08335H8.75V11.85C7.41667 11.5167 5.73333 9.90002 5.65833 6.08335Z" fill="white"/>
</svg>
